<?xml version="1.0" encoding="utf-8"?>
<!-- Generator: Adobe Illustrator 26.4.1, SVG Export Plug-In . SVG Version: 6.00 Build 0)  -->
<svg version="1.1" id="Layer_1" xmlns="http://www.w3.org/2000/svg" xmlns:xlink="http://www.w3.org/1999/xlink" x="0px" y="0px"
	 viewBox="0 0 500 500" style="enable-background:new 0 0 500 500;" xml:space="preserve">
<style type="text/css">
	.st0{font-family:'MarkerFelt-Thin';}
	.st1{font-size:41px;}
	.st2{font-family:'ArialMT';}
	.st3{font-size:31.0381px;}
	.st4{opacity:0.22;enable-background:new    ;}
	.st5{fill:#262424;}
	.st6{fill:#FFFFFF;}
	.st7{opacity:0.22;fill:#930505;enable-background:new    ;}
	.st8{fill:#CACACA;}
</style>
<g id="OBJECTS">
	<g>
		<text transform="matrix(1 0 0 1 182.0233 225.2548)" class="st0 st1">-ERROR-</text>
		<text transform="matrix(1 0 0 1 142.0877 262.5008)" class="st2 st3">Page Not found</text>
		<g>
			<ellipse class="st4" cx="250" cy="413.2" rx="82.2" ry="29.6"/>
			<g>
				<path class="st5" d="M327.3,277.7c0-0.2,0-0.3,0-0.3c0-0.2-0.1-0.2-0.3-0.3c-0.1,0-0.2,0-0.3,0c-0.6-0.4-1.6-0.4-2.9,0.2
					c-6.3,2.8-12.1,6.3-17.3,10.7c-0.6,0.5-1,0.9-1.4,1.1c-0.5,0.4-1,0.6-1.5,0.7c-0.6,0.1-1.2,0.1-1.9,0c-0.4-0.1-1.1-0.3-1.9-0.5
					c-3.9-1.2-7.9-2-12-2.3c-4.1-0.3-8.2-0.1-12.2,0.5c-1.3,0.2-2.3,0.4-3,0.5c-1.2,0.2-2.2,0.2-3,0.2c-0.8,0-1.8-0.2-2.9-0.4
					c-0.3-0.1-1.2-0.3-2.9-0.7c-7.3-1.9-14.7-2.5-22.3-1.9c-7.6,0.6-14.9,2.4-21.8,5.4c-0.8,0.3-1.4,0.8-1.8,1.3
					c-0.5,0.6-0.6,1.2-0.3,1.8c0.4,0.5,1.1,0.7,2.3,0.7c3-0.1,7.5-0.3,13.5-0.7c5.3-0.2,9.7,0.1,13.3,0.9
					c-7.4,1.4-14.5,3.9-21.3,7.6c-6.7,3.6-12.7,8.1-18.1,13.4c-5.3,5.2-9.9,11.2-13.7,17.9c-1.4,2.4-2.7,4.9-3.9,7.5
					c-1.1,0.1-2.2,0.3-3.3,0.6c-2.2,0.7-4.7,2.2-7.5,4.4c-1.4,1.1-2.5,2.2-3.3,3.1c-1.1,1.3-1.9,2.5-2.4,3.8
					c-0.7,1.9-0.9,4.5-0.4,7.5c0.5,3.6,1.4,6.5,2.8,8.8c0.8,1.4,2.2,2.9,4,4.7c6.9,6.8,14.8,12.2,23.6,16.2l-4.7,7.2
					c-0.6,1-1.1,1.8-1.3,2.4c-0.4,0.9-0.5,1.8-0.4,2.6c0.1,0.9,0.7,1.6,1.6,2.1c0.9,0.5,1.7,0.5,2.4-0.2c0.1,0.7,0.2,1.3,0.5,1.9
					c0.3,0.6,0.7,1.1,1.2,1.4c0.6,0.3,1.2,0.4,1.8,0.2c0.7-0.3,1-0.7,1.1-1.3c0,0.9,0.6,1.5,1.6,1.7c1,0.3,1.9,0.1,2.6-0.5
					c0.6-0.5,1.1-1.2,1.4-2.2c0.2-0.6,0.4-1.5,0.5-2.7c0.2-1.7,0.4-4.6,0.6-8.9c6,0.7,12.1,0.4,18.1-0.7c1-0.2,2-0.4,2.9-0.6
					c0.2,2,0.7,4.1,1.7,6.2c0.7,1.7,1.7,2.7,2.7,3c0.7,0.2,1.4,0.1,2.2-0.3c0.7-0.4,1.2-0.9,1.4-1.7c0.5,0.4,1,0.4,1.7,0.2
					c0.6-0.3,1-0.7,1.2-1.3c0.6,0.1,1.2-0.1,1.7-0.6c0.5-0.5,0.8-1.1,0.9-1.7c0.1-1.1-0.3-2.3-1.3-3.6c-0.2-0.3-0.7-0.8-1.3-1.5
					c-0.6-0.6-1-1.1-1.2-1.5c-0.1-0.1-0.2-0.2-0.3-0.3c1.6-0.7,3.3-1.4,4.8-2.3c0.1,0,0.2-0.1,0.2-0.2c1,5.3,1.7,10.6,2.3,16
					c-1.7,0.8-2.9,1.7-3.8,2.5c-1.2,1.2-1.9,2.5-2,4c-0.1,0.9,0.2,1.8,0.6,2.6c0.5,0.9,1.1,1.5,1.9,1.9c0.8,0.4,1.7,0.6,2.7,0.5
					c1-0.1,1.8-0.4,2.6-0.9c0.6,0.9,1.2,1.6,1.8,2c0.4,0.3,0.8,0.5,1.3,0.5c0.5,0.1,0.9,0,1.3-0.2c0.6-0.3,1-0.8,1.2-1.6
					c0.2-0.7,0.2-1.4,0.1-2.3c1.2,0.8,2.2,1.3,3,1.5c0.6,0.1,1.1,0.1,1.7,0c0.6-0.2,1.1-0.4,1.4-0.8c0.7-0.9,0.8-2.1,0.3-3.7
					c-0.4-1.1-1-2.2-1.7-3.2c-0.3-0.4-0.6-0.7-0.8-0.9c-0.3-0.4-0.5-0.7-0.7-1c-0.3-0.6-0.6-1.3-0.7-2.2c-0.1-0.5-0.1-1.3-0.1-2.3
					c-0.1-7.5-0.9-15.1-2.4-22.6c-0.5-2.4-0.7-3.8-0.8-4.1c-0.3-1.5-0.4-2.9-0.4-4.1c4.6-0.8,9.2-2,13.8-3.4c1.5,3,3.1,5.6,4.9,7.8
					c1.6,2,3.2,3.5,4.8,4.4c0,0.1-0.1,0.3-0.1,0.5c0,0.3,0,0.4-0.2,0.5c0.2,0.4,0.2,1,0.2,1.6c0,0.4-0.1,0.9-0.1,1.7
					c0,0.4,0.1,0.9,0.2,1.5c0.1,0.8,0.2,1.3,0.2,1.5c0.1,1,0.1,2.2,0,3.6c-0.1,0.8-0.2,2-0.4,3.6c-0.2,1.9,0,3.5,0.4,4.8
					c-1.5,0.3-2.9,0.8-4.1,1.6c-0.6,0.4-1,0.8-1.2,1.1c-0.4,0.6-0.6,1.3-0.4,2.1c0.1,0.8,0.5,1.4,1.1,1.8c0.7,0.8,1.5,1.4,2.6,1.6
					c0.8,0.2,1.9,0.1,3.2-0.2c0.1,1.8,0.7,3,1.6,3.8c0.5,0.4,1.2,0.7,1.9,0.8s1.4-0.1,2-0.4c0.6-0.3,1-0.8,1.3-1.4
					c0.3-0.6,0.4-1.2,0.3-1.9c0.5,0.3,1.2,0.4,2,0.3c0.5-0.1,1.2-0.3,2-0.5c1.7-0.6,2.7-1.4,3-2.4c0.2-0.8,0-1.5-0.5-2.3
					c-0.4-0.5-1-1-1.8-1.5c-0.9-0.5-1.9-0.9-2.9-1.2c-0.5-0.1-0.8-0.2-1-0.4c-0.2-0.2-0.3-0.6-0.3-1.1c0-0.7,0-1.6,0-2.8
					c0-0.1,0.1-0.2,0-0.4c0-0.1,0-0.1,0-0.2c0-0.5,0-1.1,0-1.7c0-2.2,0-3.8-0.1-5c0-1.5-0.2-2.7-0.4-3.8c-0.2-0.7-0.3-1.2-0.3-1.3
					c-0.1-0.5-0.1-1-0.1-1.4c0-0.2,0.1-0.4,0.1-0.6c0-0.2,0-0.3,0-0.4c0.8-0.2,1.7-0.4,2.5-0.7c1.4-0.5,2.9-1.2,4.4-2.1
					c1.1-0.7,2.5-1.6,4-2.8c1.7-1.3,3.1-2.5,4.2-3.5c1.4-1.4,2.5-2.8,3.4-4.2c1.2-2.1,2-4.6,2.5-7.5c0.3-1.8,0.5-4.5,0.5-8.1
					l0.7-34.5c0.1-3.6,0.1-6.3,0-8.1c-0.1-2.8-0.3-5.3-0.7-7.5l0.1,0c0.2-0.3,0.3-0.6,0.3-1c6.2-5.1,11.6-11,16.3-17.4
					c0.6-0.8,0.9-1.6,1.1-2.3C327.5,278.5,327.5,278.1,327.3,277.7 M234,393.2c-0.1-0.4-0.2-0.7-0.3-0.8c0,0-0.1-0.1-0.1-0.1
					c2.7-0.7,5.4-1.5,8-2.6c0,0,0,0,0,0.1c0,0.2,0,0.5,0.2,0.8c0.3,0.4,0.6,0.9,1.1,1.5c0.8,0.9,1.2,1.3,1.2,1.4
					c1,1.2,1.4,2.3,1.2,3.4c-0.4,0.4-0.9,0.6-1.5,0.5c0-0.7-0.2-1.2-0.4-1.5c-0.2-0.2-0.4-0.3-0.7-0.3c-0.3,0-0.5,0.1-0.7,0.3
					c-0.2,0.3-0.1,0.8,0.3,1.5c0.4,0.7,0.5,1.2,0.3,1.5c-0.1,0.2-0.3,0.3-0.6,0.3c-0.3,0-0.5,0-0.7-0.2c-0.3-0.2-0.6-0.4-0.9-0.8
					c-0.2-0.2-0.4-0.5-0.7-1c-0.3,0-0.4,0.2-0.6,0.5c-0.1,0.3-0.2,0.5-0.1,0.8c0.1,0.4,0.4,0.8,0.9,1.3c-0.4,0.4-0.7,0.6-0.9,0.8
					c-0.4,0.2-0.8,0.3-1.1,0.2c-0.5,0-1-0.4-1.5-1.1c-0.6-0.8-1.1-1.8-1.5-3C234.6,395.7,234.3,394.6,234,393.2 M283.4,392.2
					c0,0.2,0,0.4,0,0.7c0.1,0.3,0.2,0.5,0.5,0.7c0.2,0.2,0.4,0.3,0.6,0.3c0.3,0.1,0.5,0.1,0.7,0c0.2-0.1,0.4-0.2,0.6-0.5
					c0.1-0.2,0.2-0.5,0.2-0.7c0.2-0.1,0.3-0.2,0.3-0.2c0.4,0.6,1,1,1.6,1.2c0,2.1,0.2,3.8,0.5,5.2c0.5-0.1,1.1,0,1.7,0.2
					c0.4,0.1,1,0.4,1.6,0.7c0.6,0.3,1.1,0.5,1.4,0.7c0.5,0.3,0.8,0.7,1.1,1.1c0.3,0.4,0.4,0.7,0.3,1c-0.1,0.3-0.3,0.6-0.7,0.8
					c0,0-0.4,0.2-1.1,0.4c0,0-0.4,0.2-1.2,0.6c-0.5,0.2-0.9,0.4-1.2,0.4c-0.5,0-0.9-0.1-1.4-0.4c-0.4-0.3-0.7-0.7-0.8-1.2
					c-0.4,0.3-0.6,0.7-0.6,1.3c0,0.1,0,0.3,0,0.7c0,0.3,0,0.6,0,0.8c0,0.4-0.2,0.8-0.4,1.1s-0.5,0.6-0.9,0.8
					c-0.4,0.2-0.7,0.3-1.1,0.3c-0.4,0-0.8-0.1-1.2-0.3c-0.7-0.3-1.1-0.9-1.4-1.8c-0.2-0.7-0.3-1.6-0.2-2.5c0-0.4,0-0.6-0.1-0.8
					c-0.1-0.1-0.2-0.2-0.3-0.3c-0.1-0.1-0.2-0.1-0.4,0c0,0-0.1,0.2-0.3,0.5c-0.1,0.2-0.4,0.4-0.8,0.6c-0.8,0.3-1.6,0.3-2.4,0
					c-0.8-0.2-1.5-0.6-2.1-1.2c-0.6-0.7-0.8-1.3-0.6-1.9c0.1-0.3,0.4-0.7,0.9-1c1.4-0.9,2.9-1.4,4.6-1.5c0.2-0.4,0.3-1,0.2-1.6
					c-0.2-0.8-0.3-1.3-0.3-1.7c0-0.2-0.1-0.5-0.1-0.7c0.5-0.2,0.9-0.5,1.3-0.8c0.5-0.4,0.8-1,1.1-1.5
					C283.2,391.7,283.3,391.8,283.4,392.2 M226.2,307.3c0.8-1.9,1.9-4.1,3.3-6.4c5.6-2.6,11.3-4.4,17.2-5.5
					c-0.1,0.3-0.2,0.7-0.2,1.1c0,0.2,0,0.6,0,1.3c0,1.7-0.4,4.4-1.3,7.9c-0.9,3.4-1.3,6.1-1.2,7.9c0.2,3.6,1.7,7.2,4.7,10.8
					c1.2,1.4,2.3,2.4,3.4,2.9c0.2,0.1,0.4,0.2,0.6,0.2c0,0.4,0.2,0.9,0.4,1.3c0.3,0.5,0.7,1.1,1.4,1.7l1.2,1.3
					c0.5,0.5,0.8,0.7,1,0.9c0.5,0.3,1.1,0.5,1.9,0.5c0.3,0,0.6,0,1-0.1l3.5,12.6c1.8,6.4,3.3,11.2,4.6,14.4c0.6,1.6,1.3,3.1,2,4.5
					c-0.2,0-0.3,0-0.5,0.1l-12.6,3c-0.2-0.2-0.4-0.4-0.8-0.5c-3.4-1.7-5.5-2.7-6.3-3.1c-2.3-1.2-4.4-2.5-6-3.7
					c-4.4-3.1-7.3-6.7-8.7-10.7c-0.6-1.5-0.8-3-0.8-4.4c0-1.1,0.3-2.6,0.9-4.5l1.8-6.5c0.1-0.5,0.1-0.8,0-1
					c-0.1-0.2-0.2-0.2-0.4-0.3c-0.2-0.1-0.3,0-0.4,0.1c-1.1,3.1-2.9,5.8-5.3,8.1c-0.2-1.7-0.4-2.9-0.6-3.7c-0.3-1.4-0.6-2.5-1.1-3.5
					c-0.3-0.7-0.8-1.6-1.6-2.6c-0.8-1.2-1.3-2.1-1.6-2.6c-1.2-2.1-1.9-4.4-2.2-7c-0.3-2.4-0.1-4.9,0.4-7.5
					C224.4,312.1,225.2,309.7,226.2,307.3 M211.8,313.7c-0.6,1.1-1.3,2.7-2.2,4.8c-1,2.3-1.7,4.1-2.1,5.2c-0.7,2-1.2,3.8-1.5,5.4
					c-0.3,1.6-0.4,3.4-0.4,5.5c0,1.3,0.1,3.1,0.2,5.5c0.6,9.1,1.5,18,2.5,26.5c0.2,1.7,0.4,2.9,0.6,3.7c0.3,1.4,0.7,2.5,1.3,3.5
					c-0.6-0.4-1.2-0.9-1.7-1.5c-0.5-0.6-0.8-1.3-1.1-2c-0.2-0.4-0.3-0.8-0.6-1.1c-0.3-0.3-0.6-0.4-0.9-0.2c0.5,2.7,1.4,5.2,2.7,7.6
					c-3.1-1.3-6-3.6-8.6-6.7c-2-2.4-4-5.6-6-9.6c-1-2-1.8-6-2.2-11.8c-0.2-3.1-0.3-4.9-0.4-5.4c-0.2-1.5-0.4-2.3-0.8-2.3
					c0,0,0,0,0,0c-0.1-0.1-0.2-0.1-0.2-0.1c0.8-1.8,1.7-3.6,2.7-5.3c3.9-7.1,8.6-13.4,14.1-18.9c2.2-2.2,4.4-4.2,6.8-6.1
					C213.2,311.3,212.5,312.4,211.8,313.7 M280.4,307.7c0.1-0.7,0.3-1.1,0.7-1.1c0.3,0,0.6,0.2,0.8,0.6c0.5,0.7,1.2,1.6,1.8,2.6
					c0.4,0.5,0.4,0.9,0.2,1.1c-0.1,0.1-0.3,0.2-0.4,0.2c-0.2,0-0.3,0-0.5-0.1c-0.2-0.2-0.4-0.4-0.6-0.8l-0.8-1.5
					c-0.1-0.1-0.1-0.2-0.2-0.1c0,0-0.1,0.1-0.1,0.2c-0.3,1.3-0.6,2.5-1,3.7c0,0,0.1,0.1,0.1,0.2c0.1,0.2,0.1,0.4,0.1,0.8
					c0,0.4,0,0.9,0.1,1.4c0,0.2,0.1,0.5,0.1,0.8c0.2,1.1,0.4,2,0.4,2.7c0.1,1,0,1.9-0.1,2.7c-0.3,1.4-0.8,2.3-1.7,2.9
					c-0.6,0.4-1.4,0.5-2.3,0.5c-0.7-0.1-1.4-0.3-1.9-0.6c-0.5-0.3-0.8-0.8-1-1.3c-0.1-0.4-0.2-0.8-0.2-1.2c-0.8,0.5-1.6,1-2.5,1.5
					c-1.5,0.8-2.8,1.1-3.8,0.9c-0.2-0.1-0.4-0.1-0.4-0.2c-0.1-0.2,0-0.4,0.3-0.5c0.2-0.1,0.5-0.2,0.8-0.3c0.2,0,0.5-0.1,0.9-0.2
					c0.9-0.2,1.8-0.6,2.8-1.2c0.7-0.4,1.5-1,2.5-1.8c0.8-0.6,1.4-1.1,1.8-1.6c0.6-0.6,1.1-1.2,1.5-1.9c0.2-0.4,0.5-1,0.8-1.8
					c0.6-1.6,1-2.7,1.2-3.3C280,309.9,280.3,308.8,280.4,307.7 M281.5,323.2c0-0.1,0.1-0.1,0.2-0.2c0.1,0,0.2,0,0.3,0
					c0.2,0.2,0.2,0.3,0.2,0.5c0,0.1-0.1,0.3-0.2,0.5c-0.3,0.6-0.6,1-0.9,1.2c-0.4,0.2-0.7,0.4-0.9,0.5c-0.4,0.3-0.6,0.4-0.9,0.5
					c-0.2,0.1-0.5,0.2-0.9,0.3c-0.2,0.1-0.4,0.1-0.4,0.1c-0.2,0-0.3-0.1-0.5-0.2c-0.4-0.2-0.6-0.3-0.7-0.6c1.1,0.1,1.8,0.1,2.3-0.2
					c0.2-0.1,0.4-0.2,0.8-0.5c0.2-0.1,0.4-0.2,0.8-0.4c0.2-0.2,0.4-0.4,0.5-0.5c0.2-0.3,0.4-0.6,0.3-0.9
					C281.5,323.4,281.5,323.3,281.5,323.2 M280.6,295.3L280.6,295.3c0.1,0,0.2,0,0.2-0.1c0.1,0.1,0.1,0.1,0.3,0.2
					c0,0.1,0.1,0.2,0.1,0.3c0,0.1,0.1,0.1,0.2,0.2c0.1,0.1,0.1,0.2,0.1,0.4c0,0.2,0,0.4,0,0.4c0,0.1,0.1,0.2,0.1,0.4
					c0,0.1,0,0.2-0.1,0.3c0,0.1-0.1,0.2-0.1,0.3l-0.5-0.1c-0.2-0.1-0.3-0.2-0.3-0.4c0,0,0-0.1,0-0.3c0-0.1,0-0.2,0-0.3l-0.2-0.2
					c0-0.1-0.1-0.2-0.1-0.3c0-0.1,0-0.2,0-0.3c0-0.1,0-0.2,0-0.3C280.4,295.3,280.5,295.3,280.6,295.3 M282.8,294.3
					c0.1,0,0.2,0.1,0.3,0.2c0,0.1,0.1,0.2,0.1,0.3c0,0.1,0.1,0.2,0.2,0.4c0,0.1,0,0.2,0.1,0.4c0,0.1,0.1,0.2,0.2,0.4
					c0.1,0.3,0,0.5-0.2,0.7c-0.1,0-0.1,0-0.2,0c-0.1,0-0.1-0.1-0.2-0.2l0-0.2c0,0-0.1-0.1-0.1-0.2c-0.1-0.1-0.1-0.2-0.1-0.2
					c0-0.1,0-0.2,0-0.3c0-0.1,0-0.1-0.1-0.2c-0.1-0.1-0.1-0.1-0.1-0.2c-0.1-0.1-0.1-0.3-0.1-0.4c0-0.1,0-0.2,0-0.3
					C282.6,294.4,282.7,294.3,282.8,294.3 M283.9,300.8c-0.1-0.2-0.1-0.3-0.2-0.4l0-0.2c0-0.1,0.1-0.1,0.1-0.2c0.1-0.1,0.2,0,0.3,0
					l0.2,0.2c0,0,0.1,0.1,0.2,0.2c0.1,0.1,0.1,0.2,0.1,0.3c0,0.4,0,0.7-0.1,1.1h-0.3c-0.1,0-0.2,0-0.2-0.1c0-0.1-0.1-0.2-0.1-0.4
					C284,301.1,284,300.9,283.9,300.8 M285.5,301.8c0.1,0,0.2,0.1,0.2,0.2c0.1,0.1,0.1,0.3,0.1,0.5c0,0.2,0,0.3-0.1,0.4
					c0,0-0.1,0.1-0.2,0.2c-0.1,0.1-0.1,0.2-0.1,0.2l-0.1,0.2l-0.1,0.1c-0.2,0-0.3,0-0.4-0.1c0,0-0.1-0.1-0.1-0.2c0-0.2,0-0.4,0-0.5
					c0.1-0.2,0.2-0.3,0.2-0.4c0-0.1,0-0.3,0-0.3c0-0.1,0.1-0.2,0.2-0.3C285.3,301.8,285.4,301.7,285.5,301.8 M278.7,302.1
					c0.1,0.1,0.1,0.2,0.1,0.4c0,0.1,0,0.2,0,0.3l0.1,0.2c0,0,0.1,0.1,0.1,0.2c0,0,0.1,0.1,0.2,0.2c0.1,0.1,0.1,0.2-0.1,0.4
					c-0.1,0.1-0.2,0.1-0.4,0.1l-0.4-0.1c0-0.1,0-0.2-0.1-0.3c-0.1-0.2-0.1-0.3-0.2-0.4c0-0.1-0.1-0.3-0.1-0.5l0-0.3
					c0-0.1,0.1-0.2,0.2-0.2C278.5,302,278.6,302,278.7,302.1 M276.8,294.8c0.1,0.1,0.2,0.2,0.2,0.3l0.1,0.3l0.2,0.2
					c0,0.1,0.1,0.2,0,0.4c0,0.1,0.1,0.3,0.3,0.5c0.2,0.2,0.3,0.3,0.3,0.4c0.1,0.2,0,0.4-0.1,0.5c-0.1,0.1-0.2,0.1-0.4,0l-0.3-0.1
					c-0.1,0-0.1-0.1-0.2-0.3l-0.2-0.5c0-0.2-0.1-0.3-0.1-0.4l-0.2-0.5c0-0.1,0-0.3,0-0.6c0-0.2,0.1-0.3,0.2-0.4
					C276.6,294.7,276.7,294.7,276.8,294.8 M278.7,299.6c0,0,0-0.1,0.1-0.1c0,0,0.1-0.1,0.2,0v-0.1c0.3,0,0.5,0.2,0.6,0.4
					c0.1,0.1,0.1,0.2,0.2,0.4c0,0,0.1,0.1,0.1,0.2c0.1,0.1,0.1,0.1,0.1,0.2c0,0.1,0.1,0.2,0.1,0.4c0,0.1,0,0.2-0.1,0.3
					c0,0,0,0.1-0.1,0.2c-0.1,0.1-0.1,0.2-0.1,0.2l-0.4-0.1c0-0.1-0.1-0.2-0.1-0.4c0-0.2-0.1-0.3-0.1-0.4c0,0-0.1-0.2-0.3-0.5
					c-0.1-0.1-0.2-0.3-0.3-0.5C278.7,299.8,278.7,299.7,278.7,299.6 M212.7,320.1c0,0,0.1-0.1,0.2-0.2c0.3-0.3,0.4-0.4,0.4-0.4
					c0.1-0.1,0.2-0.1,0.3,0c0.1,0,0.2,0.1,0.2,0.2c0,0.2-0.1,0.4-0.3,0.7c-0.1,0.2-0.2,0.5-0.2,0.9l0.1,0.6c0,0.2,0,0.3-0.1,0.4
					c-0.1,0.1-0.2,0.1-0.2,0.2l-0.4-0.1c-0.1-0.2-0.2-0.5-0.1-1v-0.9C212.7,320.4,212.7,320.2,212.7,320.1 M216,318.3
					c0.1,0,0.1,0.1,0.1,0.2l-0.1,0.2c0,0.1,0,0.1,0,0.3c0,0.1-0.1,0.2-0.2,0.3c0,0,0,0.2,0,0.4c0.1,0.5,0,0.9-0.2,1.3h-0.5
					c-0.1-0.3-0.2-0.6-0.1-1.1l0-0.8c0-0.2,0-0.3,0.1-0.4c0.1-0.1,0.2-0.1,0.4-0.2l0.2-0.2C215.8,318.3,215.9,318.3,216,318.3
					 M219,315.1c0,0.1,0,0.2-0.1,0.3c0,0.1-0.1,0.4,0,0.7c0,0.3,0,0.5-0.1,0.7c0,0.1-0.1,0.1-0.1,0.2c0,0-0.1,0-0.2,0
					c-0.2,0.1-0.4,0-0.4-0.1c-0.1-0.1-0.1-0.1-0.1-0.3v-0.8c0-0.2,0-0.4,0-0.5c0.1-0.1,0.2-0.3,0.3-0.5c0.2-0.2,0.3-0.2,0.4-0.2
					l0.1,0.1C218.9,314.8,219,314.9,219,315.1 M220.3,317c0.1-0.1,0.2-0.1,0.3,0c0.1,0,0.2,0.1,0.2,0.2c0.1,0.1,0.1,0.2,0.1,0.3
					l-0.1,0.2c0,0,0,0.2-0.1,0.5l-0.1,0.8c0,0.2-0.1,0.3-0.1,0.4c0,0.1-0.1,0.2-0.3,0.3c-0.2,0-0.3-0.2-0.3-0.5
					c-0.1-0.4-0.1-0.8-0.1-1.3c0-0.2,0-0.3,0-0.3c0.1-0.1,0.2-0.2,0.3-0.3C220.2,317.2,220.2,317.1,220.3,317 M217.1,323.8
					C217.1,323.8,217.2,323.8,217.1,323.8c0.3,0,0.5,0.1,0.6,0.3c-0.1,0.3-0.1,0.7-0.1,1.3c0,0.6-0.1,1-0.2,1.2l-0.5-0.1
					c-0.1-0.4-0.2-1-0.1-1.7c0-0.3,0-0.5,0-0.7l0.1-0.2C216.9,323.8,217,323.8,217.1,323.8 M212.9,328.2c0-0.2,0-0.3,0.1-0.4
					c0-0.1,0.1-0.2,0.2-0.4c0.2-0.2,0.3-0.3,0.3-0.3c0.1-0.1,0.3-0.1,0.5-0.1c0,0.2,0,0.4,0,0.6l-0.2,0.4c0,0.1,0,0.3,0,0.5
					c0,0.7,0,1.2-0.1,1.6c0,0.2-0.1,0.3-0.2,0.4c-0.1,0.1-0.2,0.2-0.4,0.1c-0.1-0.1-0.2-0.2-0.2-0.4
					C212.9,329.9,212.9,329.2,212.9,328.2 M213.2,337.3c-0.1,0.2-0.1,0.3-0.2,0.4c-0.1,0.1-0.3,0.1-0.4,0c-0.2-0.2-0.2-0.4-0.2-0.9
					l0-1.6c0-0.3,0-0.5,0.1-0.6c0.1-0.1,0.2-0.2,0.4-0.2c0.2,0,0.3,0,0.4,0.2c-0.1,0.1-0.2,0.3-0.2,0.7l0,1.3
					C213.2,336.9,213.2,337.2,213.2,337.3 M217,333.4c0.1,0,0.1,0,0.1,0c0.1,0,0.2,0,0.3,0.2c0.1,0.1,0.1,0.2,0.1,0.3
					c0,0.3,0,0.5,0,0.6c0,0.1,0,0.3,0,0.5c0,0.2,0,0.3,0.1,0.4c0.1,0.2,0.1,0.3,0.1,0.3c0,0.1,0,0.3-0.1,0.4c-0.2,0-0.3,0-0.5-0.1
					c-0.2-0.1-0.3-0.2-0.3-0.4c-0.1-0.1-0.1-0.3-0.1-0.5c0-0.6,0-1,0.1-1.4C216.8,333.5,216.9,333.4,217,333.4 M221.6,332.9
					c0,0.1,0.1,0.4,0.3,0.7c0.2,0.3,0.2,0.5,0.2,0.7c0,0.2,0,0.4,0,0.4c0,0.1,0.1,0.1,0.1,0.2c0.1,0.1,0.1,0.4,0.1,0.7
					c0,0.3,0,0.5,0,0.7h-0.3c-0.1-0.3-0.3-0.6-0.5-0.9c-0.1-0.2-0.2-0.3-0.2-0.4s0-0.2,0-0.3c0-0.1,0-0.2,0-0.3
					c0-0.1-0.1-0.2-0.2-0.3c-0.1-0.1-0.2-0.2-0.2-0.2c-0.1-0.1-0.1-0.3-0.1-0.6c0-0.2,0-0.5,0.1-0.7c0-0.1,0.1-0.2,0.1-0.2
					c0.1,0,0.1-0.1,0.2,0c0.1,0,0.1,0.1,0.2,0.1C221.5,332.6,221.6,332.7,221.6,332.9 M223.5,339c0-0.2,0-0.3,0.1-0.5
					c0-0.1,0-0.2,0.1-0.3c0.1-0.1,0.1-0.2,0.2-0.1c0.1,0,0.2,0,0.2,0.1c0.1,0.2,0.2,0.3,0.2,0.5v0.4c0,0.1,0.1,0.2,0.2,0.3
					c0,0,0.1,0.1,0.1,0.3c0,0.3,0,0.4-0.1,0.6c-0.1,0.2-0.2,0.4-0.3,0.5c-0.1-0.1-0.2-0.2-0.3-0.4l-0.1-0.5l-0.2-0.4
					C223.5,339.4,223.5,339.2,223.5,339 M221.7,342.2l0.1,0.2c0.1,0.1,0.1,0.2,0.1,0.4v0.7c0,0.2,0,0.3,0,0.4
					c-0.1,0.1-0.1,0.2-0.3,0.2c-0.1,0-0.2,0-0.3-0.2c-0.1-0.1-0.1-0.2-0.1-0.4c0-0.2,0-0.4,0-0.4L221,343c-0.1-0.1-0.1-0.3-0.1-0.6
					c0-0.3,0.1-0.5,0.1-0.7c0.1-0.2,0.1-0.3,0.2-0.3c0.1,0,0.2,0,0.2,0.1c0.1,0,0.1,0.1,0.1,0.2L221.7,342.2 M217.8,343
					c0.1,0.1,0.1,0.3,0.1,0.5c0,0.2,0,0.4,0,0.7c0,0.4,0.1,0.7,0.2,0.8c0,0.1,0.1,0.2,0.1,0.3c0,0.1,0,0.2-0.1,0.3
					c-0.1,0.2-0.3,0.3-0.5,0.4c-0.2,0.1-0.4,0-0.5-0.2c0.1-0.1,0.2-0.2,0.2-0.3c0,0,0-0.1-0.1-0.2c-0.1-0.1-0.1-0.2-0.1-0.5l0-0.7
					c0-0.4,0.1-0.6,0.2-0.7C217.3,343,217.5,342.9,217.8,343 M213.5,345.2c0-0.1,0-0.2,0.1-0.3c0.1-0.1,0.1-0.2,0.2-0.2
					c0.2,0,0.3,0,0.3,0.2c0.1,0.1,0.1,0.2,0.1,0.4v1c0,0.7,0,1.3-0.1,1.7c0,0.1-0.1,0.2-0.1,0.3c-0.1,0.1-0.2,0.2-0.3,0.1
					c-0.1-0.3-0.2-0.7-0.2-1.3L213.5,345.2 M214.2,352.6c0,0,0,0.1,0.1,0.3l0.1,0.2c0,0.1,0,0.3,0,0.6c0,0.1,0,0.2,0,0.2
					c0,0,0.1,0.1,0.1,0.2c0.1,0.1,0.1,0.2,0.1,0.3c0,0,0,0.1-0.1,0.2c-0.1,0.1-0.1,0.1-0.1,0.2h-0.3v-0.1c-0.2,0-0.3-0.1-0.4-0.2
					c0-0.1-0.1-0.2-0.1-0.3c0-0.2,0-0.3,0-0.4c0-0.1,0-0.3-0.1-0.4c-0.2-0.2-0.2-0.4-0.2-0.6c0-0.1,0.1-0.1,0.2-0.2
					c0.1-0.1,0.2-0.1,0.3-0.1C214.1,352.5,214.2,352.5,214.2,352.6 M216.9,351.2c0.1,0,0.2,0.1,0.4,0.4l1.3,1.2
					c0.1,0.1,0.1,0.1,0.1,0.2c0,0,0,0.1,0,0.3c0,0.1-0.1,0.2,0,0.3h-0.3c0-0.1-0.1-0.1-0.2-0.2c-0.1,0-0.2-0.1-0.4-0.2
					c-0.2-0.2-0.3-0.3-0.3-0.3c-0.2-0.1-0.3-0.2-0.4-0.2c-0.3-0.2-0.4-0.5-0.4-0.9C216.6,351.3,216.7,351.2,216.9,351.2 M221,350.5
					c0.1-0.1,0.1-0.1,0.2-0.1c0.1,0,0.2,0,0.2,0c0,0,0.1,0.2,0.2,0.3c0.1,0.2,0.2,0.3,0.4,0.5l0.8,0.9c0.1,0.2,0.3,0.4,0.4,0.8
					c0.1,0.3,0.1,0.5,0,0.7c-0.1,0.1-0.2,0.1-0.3,0.2c-0.1,0-0.2,0-0.3-0.1c-0.1-0.1-0.3-0.3-0.4-0.5c-0.2-0.3-0.4-0.5-0.5-0.6
					c-0.2-0.1-0.2-0.2-0.3-0.3c-0.1-0.2-0.1-0.4-0.2-0.5c-0.2-0.2-0.3-0.3-0.3-0.3c-0.1-0.1-0.1-0.2,0-0.4
					C220.9,350.7,221,350.6,221,350.5 M227.8,348.1c0.1,0,0.2,0,0.2,0c0.1,0,0.1,0.1,0.2,0.2l0.1,0.3c0,0.1,0.1,0.2,0.2,0.4
					c0.3,0.4,0.5,0.7,0.5,0.8c0,0.1,0.1,0.3,0.1,0.5l0.2,0.4c0,0.1,0,0.2,0,0.4c0,0.1-0.1,0.2-0.2,0.3c-0.1,0.1-0.2,0.1-0.3,0.1
					c-0.1,0-0.2-0.2-0.2-0.4c0-0.2-0.2-0.5-0.4-0.9l-0.4-0.7c-0.1-0.2-0.1-0.3-0.2-0.3c-0.1-0.1-0.1-0.3,0-0.5
					C227.7,348.2,227.8,348.1,227.8,348.1 M229,356c0,0.1,0.1,0.2,0.1,0.4v0.5c0,0.1,0.1,0.2,0.1,0.4c0.1,0.2,0.1,0.3,0.1,0.4
					c0.1,0.3-0.1,0.6-0.4,1c-0.1-0.1-0.1-0.2-0.2-0.3c-0.1-0.2-0.1-0.4-0.1-0.4l-0.2-0.5c0-0.1-0.1-0.3,0-0.4c0-0.2,0-0.4,0-0.4
					c0-0.2,0-0.4,0-0.5c0-0.2,0.1-0.3,0.3-0.3C228.8,355.8,228.9,355.9,229,356 M226.1,360.2c0.2-0.1,0.3-0.1,0.3-0.1l0.3,0.1
					c0.1,0.1,0.1,0.2,0.1,0.2l0,0.1c0,0.1,0,0.3,0.1,0.5c0.2,0.2,0.2,0.4,0.2,0.5c0,0.1,0,0.2-0.1,0.4l-0.2,0.6
					c-0.3,0-0.5,0-0.5-0.1c0-0.1-0.1-0.2-0.1-0.5c0-0.2-0.1-0.4-0.2-0.6s-0.2-0.5-0.3-0.6C225.8,360.5,225.9,360.3,226.1,360.2
					 M221.7,362c0.1,0,0.1,0.1,0.2,0.2c0,0,0.1,0.1,0.1,0.3c0,0.1,0.1,0.2,0.2,0.3c0,0.1,0.1,0.2,0.1,0.4c0,0.2,0.1,0.4,0.2,0.7
					c0.1,0.3,0.2,0.5,0.2,0.7c0.1,0.4,0,0.7-0.2,1l-0.4-0.1l-0.6-1.8c-0.1-0.3-0.1-0.5-0.2-0.6c-0.1-0.2-0.1-0.3-0.1-0.3
					c0-0.2,0-0.3,0.1-0.5C221.3,362,221.5,362,221.7,362 M217.9,362c0,0.1,0,0.2,0,0.2c0,0.1-0.1,0.3-0.1,0.5c0,0.1,0,0.3,0.1,0.4
					c0.1,0.2,0.2,0.3,0.2,0.4l0.1,0.5c0,0.2,0.1,0.4,0.2,0.7c0.1,0.5-0.1,0.9-0.4,1.2c-0.2-0.1-0.3-0.3-0.3-0.6
					c0-0.3-0.1-0.5-0.1-0.7c-0.1-0.3-0.2-0.4-0.2-0.5l-0.1-0.5c-0.1-0.2-0.1-0.4-0.2-0.5c-0.1-0.2-0.1-0.4,0-0.6
					c0-0.2,0.1-0.3,0.1-0.4c0.1-0.1,0.1-0.2,0.2-0.3l0.2-0.2c0.1-0.1,0.2-0.1,0.3,0C217.8,361.8,217.9,361.9,217.9,362 M216.7,370.9
					c-0.1-0.2-0.2-0.3-0.3-0.4c-0.1-0.2-0.2-0.3-0.3-0.4c-0.1-0.2-0.1-0.5-0.1-0.9c0-0.3,0.1-0.5,0.3-0.7c0.1-0.1,0.2-0.1,0.3-0.1
					c0.1,0,0.2,0.1,0.3,0.2c-0.2,0.2-0.3,0.5-0.2,0.9c0.1,0.2,0.2,0.5,0.5,0.8c0.2,0.3,0.5,0.7,0.8,1.2c0.2,0.4,0.3,0.7,0.3,0.9
					c-0.1,0.2-0.3,0.1-0.6-0.1c-0.2-0.2-0.4-0.4-0.6-0.7C216.9,371.2,216.7,370.9,216.7,370.9 M220,374.5c0-0.1,0-0.1,0-0.2
					c0-0.1,0.1-0.2,0.2-0.2c0.3-0.1,0.6,0.1,0.8,0.5c0.1,0.1,0.1,0.2,0.2,0.4c0.1,0.2,0.2,0.3,0.3,0.3c0.1,0.1,0.2,0.1,0.3,0.2
					c0.1,0.1,0.1,0.2,0.2,0.3c0,0,0.1,0.1,0.2,0.2c0.1,0.1,0.1,0.2,0.1,0.3c0,0.1-0.1,0.2-0.1,0.3c-0.1,0.1-0.2,0.1-0.3,0.1
					c-0.1,0-0.2,0-0.3,0s-0.2-0.1-0.3-0.2l-0.3-0.2c-0.3-0.2-0.5-0.4-0.6-0.6c-0.1-0.2-0.2-0.3-0.2-0.5L220,374.5 M224.3,372.8
					c0.1,0,0.3,0.1,0.5,0.3c0.5,0.6,1,1.2,1.5,1.6c0.1,0.1,0.2,0.2,0.3,0.4c0.1,0.2,0.1,0.3,0,0.5c-0.1,0.1-0.2,0.2-0.3,0.2
					c-0.1,0-0.2,0-0.3,0c-0.1,0-0.2-0.1-0.4-0.3l-0.8-0.8c-0.3-0.2-0.5-0.4-0.6-0.6c-0.2-0.3-0.2-0.6-0.2-0.8
					C224,372.9,224.1,372.8,224.3,372.8 M229.9,369.1l0.1,0.4c0.1,0.1,0.2,0.3,0.5,0.6c0.2,0.2,0.3,0.4,0.4,0.6
					c0.1,0.1,0.1,0.2,0.2,0.3c0.1,0,0.1,0.1,0.2,0.1c0.1,0.1,0.1,0.2,0.1,0.3c0,0.1-0.1,0.2-0.2,0.2c-0.2,0.1-0.4,0.1-0.6,0
					c-0.2,0-0.4-0.2-0.5-0.3c-0.1-0.2-0.2-0.3-0.2-0.4c-0.1-0.1-0.2-0.2-0.3-0.4c-0.2-0.2-0.3-0.3-0.4-0.3c-0.1-0.1-0.2-0.2-0.2-0.3
					c0-0.1,0-0.2,0-0.4c0.1-0.3,0.2-0.5,0.3-0.5c0.1,0,0.1-0.1,0.1-0.1C229.7,368.8,229.8,368.9,229.9,369.1 M235.9,368
					c0.1,0.1,0.1,0.3,0.1,0.4c0,0.1-0.1,0.2-0.2,0.3c-0.1,0-0.2,0.1-0.4,0c-0.2,0-0.3,0-0.3-0.1c-0.1-0.1-0.2-0.2-0.2-0.3
					c-0.2-0.1-0.3-0.2-0.3-0.2l-0.2-0.3c-0.3-0.4-0.4-0.8-0.5-1c-0.1-0.2-0.2-0.4-0.1-0.6c0-0.2,0.2-0.3,0.4-0.3
					c0.1,0,0.3,0.1,0.5,0.3c0.1,0.2,0.2,0.3,0.2,0.3l0.1,0.2c0.1,0.1,0.2,0.2,0.3,0.2c0.1,0,0.1,0.2,0.2,0.3
					C235.5,367.6,235.6,367.8,235.9,368 M237.9,363.4c0,0.1,0.1,0.3,0.2,0.4c0.1,0.2,0.2,0.3,0.3,0.4c0.1,0.1,0.3,0.3,0.5,0.5
					c0.3,0.3,0.5,0.5,0.5,0.8c0,0.1,0,0.2,0,0.4c0,0.3,0,0.5,0.1,0.7c-0.2,0.1-0.4,0-0.6-0.2c0,0-0.1-0.2-0.4-0.5
					c-0.1-0.2-0.4-0.4-0.8-0.8c-0.3-0.3-0.5-0.6-0.7-0.9c-0.1-0.3-0.2-0.6-0.1-0.9c0-0.1,0.1-0.2,0.1-0.3c0.1-0.1,0.2-0.1,0.3-0.1
					C237.6,363,237.7,363.1,237.9,363.4 M242,373.6c0.1,0.1,0.1,0.2,0.2,0.3l0.3,0.9c0.1,0.2,0.1,0.3,0.1,0.4
					c-0.1,0.1-0.1,0.1-0.1,0.2c-0.1,0.1-0.1,0.1-0.1,0.2l-0.4-0.1c0-0.1-0.1-0.2-0.2-0.4c-0.1-0.2-0.2-0.3-0.3-0.4
					c-0.4-0.6-0.6-1.2-0.5-1.9c0.1-0.2,0.1-0.3,0.2-0.3c0.1,0,0.2,0,0.2-0.1c0.2,0,0.3,0.1,0.4,0.3l0,0.3c0,0.1,0,0.2,0.1,0.3
					L242,373.6 M239.5,377.2l0.1,0.2c0.1,0.2,0.1,0.3,0.1,0.5c0,0.1,0.1,0.3,0.1,0.5l0.2,0.4l0.2,0.4c0.1,0.1,0.1,0.3,0.1,0.4
					c0,0.1,0,0.3-0.1,0.4c0,0.1-0.1,0.2-0.2,0.4c-0.2,0-0.4-0.1-0.5-0.2c0-0.1-0.1-0.2-0.2-0.4c0-0.1-0.1-0.4-0.3-0.6
					c-0.1-0.3-0.2-0.5-0.2-0.6c-0.1-0.2,0-0.6,0.1-1.1c0-0.2,0.1-0.3,0.2-0.4c0-0.1,0.1-0.1,0.2-0.1
					C239.3,377.1,239.4,377.1,239.5,377.2 M235.5,380.2c0-0.2,0-0.4,0-0.5c0.1-0.2,0.2-0.4,0.3-0.4c0.1,0,0.2,0,0.3,0.1
					c0.1,0.1,0.1,0.2,0.2,0.4c0,0.1,0,0.2,0,0.4c0,0.2,0,0.3,0,0.4c0.1,0.2,0.2,0.4,0.4,0.6c0.2,0.4,0.2,0.8-0.1,1.3
					c-0.2,0-0.3,0-0.4,0c-0.1-0.1-0.2-0.1-0.3-0.2v-0.3c0-0.1-0.1-0.3-0.3-0.5c-0.2-0.2-0.3-0.4-0.3-0.6c0-0.1,0-0.2,0-0.3
					C235.5,380.3,235.5,380.2,235.5,380.2 M228.5,381.1c0.1-0.1,0.2-0.1,0.3,0c0.1,0.1,0.1,0.2,0.2,0.4l0.1,0.5
					c0,0.2,0.1,0.4,0.1,0.4c0.1,0.1,0.2,0.2,0.3,0.4c0.2,0.3,0.1,0.6-0.1,0.9c-0.2,0-0.3,0-0.3-0.1c-0.2,0-0.3,0-0.3-0.1l0-0.2
					c0-0.1-0.1-0.2-0.2-0.3c-0.1-0.1-0.2-0.2-0.3-0.3c0-0.1-0.1-0.2-0.1-0.3c0-0.4,0.1-0.7,0.1-0.9
					C228.4,381.3,228.5,381.2,228.5,381.1 M223.4,381.7c-0.1,0.1-0.1,0.2-0.1,0.4c0,0.1,0.1,0.2,0.2,0.4l0.4,0.5
					c0.1,0.2,0.2,0.3,0.2,0.3c0,0.1,0,0.2,0,0.3c0,0.2-0.1,0.3-0.2,0.4l-0.6,0c0,0-0.1-0.1,0-0.2c0-0.1,0-0.2,0-0.2
					c0-0.1,0-0.1-0.1-0.2l-0.1-0.2c0,0-0.1-0.2-0.2-0.4l-0.2-0.5c-0.1-0.2-0.1-0.3-0.1-0.5c0-0.2,0.1-0.4,0.4-0.6
					c0.1-0.1,0.2-0.1,0.3-0.1C223.2,381.6,223.3,381.6,223.4,381.7 M218.4,381.7c0.1,0.1,0.1,0.1,0.2,0.2c0,0.1,0,0.2,0,0.4
					c0,0.1,0.1,0.2,0.2,0.4c0,0.1,0.1,0.2,0.2,0.4c0.1,0.2,0.2,0.3,0.2,0.3c0,0,0.2,0.1,0.5,0.3c0.2,0.2,0.3,0.3,0.3,0.5
					c0,0.2-0.1,0.3-0.4,0.4c-0.2,0-0.3,0-0.5-0.1c-0.3-0.1-0.6-0.3-0.8-0.5c-0.1-0.1-0.2-0.2-0.2-0.3c0-0.1-0.1-0.2-0.1-0.2
					c-0.1-0.1-0.1-0.2-0.2-0.3l-0.1-0.4l-0.2-0.3c0-0.1,0-0.2,0.1-0.3c0.2-0.2,0.3-0.3,0.5-0.3C218.2,381.7,218.3,381.7,218.4,381.7
					 M248.6,371.1c-0.1,0.1-0.1,0.2-0.1,0.3c0,0.1,0.1,0.3,0.2,0.4l0.1,0.2c0,0,0.1,0.1,0.2,0.3c0.2,0.2,0.3,0.4,0.3,0.6
					c0,0.3,0,0.5-0.2,0.7c-0.3,0-0.4-0.1-0.5-0.2c0,0-0.1-0.1-0.1-0.3c0-0.1-0.1-0.2-0.2-0.4c-0.2-0.2-0.2-0.3-0.3-0.4l-0.2-0.5
					l-0.1-0.4c0-0.2,0-0.4,0.2-0.5c0.1-0.2,0.3-0.3,0.5-0.3c0.2,0,0.3,0.1,0.3,0.2C248.7,371,248.6,371,248.6,371.1 M251.2,371.8
					c0.1,0,0.1,0,0.1-0.1c0.1,0,0.2,0,0.3,0.2c0.1,0.1,0.1,0.2,0.2,0.3v0.4c0,0.2,0,0.3,0.1,0.4c0,0.1,0.1,0.3,0.2,0.5
					c0,0.1,0,0.2,0,0.4c-0.1,0.4-0.2,0.7-0.4,0.9c-0.2-0.1-0.3-0.3-0.3-0.5c-0.1-0.4-0.1-0.6-0.1-0.6l-0.2-0.3c0-0.1,0-0.2,0-0.4
					c0-0.3,0-0.5,0-0.6C251,371.9,251.1,371.8,251.2,371.8 M250.4,379.9c0,0-0.1,0.1-0.1,0.1c0,0,0.1,0.1,0.2,0.3
					c0.1,0.1,0.1,0.4,0.1,0.7c0,0.2,0.1,0.4,0.3,0.7c0.1,0.3,0.1,0.5-0.1,0.7c-0.3,0-0.5,0-0.6-0.2c-0.1-0.1-0.2-0.2-0.3-0.3
					c-0.2-0.3-0.3-0.5-0.3-0.6c0-0.2,0-0.3,0-0.4c0-0.1-0.1-0.2-0.1-0.3c-0.1-0.1-0.1-0.2-0.1-0.3c0-0.2,0-0.3,0.2-0.5
					c0.1-0.2,0.3-0.2,0.4-0.3c0.1,0,0.1,0,0.1-0.1c0.1,0,0.2,0,0.2,0.1c0.1,0.1,0.1,0.1,0.1,0.2
					C250.5,379.8,250.4,379.8,250.4,379.9 M253.2,379.2C253.2,379.2,253.2,379.2,253.2,379.2c0.1,0,0.3,0.1,0.5,0.3l0.2,0.3
					c0,0.1,0.1,0.3,0.1,0.5c0,0.5,0,0.8,0.1,0.9c0.1,0.2,0.2,0.3,0.2,0.3c0,0.1,0,0.1,0,0.2c0,0.1,0,0.2,0.1,0.2
					c-0.1,0.1-0.3,0.1-0.5,0c-0.2-0.1-0.3-0.2-0.4-0.2c-0.2-0.2-0.3-0.3-0.3-0.6c0.1-0.3,0-0.5,0-0.7l-0.2-0.3
					c-0.1-0.1-0.1-0.4,0-0.7l0.1-0.2C253,379.2,253,379.2,253.2,379.2L253.2,379.2 M255.7,382.3c0.1,0.1,0.1,0.3,0.1,0.6l0.1,0.5
					c0.1,0.3,0.1,0.6,0.1,1.1c0,0.3,0,0.5-0.1,0.6l-0.2,0.4c0,0.1-0.1,0.1-0.1,0.2c-0.1,0.1-0.1,0.1-0.2,0c-0.2,0-0.2,0-0.3,0
					c-0.1-0.1-0.2-0.2-0.1-0.4c0.1-0.2,0.1-0.3,0.1-0.4c0-0.1,0-0.3,0-0.6c0-0.3,0-0.4,0-0.5c-0.1-0.2-0.1-0.3-0.2-0.4
					c-0.1-0.1-0.1-0.4-0.1-0.8c0-0.2,0-0.3,0.1-0.4c0.1-0.2,0.2-0.2,0.3-0.2c0,0,0.1,0,0.1,0c0,0,0,0,0-0.1
					C255.5,381.9,255.6,382,255.7,382.3 M253.4,387.8l0.1,0.4c0,0.1,0.1,0.2,0.2,0.4c0,0.1,0.1,0.3,0.1,0.5c0.1,0.3,0.1,0.5,0.1,0.6
					c0,0.1-0.1,0.2-0.2,0.2s-0.2,0.1-0.3,0.1c-0.2,0-0.3-0.2-0.5-0.4l-0.2-0.3l-0.3-0.9c0-0.3,0-0.6,0-0.8c0.1-0.2,0.1-0.4,0.2-0.4
					c0.1-0.1,0.2-0.1,0.3-0.1c0.2,0,0.4,0.1,0.5,0.2C253.4,387.3,253.4,387.5,253.4,387.8 M255,390.3c-0.1-0.2-0.1-0.3-0.1-0.3
					c0-0.2,0.1-0.2,0.2-0.2l0.1,0c0.1,0,0.1-0.1,0.1-0.1c0.3,0.1,0.5,0.4,0.7,0.7c0.2,0.3,0.2,0.6,0.3,1l0.1,0.5
					c0,0.1,0.1,0.3,0.1,0.5c0,0.1,0,0.3-0.1,0.5c-0.1,0.3-0.1,0.4-0.2,0.5l-0.4-0.1c0-0.3-0.1-0.5-0.2-0.8l-0.2-0.5
					c0-0.3,0-0.5,0-0.6c0-0.2-0.1-0.4-0.2-0.6C255.1,390.8,255.1,390.6,255,390.3 M186.5,350.3c0.1,0.2,0.1,0.3,0.1,0.4
					c0,0.1-0.1,0.2-0.2,0.3c-0.1,0.2,0,0.3,0.1,0.5c0.1,0.3,0.2,0.5,0.1,0.5c0,0.1-0.1,0.2-0.1,0.4l-0.5-0.1c0-0.1-0.1-0.2-0.1-0.3
					c-0.1-0.2-0.2-0.3-0.2-0.3c-0.1-0.1-0.1-0.4,0-0.8l0.1-0.4l0.1-0.2c0.1-0.2,0.2-0.4,0.3-0.5c0.1,0,0.2,0,0.3,0.1
					C186.5,350.1,186.5,350.2,186.5,350.3 M183,351c0.1,0.1,0.1,0.2,0.1,0.2l-0.1,0.2c-0.1,0.1-0.1,0.2,0,0.4c0,0.1,0,0.3,0,0.6
					c0,0.1,0,0.2,0,0.3c0,0,0,0.1-0.1,0.2c0,0.1-0.1,0.1-0.1,0.2l-0.4-0.1c-0.1-0.3-0.2-0.8-0.1-1.4l0-0.2c0-0.1,0.1-0.1,0.2-0.2
					C182.7,351,182.9,351,183,351 M180.2,352.3c0-0.2,0-0.3,0-0.3c0-0.2,0.2-0.3,0.3-0.3c0.2,0,0.3,0,0.4,0.2c0,0.2,0,0.4-0.1,0.7
					c0,0.1-0.1,0.3-0.2,0.5c0,0,0,0.1,0,0.3c0,0.1,0,0.2,0,0.3c0,0.1-0.1,0.2-0.2,0.3c-0.1,0.1-0.1,0.3-0.1,0.5c0,0.2,0,0.4,0,0.5
					c0,0.1-0.1,0.3-0.3,0.3c-0.2,0.1-0.3,0.1-0.5,0.1l0-1.4c0-0.2,0-0.3,0.1-0.4c0.1-0.1,0.1-0.2,0.2-0.3c0-0.3,0-0.4,0-0.6
					L180.2,352.3 M180.1,359c0.1,0.1,0.1,0.2,0.1,0.5v0.8c0,0.1,0,0.2,0,0.3l0.1,0.2c0.1,0.1,0.1,0.3,0,0.4c0,0.1-0.1,0.2-0.2,0.3
					c-0.1,0-0.3,0-0.4-0.1c-0.2-0.1-0.3-0.3-0.4-0.5c0-0.1,0-0.3,0-0.7v-0.9c0-0.1,0-0.2,0-0.3c0.1-0.1,0.1-0.2,0.2-0.2
					C179.9,358.7,180,358.8,180.1,359 M183.3,359.9c0.1-0.1,0.1-0.2,0.2-0.2c0.2-0.1,0.3,0,0.4,0.2c0.1,0.1,0.1,0.3,0.1,0.5
					c0,0.3,0,0.4,0,0.5c0,0,0.1,0.1,0.2,0.3c0.1,0.1,0.1,0.2,0.1,0.3c0,0-0.1,0.1-0.1,0.2c-0.1,0.1-0.1,0.2-0.1,0.2
					c-0.2,0-0.3,0-0.4-0.1c0,0-0.1-0.1-0.1-0.2c-0.1-0.2-0.2-0.3-0.3-0.4l0-1L183.3,359.9 M187.2,362.4c0-0.1-0.1-0.3-0.3-0.6
					c-0.2-0.2-0.2-0.4-0.3-0.6c0-0.2,0-0.4,0-0.6c0.1-0.2,0.2-0.3,0.3-0.3c0.1,0,0.2,0,0.2,0.1l0.1,0.2c0.1,0.3,0.2,0.6,0.4,0.8
					c0.2,0.3,0.3,0.5,0.2,0.7c0,0.1,0,0.2-0.1,0.3c0,0.1,0,0.1,0.1,0.2c0,0.1,0,0.1,0,0.2c-0.1,0-0.2,0-0.3,0
					c-0.1,0-0.2-0.1-0.3-0.1C187.3,362.7,187.3,362.6,187.2,362.4 M185.8,367.7c0.1,0,0.2,0.1,0.2,0.2c0,0.1,0,0.2-0.1,0.4
					c0,0,0,0.1,0.1,0.2c0.1,0.1,0.1,0.3,0.3,0.4c0.2,0.2,0.2,0.3,0.2,0.4l0,0.2c0,0,0.1,0.1,0.2,0.3c0.1,0.1,0.1,0.2,0,0.3
					c0,0.1-0.1,0.2-0.2,0.2c-0.2,0.1-0.4,0-0.5-0.2c0,0-0.1-0.2-0.3-0.5l-0.3-0.7l-0.1-0.4c-0.1-0.3,0-0.5,0.1-0.6
					C185.3,367.7,185.5,367.6,185.8,367.7 M193.3,365.8c0.2,0.1,0.3,0.2,0.3,0.4l0.1,0.3c0,0.1,0.1,0.1,0.2,0.2
					c0.1,0.1,0.2,0.2,0.2,0.2c0,0.1,0.1,0.2,0.1,0.3c0,0,0.1,0.1,0.1,0.2c0,0.1,0.1,0.2,0.1,0.4c0,0.2,0,0.3,0.1,0.3
					c-0.3,0.2-0.5,0.2-0.8,0c0-0.1,0-0.2-0.1-0.3c-0.1-0.1-0.2-0.2-0.2-0.3l-0.1-0.2c-0.1-0.1-0.2-0.3-0.3-0.4
					c-0.2-0.2-0.3-0.3-0.3-0.4c0-0.1-0.1-0.2-0.1-0.4c0-0.3,0.1-0.4,0.3-0.5C193,365.6,193.1,365.7,193.3,365.8 M189.3,371
					c0-0.1,0.1-0.1,0.1-0.1c0.1-0.1,0.2-0.1,0.3-0.1s0.2,0.1,0.3,0.2c0,0.1,0,0.2,0,0.4l0.1,0.3c0.1,0.1,0.1,0.3,0.2,0.6
					c0.1,0.3,0.2,0.5,0.3,0.6c0.1,0.1,0.2,0.2,0.3,0.4c0.1,0.2,0.1,0.3,0,0.5c-0.1,0.1-0.3,0.2-0.5,0.1c-0.1,0-0.1,0-0.2-0.1
					l-0.2-0.2c-0.3-0.5-0.5-1-0.7-1.5c-0.1-0.3-0.2-0.6-0.2-0.8c-0.1,0-0.2,0-0.3,0c0-0.1-0.1-0.2,0-0.3c0-0.1,0.1-0.2,0.2-0.2
					L189.3,371C189.2,370.9,189.2,370.9,189.3,371 M193.2,375.2c-0.2-0.2-0.3-0.5-0.3-0.7c0.2-0.2,0.4-0.2,0.6-0.2
					c0.2,0.1,0.4,0.2,0.5,0.4l0.1,0.2c0.1,0.1,0.2,0.2,0.3,0.3c0.1,0.1,0.1,0.2,0.2,0.5c0,0,0.1,0.1,0.2,0.2
					c0.1,0.1,0.1,0.1,0.2,0.2c0.1,0.1,0.1,0.3,0.2,0.6c0,0.3,0.1,0.4,0.2,0.5c-0.2,0-0.4-0.1-0.7-0.3c-0.3-0.3-0.5-0.5-0.7-0.6
					c-0.2-0.2-0.3-0.4-0.3-0.5C193.5,375.5,193.3,375.3,193.2,375.2 M194.2,381.1l-0.7-0.4c-0.1-0.1-0.2-0.2-0.2-0.3
					c-0.1-0.2-0.1-0.3,0-0.4c0.1-0.1,0.2-0.1,0.3-0.1c0.1,0,0.2,0.1,0.3,0.1c0.1,0,0.3,0.1,0.4,0.2l0.4,0.2c0.1,0.1,0.3,0.2,0.6,0.3
					c0.2,0.1,0.4,0.4,0.7,0.8c-0.2,0-0.5,0-0.7,0l-0.5-0.2C194.4,381.3,194.2,381.2,194.2,381.1 M199.3,378c0.1,0.1,0.2,0.3,0.4,0.5
					l0.9,0.8c0.1,0.1,0.2,0.2,0.3,0.4c0.1,0.2,0.1,0.3-0.1,0.4c-0.1,0-0.2,0.1-0.3,0.1c-0.2,0-0.4-0.2-0.7-0.4l-1-1
					c-0.2-0.2-0.3-0.4-0.4-0.5c-0.1-0.2-0.1-0.4,0-0.7c0.1-0.2,0.1-0.3,0.2-0.3c0.1-0.1,0.2,0,0.3,0c0.1,0.1,0.2,0.1,0.2,0.2
					C199.2,377.6,199.3,377.8,199.3,378 M202.2,378.6c0.1-0.1,0.2-0.2,0.3-0.2c0.1,0,0.2,0.2,0.3,0.4l0.1,0.3l0.3,0.6
					c0.2,0.4,0.3,0.6,0.4,0.9c0.1,0.2,0.1,0.3,0.1,0.4c0,0.2-0.1,0.2-0.2,0.3c-0.1,0-0.2-0.1-0.3-0.3c-0.1-0.2-0.2-0.4-0.4-0.5
					c-0.2-0.2-0.3-0.3-0.4-0.4c-0.2-0.2-0.3-0.4-0.3-0.5c0-0.1,0-0.3,0-0.5C202.1,378.9,202.2,378.7,202.2,378.6 M203.5,385.1
					l0.2,0.2c0.1,0.1,0.3,0.3,0.5,0.5c0.2,0.2,0.3,0.4,0.3,0.6c-0.1,0.1-0.3,0.1-0.5,0.1l-0.8-0.4c-0.1-0.1-0.2-0.2-0.2-0.4
					c-0.2-0.1-0.4-0.2-0.5-0.3c-0.2-0.2-0.2-0.4-0.1-0.6c0-0.1,0.1-0.2,0.2-0.2c0.1,0,0.2-0.1,0.3,0l0.2,0.2
					C203.2,385,203.3,385.1,203.5,385.1 M207.2,383.3c0,0,0.2,0.1,0.4,0.2c0.2,0.1,0.3,0.2,0.3,0.3c0.1,0.1,0.1,0.2,0.2,0.3
					c0.1,0.1,0.1,0.1,0.3,0.2c0.1,0.1,0.2,0.3,0.2,0.5c0,0.1-0.1,0.3-0.2,0.5c-0.3,0-0.5,0-0.7-0.2c-0.2-0.2-0.3-0.3-0.4-0.4
					l-0.5-0.4c-0.2-0.2-0.3-0.3-0.4-0.5c-0.1-0.2,0-0.4,0.1-0.6c0.1-0.1,0.1-0.1,0.2-0.1C206.9,383.1,207,383.1,207.2,383.3
					 M210.9,382.9c0.2,0.1,0.4,0.2,0.5,0.3c0.1,0.1,0.2,0.3,0.3,0.5c0.1,0.1,0.1,0.2,0.3,0.3c0.1,0.2,0.2,0.3,0.1,0.4
					c0,0,0,0.1-0.1,0.1c0,0.1,0,0.1,0,0.1c-0.4,0-0.7-0.1-1-0.4c-0.2-0.2-0.3-0.4-0.4-0.5c-0.1-0.1-0.3-0.2-0.6-0.3
					c-0.3-0.1-0.4-0.2-0.5-0.4c-0.1-0.1-0.1-0.2-0.1-0.3c0-0.1,0.1-0.2,0.2-0.2c0.1,0,0.1-0.1,0.1-0.1
					C210.1,382.6,210.5,382.7,210.9,382.9 M326.1,277.8c0,0.1-0.1,0.1-0.1,0.2c-0.6,1.4-1.6,2.9-3,4.6c-2.2,2.6-4.8,4.9-7.6,6.9
					c-0.9,0.6-1.5,1.1-1.7,1.3c-0.7,0.6-1.2,1.1-1.5,1.3c-0.6,0.5-1.2,0.7-1.7,0.7c-0.3,0-0.5,0-0.7,0c-0.3,0-0.4,0.1-0.5,0.3
					c-0.1,0.3-0.1,0.5,0.2,0.7c0.1,0.1,0.4,0.2,0.8,0.3l-2.2,0.8c0.7,1.2,1.2,2.5,1.2,3.9c0,0,0,0.1,0,0.1c-0.2,0.6-0.3,1.5-0.2,2.7
					c0.2,7.6,0.2,16.2,0.1,25.8c-0.1,5.7-0.3,14.3-0.7,25.8c-0.1,2-0.2,3.5-0.3,4.5c-0.2,1.7-0.5,3.1-1,4.4
					c-0.8,2.2-2.2,4.3-4.1,6.4c-1.5,1.6-3.5,3.2-6,4.9c-1.5,1-2.8,1.8-3.9,2.4c-1.4,0.8-2.8,1.4-4.1,1.7c-1.5,0.4-3,0.6-4.5,0.5
					c-1.6-0.1-3-0.5-4.3-1.2c-1.1-0.6-2.1-1.4-3.1-2.6c-0.7-0.7-1.5-1.8-2.5-3.2c-2.4-3.5-4.2-6.4-5.2-8.8c-0.6-1.3-1.2-2.8-1.7-4.6
					c-0.3-0.9-0.8-2.5-1.4-4.7l-5.7-20c0.1-0.1,0.1-0.2,0-0.4c-0.1-0.1-0.1-0.3-0.2-0.3l-0.2-0.8c-0.3,0-0.5,0.2-0.6,0.5
					c0,0,0,0.1,0,0.1c-0.2,0-0.3,0.1-0.4,0.1c-0.5,0.1-1,0-1.5-0.3c-0.2-0.1-0.3-0.2-0.5-0.4c-0.2-0.2-0.4-0.4-0.5-0.5
					c-0.5-0.4-0.8-0.6-1-0.9c-0.3-0.3-0.7-0.7-1.1-1.4c-0.2-0.4-0.4-0.7-0.5-1c0.2,0,0.3,0,0.5,0c0.8,0,1.5-0.2,2.1-0.7
					c0.6-0.4,1-1,1.4-1.9c0.2-0.6,0.5-1.3,0.7-2.3c0.4,1.7,1.4,3.6,2.9,5.5c0.9,1.1,2.3,2.7,4.3,4.8c0.6,0.7,1,1.2,1.2,1.4
					c0.5,0.5,1,0.8,1.4,1c0.6,0.3,1.2,0.3,1.8,0.1c0.6-0.2,1-0.6,1.2-1.1c1.2,1,2.1,2.2,2.6,3.7c0.2,0.4,0.3,0.6,0.3,0.6
					c0.1,0.2,0.2,0.4,0.4,0.6c0.4,0.4,1,0.5,1.7,0.4c0.6-0.1,1.1-0.4,1.8-0.8c2.3-1.7,4.3-3.7,6.1-6.1c1.7-2.4,3-4.9,3.9-7.6
					c0.8-2.4,1.3-5.2,1.6-8.4c0.6-6.4,0.2-12.7-1.2-18.9c-0.4-1.8-0.8-3.1-1.3-4.2c-0.4-0.8-1.2-2-2.3-3.4c-0.8-1-1.4-1.8-1.8-2.5
					c2.1-0.1,4.3,0,6.6,0.3c3.5,0.4,7.3,1.3,11.5,2.5c0.7,0.2,1.2,0.3,1.5,0.4c0.6,0.1,1,0.1,1.5,0c0.5-0.1,1-0.3,1.5-0.7
					c0.3-0.2,0.7-0.5,1.3-1.1C312.4,284.2,318.9,280.3,326.1,277.8 M228,291.4c-1.3,0.3-2.2,0.5-2.8,0.6c-0.8,0.1-1.7,0.2-2.6,0.2
					c-0.1-0.1-0.1-0.1-0.1-0.2c0-0.1,0-0.2,0.1-0.2c0.1-0.1,0.3-0.2,0.5-0.2c2.1-0.7,3.8-1.2,5.2-1.5c3.1-0.8,6.5-1.2,10.2-1.5
					c2.9-0.2,6.3-0.2,10.3-0.1c0.8,0,1.3,0.1,1.6,0.1c0.6,0.1,1.1,0.2,1.5,0.4c0.3,0.1,0.4,0.2,0.4,0.4c0.1,0.2,0,0.4-0.3,0.6
					c-0.5,0.3-1,0.4-1.5,0.4c0.1,0.2,0.1,0.4-0.1,0.6c-0.1,0.2-0.3,0.3-0.5,0.4c-0.3,0.1-0.5,0.1-0.7,0.2c-0.3,0.1-0.5,0.2-0.6,0.3
					c-0.1,0.1-0.2,0.2-0.3,0.4c-0.1,0.2-0.2,0.3-0.2,0.4c-0.2,0.4-0.5,0.5-0.7,0.5c-0.1,0-0.2-0.1-0.3-0.2c-0.1-0.1-0.2-0.2-0.2-0.4
					c-0.1-0.2,0-0.5,0.2-0.8c-0.1-0.1-0.3-0.2-0.5-0.2l-2.2-0.2c-3.5-0.3-6.3-0.4-8.1-0.4C233,290.7,230.4,290.9,228,291.4
					 M252.3,394.1c0.1-0.1,0.2-0.1,0.3-0.1l0.3,1.5c0.1,0.4,0.1,0.6,0,0.8c0,0.2-0.1,0.4-0.3,0.5
					C252.5,396.1,252.4,395.2,252.3,394.1 M255.1,394.5c0.1,0,0.2,0,0.3,0.1c0.1,0.1,0.1,0.2,0.2,0.3c0,0.1,0,0.2,0,0.5
					c0,0.2,0,0.4,0.1,0.5c0,0.1,0.1,0.2,0.2,0.4c0,0.1,0,0.2,0,0.3c0,0.1,0,0.2,0,0.3c0,0.1,0.1,0.2,0.1,0.3c0.1,0.1,0,0.2,0,0.3
					c-0.1,0.1-0.3,0-0.4,0c-0.2-0.1-0.2-0.2-0.3-0.3c0-0.3,0-0.5,0-0.6l-0.2-0.3c-0.1-0.1-0.1-0.2-0.1-0.4
					C255,395.2,255,394.8,255.1,394.5 M253.8,398.7c0.1,0.2,0.2,0.3,0.2,0.5l0,0.2c0,0.1,0.1,0.1,0.2,0.2c0.1,0.1,0.1,0.3,0.1,0.5
					c0,0.2,0,0.4,0,0.5c-0.1,0.2-0.2,0.3-0.3,0.3c-0.1,0-0.2-0.1-0.2-0.3c0-0.2,0-0.4,0-0.5c-0.1-0.2-0.2-0.3-0.2-0.4
					c0-0.3,0-0.5,0-0.6c0-0.2,0-0.3,0-0.3c0-0.1,0.1-0.1,0.2-0.2C253.7,398.6,253.7,398.6,253.8,398.7 M253.2,400.5
					c0,0.1,0,0.2,0,0.4c0,0.3,0,0.4,0.1,0.5c0,0,0.1,0.1,0.1,0.2c0,0.1,0,0.2-0.1,0.3l-0.1,0.1c0,0-0.1,0-0.1-0.1
					c-0.2-0.1-0.3-0.3-0.4-0.4c0-0.1,0-0.2,0-0.3v-0.6c0-0.1,0-0.2,0-0.2c0.1-0.2,0.2-0.2,0.3-0.1
					C253.1,400.3,253.2,400.3,253.2,400.5 M282,381.1c0-0.2,0-0.3,0-0.4c0.2,0,0.3-0.1,0.3,0c0,0,0.1,0.1,0.1,0.1
					c0,0.1,0.1,0.1,0.2,0.2c0.1,0.1,0.1,0.2,0.1,0.2l0,0.2l0.1,0.1l0.2,0.4c0.1,0.2,0.1,0.3,0.1,0.4c-0.1,0.2-0.2,0.3-0.3,0.3
					c-0.2-0.1-0.3-0.3-0.4-0.4l-0.4-0.7L282,381.1 M285,380.9h0.2c0.1,0.3,0.2,0.5,0.2,0.8l0.1,0.2c0,0.1,0.1,0.2,0.2,0.4
					c0,0,0,0.1,0,0.3c0,0.1,0,0.2-0.1,0.2c-0.1,0.1-0.2,0.1-0.3,0.1c-0.1,0-0.2-0.1-0.2-0.1c0-0.1-0.1-0.2-0.1-0.2l-0.2-0.3
					c-0.1-0.2-0.1-0.4-0.1-0.7C284.8,381.3,284.9,381.1,285,380.9 M286.2,383.4c0-0.2,0.1-0.3,0.1-0.3c0.1-0.1,0.2-0.1,0.3-0.1
					c0.1,0.3,0.2,0.6,0.2,0.7l0,0.4l0,0.2l0,0.2c0,0.2-0.1,0.3-0.1,0.3c-0.1,0.1-0.2,0.2-0.4,0.2c-0.1-0.2-0.2-0.4-0.2-0.6
					L286.2,383.4 M284.1,387.4c0,0.2,0,0.3-0.1,0.4c-0.4-0.1-0.6-0.2-0.7-0.3l-0.2-0.3c-0.1-0.3-0.2-0.5-0.2-0.6c0-0.1,0-0.2,0-0.4
					c0-0.1,0-0.1,0.1-0.1c0.1-0.1,0.1-0.1,0.2-0.1V386c0.1,0,0.2,0.1,0.3,0.1c0.1,0,0.1,0.1,0.1,0.2l0.3,0.7L284.1,387.4
					 M285.8,386.5c0.1,0,0.1,0.1,0.2,0.2l0.1,0.3c0,0.1,0.1,0.1,0.2,0.2c0,0,0.1,0.2,0.1,0.3v0.5c0,0.2,0,0.3-0.1,0.4
					c-0.1,0.1-0.1,0.2-0.1,0.2c0,0-0.2,0-0.3-0.1c-0.1,0-0.2,0-0.3-0.1c0-0.1-0.1-0.1-0.1-0.2c0-0.1,0-0.2,0-0.3
					c0-0.1,0-0.2-0.1-0.4l-0.1-0.2l0-0.3l0-0.3c0-0.1,0.1-0.2,0.2-0.2C285.6,386.5,285.7,386.5,285.8,386.5 M284.1,389.8
					c-0.1-0.1-0.1-0.3-0.1-0.6c0-0.1,0-0.1,0-0.2c0-0.1,0.1-0.1,0.3-0.1v-0.1c0.3,0.1,0.4,0.1,0.5,0.2c0.1,0.1,0.1,0.3,0.1,0.4
					c0,0.1-0.1,0.3-0.1,0.4L284.1,389.8 M213.5,360.4c0.1,0.1,0.1,0.2,0.1,0.3c0,0.1,0,0.2,0,0.2c0,0,0.1,0.1,0.2,0.1
					c0,0.1,0.1,0.2,0.1,0.3c0,0.1,0.1,0.2,0.3,0.3c0,0-0.1,0.2-0.1,0.3c0,0.2-0.1,0.2-0.2,0.3c-0.1,0-0.1,0-0.3-0.1
					c-0.1-0.1-0.2-0.1-0.2-0.2l-0.1-0.3c-0.1-0.2-0.1-0.3-0.2-0.3c0-0.1-0.1-0.2-0.1-0.4c0-0.3,0-0.5,0.1-0.6
					C213.2,360.2,213.4,360.3,213.5,360.4 M212.3,364c0,0.1,0.1,0.1,0.1,0.2c0.1,0.1,0.1,0.2,0.1,0.2c0,0.1,0,0.2,0,0.4
					c0,0.1,0,0.2,0,0.4c0,0.2,0,0.3,0,0.4c-0.1,0-0.2-0.1-0.3-0.2c-0.4-0.7-0.5-1.2-0.5-1.5c0-0.1,0-0.3,0.1-0.4
					c0.1-0.3,0.3-0.4,0.6-0.3c0.1,0.1,0.1,0.3,0,0.5C212.3,363.8,212.2,363.9,212.3,364 M213.6,371.6c0-0.1,0.1-0.1,0.2-0.1
					s0.1,0,0.2,0c0.1,0.1,0.2,0.2,0.2,0.4v0.4c0,0.1,0.1,0.2,0.2,0.3c0.1,0.1,0.1,0.3,0,0.5c-0.1,0.3-0.2,0.4-0.3,0.5
					c-0.1,0-0.1-0.1-0.2-0.2l-0.1-0.3c-0.1-0.2-0.2-0.4-0.2-0.5c0-0.3,0-0.5,0-0.6C213.5,371.8,213.5,371.7,213.6,371.6
					 M215.4,377.1c0,0.1,0,0.1,0,0.2c0,0,0.1,0.1,0.2,0.2c0.1,0.1,0.1,0.2,0,0.4c0,0.1-0.1,0.2-0.1,0.4c-0.2,0-0.4,0-0.5-0.1
					c-0.1,0-0.1-0.1-0.2-0.1c-0.1-0.1-0.1-0.2-0.1-0.4c0-0.5,0-0.9,0.2-1.1c0.2,0,0.2,0,0.2,0l0.1,0.1
					C215.4,376.8,215.4,377,215.4,377.1 M215,387.5c0.1,0,0.2,0,0.2,0l0.1,0.1c0,0,0.1,0.1,0.2,0.2c0.1,0.1,0.2,0.1,0.2,0.2l0.3,0.5
					c0.1,0.2,0.1,0.3,0.1,0.3l-0.2,0.1v0.1l-0.4-0.1c-0.2,0-0.3-0.1-0.4-0.2l-0.1-0.3c-0.1-0.1-0.1-0.2-0.1-0.2
					c-0.1-0.1-0.1-0.2-0.1-0.3C214.7,387.8,214.8,387.7,215,387.5 M220.8,389.5c0,0.1-0.1,0.2-0.1,0.3l-0.1,0.1h-0.9l-0.1-0.1
					c-0.1-0.1-0.1-0.2-0.2-0.2c0,0-0.1-0.1-0.1-0.2c0-0.1,0-0.2,0.1-0.3c0.1-0.1,0.2-0.2,0.3-0.2c0.1,0,0.2,0,0.2,0.1
					c0,0,0.1,0.1,0.2,0.2c0.1,0,0.2,0.1,0.4,0.2C220.6,389.3,220.7,389.4,220.8,389.5 M227,388.7c0.1,0,0.2,0,0.3,0.1
					c0.2,0.1,0.2,0.1,0.2,0.3c0,0.1,0,0.1-0.1,0.2c0,0.1,0,0.1,0,0.2c-0.2,0.1-0.4,0.1-0.9,0l-0.3-0.1c-0.2-0.1-0.3-0.3-0.2-0.6
					c0-0.2,0.1-0.3,0.1-0.3c0.1-0.1,0.2-0.2,0.3-0.1c0.1,0,0.2,0.1,0.4,0.3C226.9,388.6,226.9,388.6,227,388.7 M230.5,387.6
					c0.3,0.1,0.6,0.3,0.7,0.6c0,0,0,0.1,0,0.2c0,0.1-0.1,0.2-0.2,0.3l-0.6-0.1c-0.1,0-0.1,0-0.2,0c-0.1,0-0.1-0.1-0.2-0.2
					c-0.1-0.2-0.1-0.3-0.1-0.5c0,0,0-0.1,0.1-0.2C230.1,387.5,230.3,387.5,230.5,387.6 M234.8,374.4c0.1,0,0.1,0.1,0.1,0.2
					c0,0.1,0,0.1-0.1,0.2c0.1,0.1,0.2,0.2,0.3,0.3c0.2,0.1,0.3,0.1,0.4,0.2c0.1,0.1,0,0.2-0.1,0.4l-0.9,0l-0.1,0l-0.1-0.2
					c-0.1-0.1-0.2-0.1-0.2-0.2c0,0,0-0.1,0-0.2c0-0.2,0.1-0.4,0.2-0.6l0.2-0.1l0,0C234.6,374.3,234.7,374.3,234.8,374.4
					 M234.1,359.6L234.1,359.6c0.4-0.1,0.6-0.1,0.8,0.1l0.2,0.2l0.2,0.1c0.1,0,0.2,0.1,0.2,0.2c-0.1,0.1-0.2,0.2-0.2,0.3
					c-0.1,0.1-0.3,0.1-0.5,0l-0.2-0.1c0,0-0.1,0-0.1-0.1c-0.1,0-0.2-0.1-0.3-0.1c-0.2,0-0.3,0-0.3-0.1c-0.1-0.2-0.1-0.4,0-0.6
					L234.1,359.6 M235.8,356.9c0.1,0.1,0.2,0.2,0.2,0.3c0.1,0,0.2,0.1,0.3,0.1c0,0,0,0.1,0,0.2c0.1,0.2,0,0.4-0.1,0.5
					c-0.1,0-0.1,0.1-0.1,0.1h-0.3V358c-0.3-0.1-0.5-0.2-0.6-0.3c-0.1-0.2-0.2-0.4-0.1-0.6c0-0.1,0.1-0.2,0.1-0.2
					c0.1-0.1,0.1-0.1,0.2-0.1v-0.1L235.8,356.9 M275.8,302.5c0,0.1,0.1,0.2,0.2,0.4c0,0.1,0,0.2,0,0.3c0,0.1,0,0.2,0,0.3l0.1,0.2
					c0,0.1,0,0.2-0.1,0.2c-0.2,0-0.3,0-0.4,0c-0.2,0-0.3-0.1-0.3-0.2c0,0-0.1-0.1-0.1-0.3c0-0.1-0.1-0.3-0.2-0.4l-0.3-0.3
					c-0.1-0.2-0.1-0.3-0.1-0.4c0-0.1,0-0.2,0.1-0.3c0.1-0.1,0.2-0.1,0.2-0.1v-0.1c0.3,0.1,0.5,0.2,0.6,0.4L275.8,302.5 M275.8,308
					c0,0,0,0.2,0,0.5c0,0.2,0,0.3,0,0.4c0,0.2-0.2,0.4-0.5,0.7h-0.4c-0.1-0.2-0.1-0.4-0.1-0.6l0.2-0.4c0.1-0.2,0.1-0.5,0-0.7
					c-0.2-0.3-0.2-0.6-0.3-0.7c-0.1-0.3,0-0.6,0.3-0.8c0.1-0.1,0.2-0.1,0.3-0.1c0.1,0,0.1-0.1,0.1-0.1c0.1,0,0.2,0.1,0.3,0.2
					c0.1,0.1,0.1,0.2,0,0.4c-0.1,0.2-0.2,0.3-0.2,0.4l0.1,0.2C275.7,307.4,275.8,307.6,275.8,308 M277,308.8L277,308.8l-0.1,0.2
					c0,0.2,0.1,0.4,0.1,0.7c0,0.2-0.1,0.4-0.2,0.6h-0.5c-0.1-0.1-0.1-0.3-0.1-0.6l0-0.6l0-0.2l0.1-0.2c0.2-0.2,0.4-0.2,0.5-0.2
					C277.1,308.6,277.1,308.7,277,308.8 M273.1,295.3c0.1,0,0.1,0.1,0.2,0.1c0,0.1,0.1,0.2,0.1,0.3c0,0,0.1,0.1,0.2,0.2
					c0,0.1,0,0.1,0,0.2c0,0.2,0.1,0.3,0.2,0.4c-0.1,0.2-0.1,0.3-0.2,0.4c0,0-0.2,0-0.3,0l-0.2,0l-0.1-0.1c0,0-0.1-0.1-0.1-0.2
					c0-0.1-0.1-0.2-0.1-0.3c-0.1-0.1-0.1-0.2-0.1-0.3l0-0.2c-0.1-0.1-0.2-0.2-0.2-0.3c0-0.2,0.1-0.3,0.2-0.3
					C272.8,295.2,273,295.2,273.1,295.3 M297.9,302.5c0,0,0-0.1,0.1-0.2c0.1-0.1,0.1-0.2,0-0.2l-0.1-0.1v-0.1c0,0,0-0.1-0.1-0.3
					c-0.1,0-0.2,0-0.3,0.1c0,0.1,0,0.2-0.1,0.4l0,0.2l0,0.2c0,0.1,0,0.1,0.1,0.2L297.9,302.5 M296,301.5l-0.2-0.4
					c-0.1-0.2-0.2-0.3-0.2-0.4c-0.1,0-0.2,0-0.2,0.1c-0.1,0.1-0.1,0.2-0.1,0.2c-0.1,0.3-0.1,0.5,0,0.7c0.1,0.2,0.2,0.3,0.2,0.4
					c0,0.1,0,0.2,0,0.3c0,0.1,0.1,0.2,0.3,0.2c0.2,0.1,0.3,0.1,0.5,0.1l0.2-0.4c0.1-0.1,0.1-0.2,0-0.4c0-0.1-0.1-0.1-0.1-0.2
					C296.1,301.7,296,301.6,296,301.5 M292.9,300.7c-0.1,0-0.1,0-0.2,0.1c0,0-0.1,0.1-0.1,0.2c-0.1,0.4-0.1,0.7,0,0.9
					c0,0.1,0.1,0.2,0.2,0.4l0.1,0.2c0,0,0.1,0.1,0.2,0.1l0.7,0.2c0.1-0.1,0.2-0.2,0.1-0.4c0-0.1-0.1-0.2-0.3-0.4l-0.3-0.3
					c-0.1-0.1-0.1-0.2-0.1-0.2c0-0.1,0-0.2,0-0.3c0,0,0-0.1-0.1-0.2C293,300.8,293,300.7,292.9,300.7 M294.3,296.4
					c0,0.1,0.1,0.2,0.1,0.4c0,0.3,0,0.7,0,1.3c0,0.1,0,0.2,0.1,0.3c0.1,0.1,0.2,0.2,0.2,0.2c0.2-0.1,0.3-0.2,0.4-0.5
					c0-0.3,0-0.5,0-0.7c0-0.3,0-0.5,0-0.6c0-0.3,0-0.5-0.1-0.6c0-0.1-0.1-0.2-0.3-0.4c-0.1-0.1-0.2-0.1-0.3-0.1
					c-0.1,0-0.2,0.1-0.2,0.3c0,0.1,0,0.1,0,0.2C294.2,296.2,294.2,296.3,294.3,296.4 M291.7,295.1c0,0-0.1,0.1-0.1,0.2
					c-0.1,0.3-0.1,0.5,0,0.6c0.1,0.2,0.2,0.3,0.2,0.3c0,0.1,0,0.2,0,0.4c0,0.1,0.1,0.2,0.1,0.3l0.3,0.5c0.1,0.2,0.3,0.3,0.4,0.3
					c0.2,0,0.3-0.2,0.3-0.5c0-0.2,0-0.3-0.1-0.4c0,0-0.1-0.1-0.2-0.2s-0.1-0.1-0.2-0.1c0-0.1-0.1-0.2-0.1-0.3c0-0.2,0-0.3-0.1-0.3
					l-0.2-0.3c0,0-0.1-0.1-0.1-0.3c0-0.1-0.1-0.2-0.2-0.3C291.8,295.1,291.7,295.1,291.7,295.1 M290.9,296.4c0-0.3-0.1-0.4-0.2-0.5
					c-0.2,0-0.2,0-0.3,0l-0.1,0.2c-0.1,0.4-0.1,0.7-0.1,0.9c0,0.1,0.1,0.3,0.1,0.5c0.1,0.4,0.3,0.8,0.5,1.1c0.2,0,0.4,0,0.5-0.1
					c0,0,0-0.1,0.1-0.2c0-0.2,0-0.3,0-0.4l-0.2-0.2c0-0.2,0-0.3,0-0.3L291,297C290.9,296.9,290.9,296.7,290.9,296.4 M294.5,324
					c-0.1,0.1-0.2,0.2-0.2,0.4c0,0.2,0.1,0.5,0.3,1c0.2,0.4,0.3,0.7,0.5,0.9c0.2,0.3,0.4,0.5,0.7,0.8c0.5,0.4,1.1,0.7,1.6,0.8
					c0.3,0.1,0.6,0.1,0.8,0c0-0.1-0.1-0.3-0.3-0.5l-1.5-1c-0.3-0.2-0.5-0.3-0.6-0.5l-0.3-0.6l-0.5-1
					C294.8,324,294.7,323.9,294.5,324 M295.8,309.7c-0.2-0.3-0.4-0.6-0.6-0.9c-0.3-0.3-0.6-0.4-1-0.4c0.6,1.2,1.1,2.4,1.6,3.8
					c0.3,0.9,0.6,1.6,0.9,2.1c0.1,0.1,0.1,0.2,0.2,0.3c-0.1,0.1-0.1,0.2-0.2,0.3c-0.1,0.1-0.2,0.3-0.4,0.4c-0.1,0.1-0.1,0.2-0.2,0.2
					c-0.3,0.2-0.5,0.3-0.6,0.4c-0.7,0.5-1,1.5-1.1,2.8c0,1.1,0.1,2,0.4,2.7c0.1,0.2,0.2,0.4,0.3,0.6c0.2,0.7,0.6,1.3,1.3,1.8
					c0.5,0.3,1.1,0.5,1.7,0.5c0.8,0,1.6-0.4,2.5-1c0.1,0,0.1-0.1,0.2-0.2c0,0,0,0,0.1-0.1c0,0,0.1,0,0.1-0.1
					c0.4-0.4,0.6-0.7,0.7-1.1c0.1-0.1,0.1-0.2,0.2-0.3c0.1-0.2,0.2-0.3,0.2-0.5c0-0.2-0.1-0.5-0.3-0.9c0.4,0.4,0.8,0.8,1.2,1.2
					c1.1,1.1,2.1,1.6,3,1.5c0.2-0.1,0.3-0.2,0.3-0.5c0-0.2,0-0.4-0.2-0.5c-0.2-0.2-0.5-0.4-1-0.6c-1-0.5-2.1-1.2-3.1-2.2
					c-0.7-0.7-1.6-1.6-2.6-2.8c-0.2-0.3-0.8-1.1-1.6-2.3c-0.8-1.3-1.3-2.2-1.4-2.5c-0.1-0.5-0.2-0.8-0.3-1.1
					C296.1,310.3,295.9,310,295.8,309.7 M292.8,334.6l-0.1-0.1c0,0-0.1,0-0.2,0c-0.1,0-0.2,0-0.2,0c-0.3,0.5-0.3,0.9-0.1,1.4l1,0.1
					c0.1-0.3,0.2-0.5,0.2-0.6C293.2,335.2,293,335,292.8,334.6 M291,336.9c-0.1,0.1-0.1,0.3-0.1,0.5c0,0.1,0.1,0.3,0.2,0.5
					c0,0.1,0,0.4,0,0.7c0,0.3,0,0.5,0.1,0.7c0.3,0.1,0.7,0.1,1,0c0-0.2,0-0.4,0.1-0.5c-0.2-0.1-0.2-0.2-0.3-0.3c0-0.1,0-0.2,0-0.3
					l0-0.6c0-0.2,0-0.3-0.1-0.4c-0.1-0.2-0.2-0.3-0.4-0.3c-0.2,0-0.3-0.1-0.5-0.1v0.1L291,336.9 M290.5,328.2
					c-0.1,0.5-0.1,0.9-0.1,1c0,0.2,0.2,0.4,0.3,0.7c0,0.1,0.1,0.3,0.1,0.6c0.1,0.2,0.2,0.4,0.3,0.5c0.3-0.1,0.4-0.3,0.5-0.6
					c0.1-0.3,0.1-0.6,0-0.8c-0.2-0.2-0.2-0.4-0.3-0.5c-0.1-0.1-0.1-0.3-0.1-0.6c0-0.4-0.1-0.7-0.2-1c-0.1,0-0.2,0-0.2,0
					c-0.1,0-0.2,0.1-0.2,0.2C290.6,327.8,290.5,328,290.5,328.2 M289.5,335.3c0-0.1,0.1-0.3,0.1-0.5c0,0,0-0.2,0.1-0.6l0.1-0.3
					c0.1-0.2,0.2-0.3,0.2-0.3c0-0.1-0.1-0.2-0.3-0.3c-0.2,0-0.3-0.1-0.4-0.1v0.1c-0.2,0-0.3,0-0.3,0.2c-0.1,0.1-0.1,0.2-0.1,0.3
					l0,0.7c0,0.2,0,0.5,0.1,0.7c0.1,0.3,0.2,0.4,0.4,0.6C289.3,335.6,289.5,335.5,289.5,335.3 M287.3,338.5c-0.1,0-0.2,0.2-0.2,0.4
					l0,0.4c0,0.2-0.1,0.4-0.2,0.8s-0.2,0.6-0.2,0.7c0,0,0,0.1,0,0.3c0,0.1,0,0.2,0,0.3c0,0.1-0.2,0.2-0.3,0.4
					c-0.2,0.1-0.3,0.3-0.4,0.4c0.3,0.2,0.4,0.3,0.6,0.3c0.2,0.1,0.4,0.1,0.6-0.1c0.1-0.1,0.2-0.3,0.2-0.4c0.1-0.3,0.2-0.6,0.2-0.8
					c0-0.3,0.1-0.5,0.1-0.6c0.2-0.2,0.3-0.4,0.3-0.6c0-0.1,0-0.2,0-0.3s0-0.2,0-0.3c0.2-0.2,0.2-0.4,0.2-0.5c0-0.2-0.1-0.3-0.3-0.4
					c-0.2-0.1-0.3-0.1-0.5-0.1C287.5,338.5,287.5,338.5,287.3,338.5 M289,342.5c-0.1,0-0.1,0.1-0.2,0.2c0,0.1-0.1,0.3-0.1,0.6
					c0,0.3-0.1,0.4-0.2,0.5l-0.2,0.2c-0.1,0.1-0.1,0.2-0.1,0.5c0,0.5,0.1,1,0.2,1.4c0,0,0.1,0,0.2-0.1s0.2,0,0.2-0.1
					c0,0,0.1-0.1,0.1-0.2c0.1-0.4,0.1-0.7,0.1-1c0-0.1,0-0.2,0-0.3c0,0,0.1-0.1,0.2-0.2c0.2-0.2,0.2-0.4,0.2-0.7
					c-0.1-0.2-0.1-0.4-0.3-0.7c-0.1-0.1-0.1-0.2-0.1-0.2C289.2,342.4,289.1,342.4,289,342.5 M293.8,342.9c0-0.2,0-0.4-0.1-0.5
					c-0.1-0.2-0.4-0.3-0.9-0.3c0,0.1,0,0.1,0,0.1h-0.1c-0.1,0-0.1,0.1-0.2,0.1c0,0.1-0.1,0.2,0,0.2c0,0.1,0.1,0.2,0.3,0.4
					c0.2,0.3,0.2,0.7,0,1c-0.2,0.3-0.3,0.5-0.3,0.6c0,0.1,0,0.3,0,0.4l0.1,0.9c0.1,0,0.2,0,0.4,0c0.1,0,0.2-0.1,0.2-0.2
					c0-0.1,0.1-0.2,0-0.4c0-0.2,0-0.3,0-0.4c0.2-0.2,0.3-0.4,0.4-0.5c0.1-0.2,0.1-0.3,0.1-0.5L293.8,342.9 M295.6,347.5
					c0,0.2,0.1,0.4,0.2,0.6c0.2,0.3,0.3,0.5,0.3,0.6l0.1,0.4c0,0,0,0.4,0.1,1.2c0.4,0.2,0.6,0.4,0.6,0.6h0.3c0-0.1,0-0.2,0-0.3
					c0-0.1,0.1-0.2,0.1-0.3c0,0-0.1-0.2-0.2-0.4c-0.1-0.2-0.1-0.4,0-0.7c0.1-0.4,0.1-0.6,0.1-0.7c0-0.3-0.2-0.6-0.6-0.9
					c-0.2-0.1-0.3-0.2-0.5-0.2C295.9,347.3,295.7,347.4,295.6,347.5 M293.4,348.9c-0.1-0.1-0.2-0.1-0.3-0.2c-0.1,0-0.3,0-0.4,0.1
					c-0.1,0.1-0.2,0.2-0.2,0.3c0,0.1,0,0.3,0,0.4c0,0.1,0.1,0.2,0.2,0.4c0.1,0.2,0.1,0.3,0.1,0.4l0.1,0.5l0.3,0.5
					c0.1,0.2,0.2,0.5,0.2,0.9c0.1,0,0.2,0,0.4,0c0.1-0.1,0.2-0.2,0.2-0.3c0-0.2,0.1-0.3,0.1-0.4c0-0.1,0-0.2,0-0.3
					c0-0.1-0.1-0.2-0.2-0.3c-0.1-0.1-0.2-0.3-0.2-0.6c0-0.4,0-0.6,0-0.7C293.7,349.4,293.6,349.1,293.4,348.9 M291,350.4
					c0-0.3-0.1-0.5-0.2-0.6c-0.1-0.1-0.1-0.2-0.3-0.2s-0.2,0-0.3,0c-0.1,0.1-0.2,0.2-0.2,0.5c0,0.1,0,0.3,0,0.5
					c0,0.2-0.1,0.4-0.2,0.6c-0.1,0.3-0.1,0.7-0.1,1.1c0,0.2,0.1,0.6,0.3,1.1l0.7,0.1c0.1-0.1,0-0.2-0.1-0.3l-0.2-0.2
					c0-0.1,0-0.2,0-0.4c0.1-0.2,0.1-0.3,0.1-0.4c0-0.1,0-0.2,0.1-0.3c0-0.2,0-0.3,0-0.3c0.1-0.3,0.2-0.4,0.3-0.6
					C290.9,350.9,291,350.6,291,350.4 M285.9,350.3c-0.1,0.1-0.3,0.2-0.4,0.3c-0.1,0.2-0.2,0.5-0.2,0.9c0,0.2,0.1,0.5,0.1,0.9
					c0,0.4,0,0.6,0,0.6c0.1,0.3,0.2,0.4,0.4,0.5c0.2-0.3,0.2-0.4,0.3-0.6l0-0.5c0-0.3,0-0.5,0.1-0.6c0-0.2,0.1-0.3,0.1-0.4
					c0-0.1,0.1-0.1,0.2-0.2c0.1-0.1,0.2-0.3,0.2-0.5c0-0.2-0.2-0.4-0.4-0.4C286.2,350.1,286.1,350.1,285.9,350.3 M283.6,347.9
					c-0.1,0.1-0.1,0.2-0.2,0.3c0,0.1,0,0.2,0,0.4c0,0.2,0,0.3,0,0.4c0,0.1-0.1,0.2-0.2,0.3c-0.1,0.1-0.1,0.2-0.1,0.4
					c0,0.2,0.1,0.3,0.2,0.4c0,0,0.1,0,0.2-0.1c0.1,0,0.2,0,0.2-0.1c0,0,0-0.1,0.1-0.2c0-0.1,0.1-0.1,0.1-0.2
					c0.1-0.1,0.1-0.1,0.2-0.2c0.1-0.1,0.1-0.2,0.2-0.5c0.1-0.2,0.2-0.3,0.3-0.4c0.1-0.1,0.1-0.3,0.1-0.5c0-0.2,0.1-0.3,0-0.5
					c0-0.2-0.1-0.3-0.2-0.3c-0.1-0.1-0.2-0.1-0.4-0.1c-0.1,0-0.2,0.1-0.3,0.3l0,0.2C283.8,347.7,283.7,347.8,283.6,347.9
					 M283.1,352.2c-0.1-0.1-0.3-0.1-0.4,0.1c-0.1,0.1-0.1,0.2-0.2,0.3c-0.1,0.2-0.1,0.3-0.1,0.3c0,0,0,0.1-0.1,0.2
					c0,0.1-0.1,0.1-0.1,0.2c0,0,0,0.1,0,0.3c0,0.1-0.1,0.2-0.1,0.3c-0.1,0.1-0.1,0.2-0.2,0.3c-0.2,0.3-0.2,0.5,0,0.6l0.6-0.1
					c0.1-0.3,0.2-0.5,0.5-0.7c0,0,0.1-0.1,0.2-0.2c0.1-0.1,0.1-0.2,0.2-0.2c0-0.1,0-0.2,0-0.5c0-0.2,0-0.4,0.1-0.5
					C283.4,352.3,283.3,352.2,283.1,352.2 M295.7,357.3c-1.5,0-3.2,0.1-5.3,0.4c-2.2,0.3-4.1,0.7-5.8,1.2c-0.9,0.2-2.2,0.6-3.9,1.2
					c-0.7,0.2-1,0.5-1.1,0.9c-0.1,0.2-0.1,0.3,0,0.5c0,0.1,0.1,0.3,0.1,0.5c0,0.2,0.1,0.5,0.1,0.8c0,0.4,0,0.7,0,0.8
					c0.1,0.9,0.8,2,2,3c1.1,0.9,2.1,1.6,2.9,1.9c0.7,0.3,1.6,0.5,2.5,0.7c1.4,0.2,2.8,0.2,4,0c0.7-0.1,1.4-0.3,2.1-0.6
					c1.7-0.7,3.2-1.9,4.3-3.4c0.2-0.3,0.6-0.9,1.2-2c0.5-0.9,0.8-1.6,0.9-2.2c0.2-0.9,0.1-1.7-0.3-2.3
					C298.7,357.9,297.5,357.4,295.7,357.3 M252.5,433.7l0.2,0.5c-1.4,2.5-2.1,5.1-2.3,7.9c0.5,0,3.1,0.5,8,1.4
					c3.2,0.6,5.9,0.8,8,0.7c1.1-0.1,3.3-0.4,6.6-1.1c2.7-0.5,4.9-0.8,6.6-0.7c0.8,0,1.4,0.2,1.9,0.5c0.3,0.2,0.6,0.6,1,1.1l1.8,2.6
					c0.4,0.6,0.9,1.1,1.2,1.4c0.5,0.4,1.1,0.6,1.6,0.5c0.8-1.6,2-2.9,3.5-3.9c0.4-0.3,0.7-0.5,0.6-0.8c0-0.2-0.1-0.4-0.4-0.6l-4-3.5
					c1.3-0.4,3.2-0.9,5.7-1.6c2.2-0.6,4.1-1.2,5.6-1.8c4.3-1.7,7.5-3.8,9.8-6.4c0.4-0.5,0.7-0.9,0.7-1.3c0-0.3,0-0.5-0.2-0.8
					c0-0.1-0.2-0.3-0.4-0.8c-0.7-1.2-1.1-2.4-1.3-3.7c-0.1-0.4-0.1-0.8-0.2-1c-0.1-0.3-0.3-0.6-0.5-0.7c-0.4-0.2-0.9,0-1.6,0.5
					c-1.2,0.9-3.1,2-5.6,3.1c-6.4,2.9-11.5,5-15.3,6.4c-5.8,2-11.1,3.3-16,3.9c-2.4,0.3-4.5,0.3-6.3,0.2c-2.3-0.2-4.3-0.6-6-1.5
					c-0.6-0.3-1-0.5-1.3-0.5C253.3,433.6,252.9,433.6,252.5,433.7 M254.2,441.6c1.2-2.6,1.5-4.7,0.9-6.4c1.8,0.9,3.7,1.4,5.6,1.6
					c1.7,0.2,3.8,0.2,6.2-0.1c4.7-0.5,9.8-1.7,15.1-3.4c4.2-1.4,9-3.3,14.4-5.8c3.4-1.6,6.5-3.1,9.3-4.4c0,1.1,0.3,2.2,0.8,3.3
					c0.1,0.2,0.3,0.5,0.5,1c0.2,0.4,0.3,0.7,0.3,1c0,0.6-0.4,1.3-1.3,2c-2.4,2.2-5.6,3.9-9.4,5.3c-2.5,0.9-6.1,1.8-10.7,2.8
					c-0.5,0.1-0.8,0.3-0.9,0.5c-0.1,0.3,0.1,0.6,0.5,1l4,3.7l-2.6,3c-0.2,0.3-0.4,0.4-0.6,0.4c-0.3,0.1-0.6-0.1-0.9-0.6l-3.1-4.4
					c-0.3-0.5-0.6-0.8-0.9-0.9c-0.3-0.1-0.7-0.2-1.3-0.1c-2.7,0.3-4.7,0.5-6.1,0.7c-0.4,0.1-1.4,0.3-3.1,0.6
					c-1.3,0.3-2.3,0.4-3.1,0.5c-2.1,0.3-4.3,0.2-6.8,0C259,442.6,256.7,442.2,254.2,441.6z"/>
				<path class="st6" d="M273.3,295.4c0-0.1-0.1-0.1-0.2-0.1c-0.1-0.1-0.3-0.1-0.4-0.1c-0.2,0.1-0.3,0.2-0.2,0.3
					c0,0.1,0.1,0.2,0.2,0.3l0,0.2c0,0.1,0.1,0.2,0.1,0.3c0.1,0.1,0.1,0.2,0.1,0.3c0,0.1,0,0.2,0.1,0.2l0.1,0.1l0.2,0
					c0.2,0,0.3,0,0.3,0c0.1,0,0.2-0.2,0.2-0.4c-0.1-0.1-0.2-0.2-0.2-0.4c0-0.1,0-0.2,0-0.2c-0.1-0.1-0.2-0.2-0.2-0.2
					C273.3,295.6,273.3,295.5,273.3,295.4 M277,308.9L277,308.9c0.1-0.2,0.1-0.3,0-0.4c-0.1,0-0.3,0-0.5,0.2l-0.1,0.2l0,0.2l0,0.6
					c0,0.3,0,0.5,0.1,0.6h0.5c0.1-0.2,0.2-0.4,0.2-0.6c-0.1-0.3-0.1-0.5-0.1-0.7L277,308.9 M275.8,308.5c0-0.3,0-0.4,0-0.5
					c0-0.4,0-0.6-0.1-0.7l-0.1-0.2c0,0,0.1-0.1,0.2-0.4c0.1-0.1,0-0.2,0-0.4c-0.1-0.1-0.2-0.2-0.3-0.2c0,0,0,0.1-0.1,0.1
					c-0.1,0-0.2,0-0.3,0.1c-0.2,0.2-0.3,0.5-0.3,0.8c0,0.2,0.1,0.4,0.3,0.7c0.1,0.2,0.1,0.5,0,0.7l-0.2,0.4c0,0.2,0,0.4,0.1,0.6h0.4
					c0.3-0.3,0.4-0.5,0.5-0.7C275.8,308.8,275.8,308.6,275.8,308.5 M275.9,302.9c-0.1-0.2-0.2-0.3-0.2-0.4l-0.1-0.3
					c-0.1-0.2-0.3-0.3-0.6-0.4v0.1c-0.1,0-0.2,0-0.2,0.1c-0.1,0-0.1,0.1-0.1,0.3c0,0.1,0,0.2,0.1,0.4l0.3,0.3
					c0.1,0.1,0.2,0.2,0.2,0.4c0,0.1,0,0.2,0.1,0.3c0,0.1,0.1,0.2,0.3,0.2c0.1,0,0.2,0,0.4,0c0.1-0.1,0.1-0.1,0.1-0.2l-0.1-0.2
					c0-0.1,0-0.2,0-0.3C276,303.1,276,303,275.9,302.9 M235.9,357.2c0-0.1,0-0.2-0.2-0.3l-0.4-0.1v0.1c-0.1,0-0.1,0-0.2,0.1
					c0,0-0.1,0.1-0.1,0.2c-0.1,0.2,0,0.4,0.1,0.6c0.1,0.1,0.3,0.2,0.6,0.3v0.1h0.3c0,0,0-0.1,0.1-0.1c0.1-0.1,0.1-0.3,0.1-0.5
					c0-0.1,0-0.1,0-0.2C236.1,357.3,236,357.2,235.9,357.2 M234.1,359.5L234.1,359.5l-0.3,0.1c-0.1,0.2-0.1,0.4,0,0.6
					c0.1,0,0.2,0,0.3,0.1c0.1,0,0.2,0.1,0.3,0.1c0.1,0,0.1,0.1,0.1,0.1l0.2,0.1c0.2,0,0.4,0,0.5,0c0-0.1,0.1-0.2,0.2-0.3
					c0-0.1-0.1-0.1-0.2-0.2l-0.2-0.1l-0.2-0.2C234.8,359.5,234.5,359.5,234.1,359.5 M234.9,374.6c0-0.1-0.1-0.1-0.1-0.2
					c-0.1-0.1-0.2-0.1-0.4-0.1l0,0l-0.2,0.1c-0.1,0.2-0.1,0.4-0.2,0.6c0,0.1,0,0.1,0,0.2c0,0.1,0.1,0.1,0.2,0.2l0.1,0.2l0.1,0l0.9,0
					c0.1-0.2,0.1-0.3,0.1-0.4c0-0.1-0.2-0.1-0.4-0.2c-0.1-0.1-0.2-0.1-0.3-0.3C234.9,374.7,234.9,374.7,234.9,374.6 M231.2,388.1
					c-0.2-0.3-0.4-0.5-0.7-0.6c-0.2-0.1-0.3,0-0.4,0.1c0,0.1-0.1,0.1-0.1,0.2c0,0.2,0,0.4,0.1,0.5c0.1,0.1,0.1,0.2,0.2,0.2
					c0,0,0.1,0,0.2,0l0.6,0.1c0.1-0.1,0.2-0.2,0.2-0.3C231.2,388.2,231.2,388.2,231.2,388.1 M227.3,388.7c-0.1,0-0.2,0-0.3-0.1
					c-0.1,0-0.2-0.1-0.2-0.1c-0.1-0.2-0.2-0.3-0.4-0.3c-0.1,0-0.2,0-0.3,0.1c0,0.1-0.1,0.2-0.1,0.3c0,0.3,0.1,0.5,0.2,0.6l0.3,0.1
					c0.4,0.1,0.7,0.1,0.9,0c0,0,0-0.1,0-0.2c0.1-0.1,0.1-0.1,0.1-0.2C227.6,388.9,227.5,388.8,227.3,388.7 M220.6,389.7
					c0.1-0.1,0.1-0.2,0.1-0.3c0-0.1-0.1-0.2-0.3-0.2c-0.2-0.1-0.3-0.1-0.4-0.2c-0.1-0.1-0.2-0.1-0.2-0.2c-0.1-0.1-0.2-0.1-0.2-0.1
					c-0.1,0-0.2,0.1-0.3,0.2c-0.1,0.1-0.1,0.2-0.1,0.3c0,0.1,0,0.1,0.1,0.2c0,0.1,0.1,0.2,0.2,0.2l0.1,0.1L220.6,389.7L220.6,389.7
					 M215.2,387.6c0,0-0.1,0-0.2,0c-0.1,0.2-0.2,0.3-0.2,0.5c0,0.1,0,0.2,0.1,0.3c0,0.1,0.1,0.1,0.1,0.2l0.1,0.3
					c0.1,0.1,0.2,0.2,0.4,0.2l0.4,0.1V389l0.2-0.1c0-0.1,0-0.2-0.1-0.3l-0.3-0.5c-0.1-0.1-0.1-0.2-0.2-0.2c-0.1-0.1-0.2-0.1-0.2-0.2
					L215.2,387.6 M215.5,377.3c0,0,0-0.1,0-0.2c0-0.2-0.1-0.3-0.2-0.5l-0.1-0.1c0,0-0.1,0-0.2,0c-0.2,0.3-0.2,0.6-0.2,1.1
					c0,0.2,0,0.3,0.1,0.4c0,0,0.1,0.1,0.2,0.1c0.2,0.1,0.4,0.1,0.5,0.1c0.1-0.2,0.1-0.3,0.1-0.4c0.1-0.1,0.1-0.3,0-0.4
					C215.5,377.4,215.5,377.3,215.5,377.3 M213.7,371.5c-0.1,0-0.1,0-0.2,0.1s-0.1,0.2-0.1,0.4c0,0.1,0,0.3,0,0.6
					c0,0.1,0.1,0.3,0.2,0.5l0.1,0.3c0,0.1,0.1,0.2,0.2,0.2c0.2-0.1,0.3-0.2,0.3-0.5c0-0.2,0-0.3,0-0.5c-0.1-0.1-0.2-0.3-0.2-0.3
					v-0.4c0-0.2-0.1-0.3-0.2-0.4C213.9,371.5,213.8,371.5,213.7,371.5 M212.4,364.3c-0.1-0.1-0.1-0.2-0.1-0.2c0-0.1,0-0.2,0.1-0.4
					c0.1-0.2,0.1-0.4,0-0.5c-0.3,0-0.4,0.1-0.6,0.3c-0.1,0.2-0.1,0.3-0.1,0.4c0,0.4,0.2,0.9,0.5,1.5c0.1,0.2,0.2,0.2,0.3,0.2
					c0-0.1,0-0.2,0-0.4c0-0.2,0-0.3,0-0.4c0-0.2,0-0.3,0-0.4C212.5,364.4,212.5,364.4,212.4,364.3 M213.6,360.7
					c0-0.2-0.1-0.3-0.1-0.3c-0.1-0.1-0.2-0.1-0.3-0.1c-0.1,0.1-0.1,0.3-0.1,0.6c0,0.2,0,0.3,0.1,0.4c0,0.1,0.1,0.2,0.2,0.3l0.1,0.3
					c0.1,0.1,0.1,0.2,0.2,0.2c0.1,0.1,0.2,0.1,0.3,0.1c0.1,0,0.2-0.1,0.2-0.3c0-0.2,0.1-0.3,0.1-0.3c-0.1-0.1-0.2-0.2-0.3-0.3
					c0-0.1-0.1-0.2-0.1-0.3c-0.1-0.1-0.1-0.1-0.2-0.1C213.6,360.8,213.6,360.8,213.6,360.7 M284,389.2c0,0.3,0,0.5,0.1,0.6l0.8,0.1
					c0.1-0.1,0.1-0.3,0.1-0.4c0-0.1,0-0.3-0.1-0.4c-0.1-0.1-0.3-0.2-0.5-0.2v0.1c-0.2,0-0.2,0-0.3,0.1
					C284,389.1,284,389.1,284,389.2 M286,386.8c-0.1-0.1-0.1-0.2-0.2-0.2c-0.1-0.1-0.2-0.1-0.3,0c-0.1,0-0.2,0.1-0.2,0.2l0,0.3
					l0,0.3l0.1,0.2c0,0.2,0.1,0.3,0.1,0.4c0,0.1,0,0.2,0,0.3c0,0.1,0,0.2,0.1,0.2c0,0.1,0.1,0.1,0.3,0.1c0.2,0,0.3,0,0.3,0.1
					c0,0,0-0.1,0.1-0.2c0.1,0,0.1-0.2,0.1-0.4v-0.5c0-0.2,0-0.3-0.1-0.3c-0.1-0.1-0.1-0.2-0.2-0.2L286,386.8 M284.1,387.8
					c0.1-0.1,0.1-0.2,0.1-0.4L284,387l-0.3-0.7c0-0.1-0.1-0.1-0.1-0.2c-0.1-0.1-0.2-0.1-0.3-0.1v0.1c-0.1,0-0.2,0-0.2,0.1
					c0,0-0.1,0.1-0.1,0.1c0,0.1,0,0.2,0,0.4c0,0.1,0.1,0.3,0.2,0.6l0.2,0.3C283.5,387.7,283.7,387.8,284.1,387.8 M286.2,383.1
					c0,0,0,0.1-0.1,0.3l-0.1,0.9c0,0.3,0.1,0.5,0.2,0.6c0.2,0,0.3,0,0.4-0.2c0,0,0-0.1,0.1-0.3l0-0.2l0-0.2l0-0.4
					c0-0.2-0.1-0.4-0.2-0.7C286.4,382.9,286.3,383,286.2,383.1 M285.2,380.9H285c-0.1,0.2-0.2,0.4-0.2,0.7c0,0.3,0,0.5,0.1,0.7
					l0.2,0.3c0,0.1,0.1,0.1,0.1,0.2c0,0.1,0.1,0.1,0.2,0.1c0.1,0,0.2,0,0.3-0.1c0.1-0.1,0.1-0.2,0.1-0.2c0-0.2,0-0.3,0-0.3
					c-0.1-0.2-0.2-0.3-0.2-0.4l-0.1-0.2C285.4,381.4,285.4,381.2,285.2,380.9 M282.1,380.7c-0.1,0.1-0.1,0.3,0,0.4l0.2,0.4l0.4,0.7
					c0.1,0.2,0.2,0.3,0.4,0.4c0.2,0,0.3-0.1,0.3-0.3c0-0.1,0-0.3-0.1-0.4l-0.2-0.4l-0.1-0.1l0-0.2c0-0.1-0.1-0.2-0.1-0.2
					c-0.1-0.1-0.2-0.2-0.2-0.2c0-0.1-0.1-0.1-0.1-0.1C282.4,380.6,282.2,380.6,282.1,380.7 M253.2,400.8c0-0.2,0-0.3,0-0.4
					c0-0.1-0.1-0.2-0.2-0.2c-0.1-0.1-0.2,0-0.3,0.1c0,0.1,0,0.1,0,0.2v0.6c0,0.2,0,0.3,0,0.3c0.1,0.2,0.2,0.3,0.4,0.4
					c0.1,0,0.1,0.1,0.1,0.1l0.1-0.1c0.1-0.1,0.1-0.2,0.1-0.3c-0.1-0.1-0.1-0.2-0.1-0.2C253.3,401.3,253.2,401.1,253.2,400.8
					 M254,399.2c0-0.2-0.1-0.3-0.2-0.5c-0.1,0-0.2,0-0.2,0c-0.1,0-0.1,0.1-0.2,0.2c0,0,0,0.1,0,0.3c0,0.1,0,0.3,0,0.6
					c0,0.1,0.1,0.2,0.2,0.4c0,0.1,0,0.3,0,0.5c0,0.2,0.1,0.3,0.2,0.3c0.1,0,0.2-0.1,0.3-0.3c0-0.1,0-0.3,0-0.5c0-0.3,0-0.4-0.1-0.5
					c-0.1-0.1-0.1-0.2-0.2-0.2L254,399.2 M255.4,394.6c-0.1-0.1-0.2-0.1-0.3-0.1c-0.1,0.3-0.2,0.7-0.1,1.2c0,0.2,0,0.3,0.1,0.4
					l0.2,0.3c0,0.1,0.1,0.3,0,0.6c0,0.1,0.1,0.3,0.3,0.3c0.1,0.1,0.3,0.1,0.4,0c0.1-0.1,0.1-0.2,0-0.3c-0.1-0.1-0.1-0.2-0.1-0.3
					c0-0.1,0-0.2,0-0.3c0-0.1,0-0.2,0-0.3c-0.1-0.2-0.2-0.3-0.2-0.4c0-0.1-0.1-0.3-0.1-0.5c0-0.2,0-0.4,0-0.5
					C255.5,394.7,255.5,394.7,255.4,394.6 M252.5,394c-0.1,0-0.2,0-0.3,0.1c0.1,1.1,0.2,2,0.3,2.7c0.2-0.2,0.2-0.3,0.3-0.5
					c0-0.1,0-0.4,0-0.8L252.5,394 M225.2,292c0.6-0.1,1.6-0.3,2.8-0.6c2.4-0.5,5-0.7,8.1-0.7c1.9,0,4.6,0.1,8.1,0.4l2.2,0.2
					c0.3,0,0.5,0.1,0.5,0.2c-0.2,0.3-0.2,0.6-0.2,0.8c0,0.2,0.1,0.3,0.2,0.4c0.1,0.1,0.2,0.2,0.3,0.2c0.3,0,0.5-0.1,0.7-0.5
					c0.1-0.1,0.1-0.2,0.2-0.4c0.1-0.2,0.2-0.3,0.3-0.4c0.1-0.1,0.3-0.2,0.6-0.3c0.2,0,0.4-0.1,0.7-0.2c0.2-0.1,0.4-0.2,0.5-0.4
					c0.2-0.2,0.2-0.4,0.1-0.6c0.6,0.1,1.1,0,1.5-0.4c0.3-0.2,0.4-0.4,0.3-0.6c0-0.2-0.2-0.3-0.4-0.4c-0.4-0.2-0.9-0.3-1.5-0.4
					c-0.3,0-0.8-0.1-1.6-0.1c-3.9-0.1-7.4-0.1-10.3,0.1c-3.7,0.2-7.1,0.7-10.2,1.5c-1.3,0.3-3.1,0.8-5.2,1.5
					c-0.2,0.1-0.4,0.2-0.5,0.2c-0.1,0.1-0.1,0.2-0.1,0.2c0,0.1,0,0.2,0.1,0.2C223.5,292.2,224.4,292.2,225.2,292 M326,278
					c0-0.1,0.1-0.1,0.1-0.2c-7.2,2.6-13.7,6.4-19.4,11.5c-0.6,0.5-1,0.9-1.3,1.1c-0.5,0.4-1,0.6-1.5,0.7c-0.4,0.1-0.9,0.1-1.5,0
					c-0.3,0-0.7-0.2-1.5-0.4c-4.2-1.3-8-2.1-11.5-2.5c-2.3-0.3-4.5-0.4-6.6-0.3c0.4,0.7,1,1.5,1.8,2.5c1.1,1.5,1.9,2.6,2.3,3.4
					c0.5,1,1,2.4,1.3,4.2c1.4,6.2,1.8,12.5,1.2,18.9c-0.3,3.2-0.8,6-1.6,8.4c-0.9,2.7-2.2,5.2-3.9,7.6c-1.7,2.3-3.7,4.4-6.1,6.1
					c-0.6,0.4-1.2,0.7-1.8,0.8c-0.7,0.2-1.3,0-1.7-0.4c-0.1-0.2-0.3-0.3-0.4-0.6c0,0-0.1-0.2-0.3-0.6c-0.6-1.5-1.5-2.7-2.6-3.7
					c-0.2,0.6-0.6,0.9-1.2,1.1c-0.6,0.2-1.2,0.2-1.8-0.1c-0.5-0.2-1-0.5-1.4-1c-0.2-0.2-0.6-0.7-1.2-1.4c-2-2.1-3.4-3.7-4.3-4.8
					c-1.6-1.9-2.6-3.7-2.9-5.5c-0.2,1-0.4,1.7-0.7,2.3c-0.4,0.8-0.8,1.4-1.4,1.9c-0.6,0.4-1.3,0.6-2.1,0.7c-0.2,0-0.3,0-0.5,0
					c0.1,0.3,0.3,0.6,0.5,1c0.5,0.7,0.8,1.1,1.1,1.4c0.2,0.2,0.6,0.5,1,0.9c0.1,0.1,0.3,0.3,0.5,0.5c0.2,0.2,0.4,0.3,0.5,0.4
					c0.4,0.3,0.9,0.4,1.5,0.3c0.1,0,0.2,0,0.4-0.1c0,0,0-0.1,0-0.1c0.1-0.4,0.3-0.6,0.6-0.5l0.2,0.8c0.1,0.1,0.2,0.2,0.2,0.3
					c0.1,0.2,0.1,0.3,0,0.4l5.7,20c0.6,2.2,1.1,3.8,1.4,4.7c0.6,1.7,1.1,3.3,1.7,4.6c1.1,2.4,2.8,5.3,5.2,8.8c1,1.4,1.8,2.5,2.5,3.2
					c1,1.1,2,2,3.1,2.6c1.3,0.7,2.7,1.1,4.3,1.2c1.5,0.1,3-0.1,4.5-0.5c1.3-0.4,2.7-0.9,4.1-1.7c1.1-0.6,2.4-1.4,3.9-2.4
					c2.5-1.7,4.5-3.4,6-4.9c2-2,3.3-4.1,4.1-6.4c0.5-1.2,0.8-2.7,1-4.4c0.1-1,0.2-2.5,0.3-4.5c0.4-11.5,0.6-20,0.7-25.8
					c0.2-9.6,0.2-18.1-0.1-25.8c-0.1-1.2,0-2.1,0.2-2.7c0,0,0-0.1,0-0.1c-0.1-1.4-0.5-2.6-1.2-3.9l2.2-0.8c-0.4-0.1-0.7-0.2-0.8-0.3
					c-0.3-0.2-0.4-0.5-0.2-0.7c0.1-0.2,0.2-0.3,0.5-0.3c0.1,0,0.4,0,0.7,0c0.6,0,1.1-0.2,1.7-0.7c0.4-0.3,0.9-0.7,1.5-1.3
					c0.3-0.2,0.8-0.6,1.7-1.3c2.8-2,5.4-4.3,7.6-6.9C324.4,280.9,325.4,279.4,326,278 M290.4,357.7c2.1-0.3,3.9-0.4,5.3-0.4
					c1.8,0.1,3,0.5,3.5,1.4c0.4,0.6,0.5,1.4,0.3,2.3c-0.1,0.6-0.4,1.3-0.9,2.2c-0.6,1.1-1,1.8-1.2,2c-1.1,1.6-2.5,2.7-4.3,3.4
					c-0.7,0.3-1.4,0.5-2.1,0.6c-1.2,0.2-2.5,0.2-4,0c-0.9-0.1-1.7-0.3-2.5-0.7c-0.9-0.4-1.8-1-2.9-1.9c-1.2-1.1-1.9-2.1-2-3
					c0-0.2,0-0.4,0-0.8c0-0.4,0-0.6-0.1-0.8c-0.1-0.2-0.1-0.4-0.1-0.5c-0.1-0.2-0.1-0.4,0-0.5c0.1-0.4,0.5-0.7,1.1-0.9
					c1.7-0.6,3.1-1,3.9-1.2C286.3,358.4,288.2,358,290.4,357.7 M282.7,352.2c0.2-0.1,0.3-0.1,0.4-0.1c0.1,0,0.3,0.1,0.4,0.3
					c-0.1,0.1-0.1,0.3-0.1,0.5c0,0.3,0,0.4,0,0.5c0,0.1-0.1,0.1-0.2,0.2c-0.1,0.1-0.2,0.2-0.2,0.2c-0.2,0.2-0.4,0.5-0.5,0.7
					l-0.6,0.1c-0.2-0.2-0.2-0.4,0-0.6c0-0.1,0.1-0.2,0.2-0.3c0.1-0.1,0.1-0.2,0.1-0.3c0-0.2,0-0.3,0-0.3c0,0,0-0.1,0.1-0.2
					c0.1-0.1,0.1-0.1,0.1-0.2c0,0,0-0.2,0.1-0.3C282.6,352.4,282.6,352.3,282.7,352.2 M283.5,348.2c0-0.1,0.1-0.2,0.2-0.3
					c0.1-0.1,0.1-0.2,0.1-0.3l0-0.2c0.1-0.1,0.1-0.2,0.3-0.3c0.2,0,0.3,0,0.4,0.1c0.1,0.1,0.2,0.2,0.2,0.3c0,0.1,0,0.3,0,0.5
					c0,0.2-0.1,0.3-0.1,0.5c0,0.1-0.1,0.2-0.3,0.4c-0.1,0.2-0.2,0.4-0.2,0.5c0,0-0.1,0.1-0.2,0.2c-0.1,0.1-0.1,0.1-0.1,0.2
					c0,0.1,0,0.2-0.1,0.2c0,0-0.1,0.1-0.2,0.1c-0.1,0-0.2,0-0.2,0.1c-0.1-0.1-0.1-0.2-0.2-0.4c0-0.2,0-0.3,0.1-0.4
					c0.1-0.1,0.2-0.2,0.2-0.3c0-0.1,0-0.2,0-0.4C283.5,348.4,283.5,348.3,283.5,348.2 M285.6,350.6c0.1-0.1,0.2-0.2,0.4-0.3
					c0.1-0.1,0.3-0.2,0.5-0.2c0.2,0,0.4,0.2,0.4,0.4c0,0.2,0,0.4-0.2,0.5c-0.1,0.1-0.2,0.2-0.2,0.2c0,0.1-0.1,0.2-0.1,0.4
					c0,0.1-0.1,0.3-0.1,0.6l0,0.5c0,0.1-0.1,0.3-0.3,0.6c-0.2-0.1-0.3-0.2-0.4-0.5c0-0.1,0-0.3,0-0.6c-0.1-0.4-0.1-0.7-0.1-0.9
					C285.4,351.1,285.5,350.8,285.6,350.6 M290.8,349.8c0.1,0.1,0.2,0.3,0.2,0.6c0,0.2,0,0.4-0.1,0.6c-0.1,0.1-0.2,0.3-0.3,0.6
					c0,0.1,0,0.2,0,0.3c0,0.1,0,0.2-0.1,0.3c0,0.1-0.1,0.2-0.1,0.4c0,0.2,0,0.3,0,0.4l0.2,0.2c0.1,0.1,0.1,0.2,0.1,0.3l-0.7-0.1
					c-0.1-0.5-0.2-0.8-0.3-1.1c0-0.4,0-0.8,0.1-1.1c0.1-0.3,0.2-0.5,0.2-0.6c0-0.2,0-0.4,0-0.5c0-0.2,0.1-0.4,0.2-0.5
					c0.1,0,0.2-0.1,0.3,0C290.7,349.6,290.8,349.7,290.8,349.8 M293,348.8c0.1,0,0.3,0.1,0.3,0.2c0.2,0.2,0.4,0.4,0.4,0.7
					c0,0.1,0,0.3,0,0.7c0,0.3,0.1,0.5,0.2,0.6c0.1,0.2,0.2,0.3,0.2,0.3c0,0.1,0,0.2,0,0.3c0,0.1-0.1,0.2-0.1,0.4
					c-0.1,0.1-0.1,0.2-0.2,0.3c-0.1,0.1-0.2,0.1-0.4,0c0-0.4-0.1-0.7-0.2-0.9l-0.3-0.5l-0.1-0.5c0-0.1-0.1-0.2-0.1-0.4
					c-0.1-0.2-0.2-0.3-0.2-0.4c-0.1-0.1-0.1-0.3,0-0.4c0-0.2,0.1-0.3,0.2-0.3C292.8,348.8,292.9,348.7,293,348.8 M295.8,348.1
					c-0.1-0.2-0.2-0.4-0.2-0.6c0.1-0.1,0.3-0.2,0.5-0.2c0.2,0,0.3,0.1,0.5,0.2c0.4,0.3,0.5,0.6,0.6,0.9c0,0.1,0,0.4-0.1,0.7
					c-0.1,0.3,0,0.5,0,0.7c0.1,0.2,0.2,0.4,0.2,0.4c0,0.1,0,0.2-0.1,0.3c0,0.1,0,0.2,0,0.3h-0.3c0-0.2-0.2-0.4-0.6-0.6
					c-0.1-0.7-0.1-1.1-0.1-1.2l-0.1-0.4C296.1,348.6,296,348.4,295.8,348.1 M293.7,342.5c0.1,0.1,0.1,0.3,0.1,0.5v0.9
					c0,0.2,0,0.4-0.1,0.5c-0.1,0.1-0.2,0.3-0.4,0.5c0,0.1,0,0.2,0,0.4c0,0.2,0,0.3,0,0.4c-0.1,0.1-0.1,0.2-0.2,0.2
					c-0.1,0.1-0.2,0.1-0.4,0l-0.1-0.9c0-0.1,0-0.3,0-0.4c0-0.1,0.1-0.3,0.3-0.6c0.2-0.4,0.1-0.7,0-1c-0.2-0.2-0.2-0.3-0.3-0.4
					c0-0.1,0-0.2,0-0.2c0-0.1,0.1-0.1,0.2-0.1h0.1c0.1,0,0.1,0,0-0.1C293.4,342.2,293.6,342.3,293.7,342.5 M288.9,342.7
					c0-0.1,0.1-0.1,0.2-0.2c0.1-0.1,0.2-0.1,0.2,0c0,0,0.1,0.1,0.1,0.2c0.1,0.3,0.2,0.5,0.3,0.7c0,0.3,0,0.5-0.2,0.7
					c-0.1,0.1-0.2,0.2-0.2,0.2c0,0.1,0,0.2,0,0.3c0,0.3-0.1,0.6-0.1,1c0,0.1-0.1,0.2-0.1,0.2c0,0-0.1,0.1-0.2,0.1s-0.2,0-0.2,0.1
					c-0.1-0.4-0.2-0.9-0.2-1.4c0-0.2,0-0.4,0.1-0.5l0.2-0.2c0.1-0.1,0.2-0.3,0.2-0.5C288.8,343,288.8,342.8,288.9,342.7
					 M287.1,338.9c0-0.2,0.1-0.3,0.2-0.4c0.2,0,0.2-0.1,0.2-0.1c0.2,0,0.4,0,0.5,0.1c0.2,0.1,0.3,0.2,0.3,0.4c0,0.1-0.1,0.3-0.2,0.5
					c0,0.1,0,0.2,0,0.3c0,0.1,0,0.2,0,0.3c0,0.1-0.1,0.3-0.3,0.6c0,0.1-0.1,0.3-0.1,0.6c0,0.2-0.1,0.5-0.2,0.8
					c0,0.2-0.1,0.3-0.2,0.4c-0.2,0.2-0.4,0.2-0.6,0.1c-0.1,0-0.3-0.1-0.6-0.3c0.1-0.1,0.2-0.2,0.4-0.4c0.2-0.1,0.3-0.2,0.3-0.4
					c0-0.1,0-0.2,0-0.3c0-0.2,0-0.3,0-0.3c0-0.2,0.1-0.4,0.2-0.7s0.2-0.6,0.2-0.8L287.1,338.9 M289.6,334.8c0,0.3-0.1,0.4-0.1,0.5
					c-0.1,0.2-0.2,0.3-0.4,0.3c-0.2-0.1-0.3-0.3-0.4-0.6c0-0.2-0.1-0.5-0.1-0.7l0-0.7c0-0.1,0-0.2,0.1-0.3c0.1-0.2,0.2-0.2,0.3-0.2
					V333c0.1,0.1,0.2,0.1,0.4,0.1c0.2,0.1,0.3,0.2,0.3,0.3c0,0,0,0.1-0.2,0.3l-0.1,0.3C289.6,334.5,289.6,334.7,289.6,334.8
					 M290.4,329.2c0-0.2,0-0.5,0.1-1c0-0.3,0.1-0.4,0.1-0.5c0-0.1,0.1-0.1,0.2-0.2c0.1,0,0.2,0,0.2,0c0.1,0.3,0.2,0.6,0.2,1
					c0,0.3,0.1,0.5,0.1,0.6c0,0.1,0.1,0.3,0.3,0.5c0.1,0.3,0.1,0.5,0,0.8c-0.1,0.3-0.3,0.5-0.5,0.6c-0.1-0.1-0.2-0.3-0.3-0.5
					c0-0.3-0.1-0.5-0.1-0.6C290.6,329.6,290.5,329.4,290.4,329.2 M291,337.4c-0.1-0.2-0.1-0.4,0.1-0.5h0.2v-0.1c0.2,0,0.4,0,0.5,0.1
					c0.2,0.1,0.3,0.2,0.4,0.3c0,0.1,0.1,0.2,0.1,0.4l0,0.6c0,0.1,0,0.2,0,0.3c0,0.1,0.1,0.2,0.3,0.3c-0.1,0.2-0.1,0.3-0.1,0.5
					c-0.4,0.1-0.7,0.1-1,0c-0.1-0.1-0.1-0.4-0.1-0.7c0-0.3,0-0.6,0-0.7C291.1,337.7,291,337.5,291,337.4 M292.7,334.5l0.1,0.1
					c0.2,0.3,0.4,0.6,0.6,0.8c-0.1,0.1-0.2,0.3-0.2,0.6l-1-0.1c-0.2-0.5-0.1-1,0.1-1.4c0,0,0.1,0,0.2,0
					C292.6,334.5,292.6,334.5,292.7,334.5 M295.2,308.9c0.3,0.2,0.5,0.5,0.6,0.9c0.1,0.3,0.3,0.6,0.4,1c0.1,0.2,0.2,0.6,0.3,1.1
					c0.1,0.3,0.6,1.2,1.4,2.5c0.8,1.2,1.3,2,1.6,2.3c1,1.2,1.8,2.1,2.6,2.8c1,1,2,1.7,3.1,2.2c0.5,0.2,0.8,0.4,1,0.6
					c0.1,0.2,0.2,0.3,0.2,0.5c0,0.2-0.1,0.4-0.3,0.5c-0.9,0-1.8-0.5-3-1.5c-0.4-0.4-0.8-0.8-1.2-1.2c0.2,0.4,0.3,0.7,0.3,0.9
					c0,0.2-0.1,0.3-0.2,0.5c-0.1,0.1-0.2,0.2-0.2,0.3c0,0.3-0.2,0.7-0.7,1.1c0,0-0.1,0.1-0.1,0.1c0,0,0,0-0.1,0.1
					c-0.1,0.1-0.1,0.1-0.2,0.2c-0.8,0.6-1.7,1-2.5,1c-0.6,0-1.2-0.2-1.7-0.5c-0.7-0.5-1.1-1.1-1.3-1.8c-0.1-0.2-0.2-0.4-0.3-0.6
					c-0.3-0.7-0.4-1.6-0.4-2.7c0-1.4,0.4-2.3,1.1-2.8c0.1-0.1,0.3-0.3,0.6-0.4c0-0.1,0.1-0.1,0.2-0.2c0.1-0.2,0.2-0.3,0.4-0.4
					c0-0.1,0.1-0.2,0.2-0.3c-0.1-0.1-0.1-0.2-0.2-0.3c-0.3-0.5-0.5-1.2-0.9-2.1c-0.5-1.4-1.1-2.6-1.6-3.8
					C294.5,308.5,294.9,308.6,295.2,308.9 M294.4,324.4c0-0.2,0-0.3,0.2-0.4c0.2-0.1,0.3,0,0.4,0.3l0.5,1l0.3,0.6
					c0.2,0.2,0.4,0.3,0.6,0.5l1.5,1c0.2,0.2,0.3,0.4,0.3,0.5c-0.2,0.1-0.4,0.1-0.8,0c-0.5-0.2-1-0.4-1.6-0.8
					c-0.3-0.3-0.5-0.5-0.7-0.8c-0.1-0.2-0.3-0.5-0.5-0.9C294.5,324.9,294.4,324.6,294.4,324.4 M290.7,295.9c0.1,0.1,0.2,0.3,0.2,0.5
					c0,0.3,0.1,0.5,0.1,0.6l0.2,0.3c0,0.1,0,0.2,0,0.3l0.2,0.2c0,0.1,0,0.2,0,0.4c0,0.1-0.1,0.2-0.1,0.2c-0.1,0.1-0.2,0.1-0.5,0.1
					c-0.2-0.3-0.4-0.7-0.5-1.1c-0.1-0.2-0.1-0.3-0.1-0.5c0-0.2,0-0.5,0.1-0.9l0.1-0.2C290.4,295.9,290.5,295.9,290.7,295.9
					 M291.6,295.3c0-0.1,0.1-0.1,0.1-0.2c0,0,0.1,0,0.2,0c0,0.1,0.1,0.2,0.2,0.3c0.1,0.1,0.1,0.2,0.1,0.3l0.2,0.3c0,0,0,0.2,0.1,0.3
					c0,0.1,0,0.2,0.1,0.3c0,0,0.1,0.1,0.2,0.1c0.1,0.1,0.1,0.1,0.2,0.2c0.1,0.1,0.1,0.2,0.1,0.4c-0.1,0.3-0.2,0.4-0.3,0.5
					c-0.1,0-0.3-0.1-0.4-0.3l-0.3-0.5c-0.1-0.1-0.1-0.2-0.1-0.3c0-0.2,0-0.3,0-0.4c0,0,0-0.1-0.2-0.3
					C291.5,295.8,291.5,295.6,291.6,295.3 M294.3,296.8c0-0.2,0-0.3-0.1-0.4c-0.1-0.1-0.1-0.2-0.1-0.2c0-0.1,0-0.1,0-0.2
					c0-0.2,0.1-0.3,0.2-0.3c0.1,0,0.2,0,0.3,0.1c0.2,0.2,0.3,0.4,0.3,0.4c0.1,0.2,0.1,0.4,0.1,0.6c0,0.2,0,0.4,0,0.6
					c0,0.2,0,0.4,0,0.7c0,0.3-0.2,0.5-0.4,0.5c-0.1,0-0.2-0.1-0.2-0.2c0-0.1-0.1-0.2-0.1-0.3C294.3,297.5,294.3,297.1,294.3,296.8
					 M292.7,300.8c0.1-0.1,0.1-0.1,0.2-0.1c0.1,0,0.2,0.1,0.2,0.2c0.1,0.1,0.1,0.2,0.1,0.2c0,0.1,0,0.2,0,0.3c0,0,0,0.1,0.1,0.2
					l0.3,0.3c0.2,0.2,0.2,0.3,0.3,0.4c0.1,0.2,0,0.3-0.1,0.4l-0.7-0.2c-0.1,0-0.2-0.1-0.2-0.1l-0.1-0.2c-0.1-0.2-0.1-0.3-0.2-0.4
					c-0.1-0.3-0.1-0.6,0-0.9C292.6,300.9,292.6,300.9,292.7,300.8 M295.7,301.1l0.2,0.4c0,0.1,0.1,0.2,0.2,0.4c0,0,0.1,0.1,0.1,0.2
					c0.1,0.1,0.1,0.2,0,0.4l-0.2,0.4c-0.2,0-0.3,0-0.5-0.1c-0.1-0.1-0.2-0.1-0.3-0.2c0-0.2,0-0.3,0-0.3c0-0.1-0.1-0.2-0.2-0.4
					c-0.1-0.2-0.1-0.5,0-0.7c0-0.1,0.1-0.2,0.1-0.2c0.1-0.1,0.2-0.1,0.2-0.1C295.5,300.8,295.6,300.9,295.7,301.1 M298,302.2
					c0,0.1-0.1,0.2-0.1,0.2l-0.3,0.1c-0.1-0.1-0.1-0.2-0.1-0.2l0-0.2l0-0.2c0.1-0.2,0.1-0.3,0.1-0.4c0.1-0.1,0.2-0.1,0.3-0.1
					c0.1,0.1,0.1,0.2,0.1,0.3v0.1l0.1,0.1C298.1,302.1,298,302.1,298,302.2 M211.4,383.1c-0.1-0.1-0.3-0.2-0.5-0.3
					c-0.4-0.2-0.9-0.3-1.3-0.4c0,0,0,0.1-0.1,0.1c-0.1,0-0.1,0.1-0.2,0.2c0,0.1,0,0.2,0.1,0.3c0.1,0.1,0.3,0.3,0.5,0.4
					c0.3,0.1,0.5,0.2,0.6,0.3c0.1,0.1,0.3,0.3,0.4,0.5c0.3,0.3,0.6,0.4,1,0.4c0,0,0-0.1,0-0.1c0,0,0.1-0.1,0.1-0.1
					c0.1-0.1,0-0.2-0.1-0.4c-0.1-0.2-0.2-0.3-0.3-0.3C211.6,383.4,211.5,383.3,211.4,383.1 M207.6,383.5c-0.2-0.1-0.4-0.2-0.4-0.2
					c-0.2-0.2-0.3-0.2-0.4-0.2c-0.1,0-0.1,0-0.2,0.1c-0.1,0.2-0.2,0.3-0.1,0.6c0.1,0.2,0.2,0.3,0.4,0.5l0.5,0.4
					c0.1,0.1,0.2,0.2,0.4,0.4c0.2,0.2,0.4,0.2,0.7,0.2c0.1-0.2,0.2-0.4,0.2-0.5c0-0.2,0-0.4-0.2-0.5c-0.1-0.1-0.2-0.1-0.3-0.2
					c-0.1-0.1-0.2-0.2-0.2-0.3C207.9,383.7,207.8,383.6,207.6,383.5 M203.7,385.4l-0.2-0.2c-0.2-0.1-0.3-0.1-0.4-0.2l-0.2-0.2
					c-0.1,0-0.2,0-0.3,0c-0.1,0.1-0.2,0.1-0.2,0.2c-0.1,0.2,0,0.4,0.1,0.6c0.1,0.2,0.3,0.3,0.5,0.3c0,0.1,0.1,0.2,0.2,0.4l0.8,0.4
					c0.2,0,0.3,0,0.5-0.1c0-0.2-0.1-0.4-0.3-0.6C204,385.6,203.8,385.5,203.7,385.4 M202.5,378.5c-0.1,0-0.2,0-0.3,0.2
					c-0.1,0.1-0.1,0.2-0.1,0.4c0,0.2,0,0.4,0,0.5c0,0.2,0.1,0.3,0.3,0.5c0.1,0.1,0.2,0.2,0.4,0.4c0.1,0.2,0.2,0.3,0.4,0.5
					c0.1,0.2,0.2,0.3,0.3,0.3c0.1,0,0.2-0.1,0.2-0.3c0-0.1,0-0.2-0.1-0.4c-0.1-0.2-0.2-0.5-0.4-0.9l-0.3-0.6l-0.1-0.3
					C202.7,378.7,202.6,378.5,202.5,378.5 M199.7,378.5c-0.2-0.2-0.3-0.4-0.4-0.5c-0.1-0.3-0.1-0.4-0.2-0.5c0-0.1-0.1-0.2-0.2-0.2
					c-0.1-0.1-0.2-0.1-0.3,0c-0.1,0-0.1,0.1-0.2,0.3c-0.1,0.3-0.1,0.6,0,0.7c0,0.1,0.2,0.3,0.4,0.5l1,1c0.3,0.3,0.5,0.4,0.7,0.4
					c0.1,0,0.2,0,0.3-0.1c0.1-0.1,0.2-0.2,0.1-0.4c-0.1-0.1-0.1-0.3-0.3-0.4L199.7,378.5 M193.5,380.8l0.7,0.4
					c0.1,0.1,0.3,0.2,0.5,0.3l0.5,0.2c0.2,0.1,0.5,0.1,0.7,0c-0.2-0.4-0.4-0.6-0.7-0.8c-0.3-0.1-0.5-0.2-0.6-0.3l-0.4-0.2
					c-0.2-0.1-0.3-0.2-0.4-0.2c-0.1-0.1-0.2-0.1-0.3-0.1c-0.1,0-0.2,0-0.3,0.1c-0.1,0.1-0.1,0.3,0,0.4
					C193.3,380.6,193.4,380.7,193.5,380.8 M193,374.5c0,0.2,0.1,0.4,0.3,0.7c0.1,0.1,0.3,0.3,0.5,0.6c0.1,0.1,0.2,0.3,0.3,0.5
					c0.1,0.2,0.3,0.4,0.7,0.6c0.3,0.2,0.5,0.3,0.7,0.3c-0.1-0.1-0.2-0.3-0.2-0.5c-0.1-0.3-0.1-0.5-0.2-0.6c0-0.1-0.1-0.1-0.2-0.2
					c-0.1-0.1-0.1-0.2-0.2-0.2c-0.1-0.2-0.1-0.4-0.2-0.5c-0.2-0.1-0.3-0.2-0.3-0.3l-0.1-0.2c-0.1-0.2-0.2-0.3-0.5-0.4
					C193.3,374.3,193.1,374.3,193,374.5 M189.3,370.8c0,0-0.1,0.1-0.1,0.1c0,0-0.1-0.1-0.1-0.1l-0.1,0c-0.1,0-0.2,0-0.2,0.2
					c0,0.1,0,0.2,0,0.3c0.1,0,0.2,0,0.3,0c0,0.2,0.1,0.5,0.2,0.8c0.2,0.5,0.4,1,0.7,1.5l0.2,0.2c0.1,0,0.2,0.1,0.2,0.1
					c0.2,0,0.4,0,0.5-0.1c0.1-0.1,0.1-0.3,0-0.5c-0.1-0.2-0.2-0.3-0.3-0.4c-0.1-0.1-0.2-0.3-0.3-0.6c-0.1-0.3-0.2-0.5-0.2-0.6
					l-0.1-0.3c0-0.2,0-0.3,0-0.4c0-0.1-0.1-0.2-0.3-0.2S189.4,370.8,189.3,370.8 M193.6,366.2c-0.1-0.1-0.2-0.2-0.3-0.4
					c-0.2-0.1-0.3-0.2-0.4-0.2c-0.2,0-0.3,0.2-0.3,0.5c0,0.2,0,0.3,0.1,0.4c0.1,0.1,0.2,0.2,0.3,0.4s0.3,0.3,0.3,0.4l0.1,0.2
					c0,0,0.1,0.1,0.2,0.3c0.1,0.1,0.1,0.2,0.1,0.3c0.3,0.2,0.5,0.2,0.8,0c-0.1-0.1-0.1-0.2-0.1-0.3c0-0.2,0-0.3-0.1-0.4
					c-0.1-0.1-0.1-0.2-0.1-0.2c0-0.1-0.1-0.2-0.1-0.3c0-0.1-0.1-0.2-0.2-0.2c-0.1-0.1-0.2-0.2-0.2-0.2L193.6,366.2 M185.9,367.9
					c0-0.1-0.1-0.1-0.2-0.2c-0.2-0.1-0.4,0-0.6,0.2c-0.1,0.2-0.1,0.4-0.1,0.6l0.1,0.4l0.3,0.7c0.1,0.3,0.2,0.5,0.3,0.5
					c0.2,0.2,0.4,0.2,0.5,0.2c0.1,0,0.2-0.1,0.2-0.2c0.1-0.1,0.1-0.2,0-0.3c-0.1-0.2-0.2-0.3-0.2-0.3l0-0.2c0-0.1-0.1-0.3-0.2-0.4
					c-0.1-0.2-0.2-0.3-0.3-0.4c-0.1-0.1-0.1-0.2-0.1-0.2C185.9,368.1,186,368,185.9,367.9 M186.9,361.8c0.2,0.3,0.3,0.5,0.3,0.6
					c0.1,0.1,0.1,0.2,0.1,0.3c0.1,0.1,0.2,0.1,0.3,0.1s0.2,0,0.3,0c0,0,0-0.1,0-0.2c0-0.1-0.1-0.2-0.1-0.2c0-0.1,0-0.2,0.1-0.3
					c0-0.2-0.1-0.4-0.2-0.7c-0.1-0.3-0.3-0.5-0.4-0.8l-0.1-0.2c-0.1-0.1-0.1-0.1-0.2-0.1c-0.2,0-0.3,0.1-0.3,0.3
					c0,0.2-0.1,0.4,0,0.6C186.7,361.4,186.8,361.6,186.9,361.8 M183.6,359.6c-0.1,0-0.2,0.1-0.2,0.2l0,0.3l0,1
					c0,0.1,0.1,0.2,0.3,0.4c0.1,0.1,0.1,0.1,0.1,0.2c0.1,0,0.2,0.1,0.4,0.1c0,0,0-0.1,0.1-0.2c0.1-0.1,0.1-0.2,0.1-0.2
					c0-0.1,0-0.2-0.1-0.3c-0.1-0.2-0.2-0.3-0.2-0.3c0-0.1,0-0.2,0-0.5c0-0.2,0-0.4-0.1-0.5C183.8,359.6,183.7,359.6,183.6,359.6
					 M180.2,359.4c0-0.2,0-0.4-0.1-0.5c-0.1-0.2-0.2-0.3-0.4-0.2c-0.1,0-0.2,0.1-0.2,0.2c0,0.1,0,0.2,0,0.3v0.9c0,0.3,0,0.6,0,0.7
					c0.1,0.3,0.2,0.4,0.4,0.5c0.1,0.1,0.2,0.1,0.4,0.1c0.1-0.1,0.1-0.2,0.2-0.3c0.1-0.2,0.1-0.3,0-0.4l-0.1-0.2c0,0,0-0.1,0-0.3
					L180.2,359.4 M180.2,351.9c0,0.1,0,0.2,0,0.3l-0.2,0.3c0,0.1,0,0.3,0,0.6c0,0.1-0.1,0.2-0.2,0.3c-0.1,0.1-0.1,0.3-0.1,0.4l0,1.4
					c0.2,0,0.3,0,0.5-0.1c0.1-0.1,0.2-0.2,0.3-0.3c0-0.1,0-0.2,0-0.5c0-0.2,0-0.4,0.1-0.5c0.1-0.1,0.2-0.2,0.2-0.3
					c0-0.1,0-0.2,0-0.3c0-0.2,0-0.2,0-0.3c0.1-0.2,0.2-0.4,0.2-0.5c0.1-0.3,0.1-0.5,0.1-0.7c-0.1-0.2-0.2-0.2-0.4-0.2
					C180.4,351.7,180.3,351.8,180.2,351.9 M183,351.2c0,0,0-0.1-0.1-0.2c-0.1,0-0.3,0-0.5,0.2c-0.1,0-0.1,0.1-0.2,0.2l0,0.2
					c-0.1,0.6,0,1.1,0.1,1.4l0.4,0.1c0,0,0-0.1,0.1-0.2c0.1-0.1,0.1-0.1,0.1-0.2c0,0,0-0.1,0-0.3c0-0.3,0-0.5,0-0.6
					c-0.1-0.1-0.1-0.3,0-0.4L183,351.2 M186.6,350.7c0.1-0.1,0-0.3-0.1-0.4c0-0.1-0.1-0.2-0.1-0.2c-0.1-0.1-0.2-0.1-0.3-0.1
					c-0.1,0.2-0.1,0.4-0.3,0.5l-0.1,0.2l-0.1,0.4c0,0.4,0,0.6,0,0.8c0,0,0.1,0.1,0.2,0.3c0.1,0.1,0.1,0.2,0.1,0.3l0.5,0.1
					c0.1-0.2,0.1-0.3,0.1-0.4c0-0.1,0-0.3-0.1-0.5c-0.1-0.2-0.1-0.4-0.1-0.5C186.5,350.9,186.5,350.8,186.6,350.7 M254.9,390
					c0,0.1,0,0.2,0.1,0.3c0.1,0.3,0.2,0.5,0.2,0.5c0.1,0.2,0.1,0.4,0.2,0.6c0,0.1,0,0.3,0,0.6l0.2,0.5c0.1,0.3,0.2,0.5,0.2,0.8
					l0.4,0.1c0-0.1,0.1-0.3,0.2-0.5c0.1-0.2,0.1-0.4,0.1-0.5c-0.1-0.2-0.1-0.4-0.1-0.5l-0.1-0.5c0-0.4-0.1-0.7-0.3-1
					c-0.2-0.3-0.4-0.6-0.7-0.7c0,0,0,0.1-0.1,0.1l-0.1,0C255,389.7,254.9,389.8,254.9,390 M253.5,388.2l-0.1-0.4
					c0-0.3,0-0.5,0.1-0.6c-0.1-0.1-0.3-0.2-0.5-0.2c-0.1,0-0.2,0.1-0.3,0.1c-0.1,0.1-0.1,0.2-0.2,0.4c-0.1,0.3-0.1,0.5,0,0.8
					l0.3,0.9l0.2,0.3c0.2,0.3,0.3,0.4,0.5,0.4c0.1,0,0.2,0,0.3-0.1s0.1-0.1,0.2-0.2c0-0.1,0-0.3-0.1-0.6c0-0.2-0.1-0.4-0.1-0.5
					C253.6,388.4,253.5,388.3,253.5,388.2 M255.8,382.9c0-0.3-0.1-0.5-0.1-0.6c-0.1-0.3-0.2-0.4-0.4-0.4c0,0,0,0,0,0.1
					c0,0-0.1,0-0.1,0c-0.1,0-0.2,0.1-0.3,0.2c0,0.1-0.1,0.2-0.1,0.4c0,0.4,0,0.6,0.1,0.8c0,0.1,0.1,0.2,0.2,0.4c0,0,0,0.2,0,0.5
					c0,0.4,0,0.6,0,0.6c0,0.1-0.1,0.2-0.1,0.4c-0.1,0.2-0.1,0.3,0.1,0.4c0,0,0.1,0,0.3,0c0.1,0,0.2,0,0.2,0c0,0,0.1-0.1,0.1-0.2
					l0.2-0.4c0.1-0.2,0.1-0.4,0.1-0.6c0.1-0.5,0-0.8-0.1-1.1L255.8,382.9 M253.2,379.2C253.2,379.2,253.2,379.2,253.2,379.2
					L253.2,379.2c-0.2,0-0.2,0-0.3,0.1l-0.1,0.2c-0.1,0.3-0.1,0.6,0,0.7l0.2,0.3c0.1,0.2,0.1,0.4,0,0.7c0,0.2,0.1,0.4,0.3,0.6
					c0,0,0.2,0.1,0.4,0.2c0.2,0.1,0.4,0.1,0.5,0c-0.1,0-0.1-0.1-0.1-0.2c0-0.1,0-0.2,0-0.2c0,0-0.1-0.1-0.2-0.3
					c-0.1-0.2-0.1-0.5-0.1-0.9c0-0.2,0-0.4-0.1-0.5l-0.2-0.3C253.5,379.3,253.3,379.2,253.2,379.2 M250.3,380c0,0,0-0.1,0.1-0.1
					c0.1-0.1,0.1-0.1,0.1-0.1c0-0.1,0-0.2-0.1-0.2c-0.1-0.1-0.1-0.1-0.2-0.1c0,0-0.1,0.1-0.1,0.1c-0.2,0-0.3,0.1-0.4,0.3
					c-0.1,0.1-0.2,0.3-0.2,0.5c0,0.1,0.1,0.2,0.1,0.3c0.1,0.1,0.1,0.2,0.1,0.3c0,0.1,0,0.2,0,0.4c0,0.2,0.1,0.4,0.3,0.6
					c0.1,0.2,0.2,0.3,0.3,0.3c0.2,0.2,0.4,0.2,0.6,0.2c0.1-0.2,0.1-0.4,0.1-0.7c-0.2-0.3-0.3-0.5-0.3-0.7c0-0.3,0-0.6-0.1-0.7
					C250.4,380.1,250.3,380,250.3,380 M251.4,371.7c0,0.1,0,0.1-0.1,0.1c-0.2,0-0.2,0.2-0.2,0.4c0,0.2,0,0.4,0,0.6
					c0,0.2,0,0.3,0,0.4l0.2,0.3c0,0,0.1,0.2,0.1,0.6c0,0.3,0.1,0.4,0.3,0.5c0.2-0.1,0.3-0.4,0.4-0.9c0-0.2,0-0.3,0-0.4
					c-0.1-0.2-0.2-0.4-0.2-0.5c0-0.1-0.1-0.2-0.1-0.4v-0.4c0-0.1-0.1-0.2-0.2-0.3C251.6,371.7,251.5,371.7,251.4,371.7 M248.4,371.4
					c0-0.1,0-0.2,0.1-0.3c0.1-0.1,0.1-0.2,0.1-0.3c0-0.1-0.2-0.2-0.3-0.2c-0.2,0-0.4,0.1-0.5,0.3c-0.1,0.2-0.2,0.3-0.2,0.5l0.1,0.4
					l0.2,0.5c0,0,0.1,0.2,0.3,0.4c0.1,0.2,0.2,0.3,0.2,0.4c0.1,0.2,0.1,0.3,0.1,0.3c0.1,0.1,0.3,0.2,0.5,0.2
					c0.2-0.2,0.2-0.4,0.2-0.7c0-0.2-0.1-0.4-0.3-0.6c-0.1-0.1-0.1-0.2-0.2-0.3l-0.1-0.2C248.5,371.7,248.4,371.5,248.4,371.4
					 M218.5,381.9c0-0.1-0.1-0.1-0.2-0.2c-0.1,0-0.1-0.1-0.2-0.1c-0.2,0.1-0.4,0.2-0.5,0.3c-0.1,0.1-0.1,0.2-0.1,0.3l0.2,0.3
					l0.1,0.4c0,0.1,0.1,0.2,0.2,0.3c0,0,0.1,0.1,0.1,0.2c0.1,0.1,0.1,0.2,0.2,0.3c0.2,0.2,0.5,0.4,0.8,0.5c0.2,0.1,0.4,0.1,0.5,0.1
					c0.3,0,0.4-0.2,0.4-0.4c0-0.2-0.1-0.3-0.3-0.5c-0.3-0.2-0.5-0.3-0.5-0.3c-0.1-0.1-0.2-0.2-0.2-0.3c-0.1-0.2-0.2-0.3-0.2-0.4
					c-0.1-0.2-0.2-0.3-0.2-0.4C218.6,382.2,218.6,382,218.5,381.9 M223.3,382.2c0-0.2,0-0.3,0.1-0.4c-0.1-0.1-0.2-0.2-0.3-0.2
					c-0.1,0-0.2,0-0.3,0.1c-0.3,0.2-0.4,0.3-0.4,0.6c0,0.1,0,0.3,0.1,0.5l0.2,0.5c0.1,0.2,0.2,0.4,0.2,0.4l0.1,0.2
					c0.1,0.1,0.1,0.1,0.1,0.2c0,0,0,0.1,0,0.2c0,0.1,0,0.2,0,0.2l0.6,0c0.1-0.1,0.2-0.2,0.2-0.4c0-0.1,0-0.2,0-0.3
					c0-0.1-0.1-0.2-0.2-0.3l-0.4-0.5C223.3,382.4,223.3,382.3,223.3,382.2 M228.9,381.1c-0.1-0.1-0.2-0.1-0.3,0
					c-0.1,0.1-0.1,0.2-0.2,0.3c0,0.2-0.1,0.5-0.1,0.9c0,0.1,0,0.2,0.1,0.3c0,0.1,0.1,0.2,0.3,0.3c0.1,0.1,0.2,0.2,0.2,0.3l0,0.2
					c0.1,0.1,0.2,0.1,0.3,0.1c0.1,0,0.2,0,0.3,0.1c0.2-0.3,0.3-0.6,0.1-0.9c-0.2-0.2-0.3-0.3-0.3-0.4c0-0.1-0.1-0.2-0.1-0.4
					l-0.1-0.5C229,381.3,229,381.2,228.9,381.1 M235.6,379.6c0,0.1,0,0.3,0,0.5c0,0,0,0.1-0.1,0.3c0,0.1,0,0.2,0,0.3
					c0,0.1,0.1,0.3,0.3,0.6c0.2,0.2,0.3,0.4,0.3,0.5v0.3c0.1,0.1,0.1,0.2,0.3,0.2c0,0,0.2,0,0.4,0c0.3-0.4,0.3-0.9,0.1-1.3
					c-0.2-0.3-0.3-0.5-0.4-0.6c0-0.1,0-0.2,0-0.4c0-0.2,0-0.3,0-0.4c0-0.1-0.1-0.3-0.2-0.4c-0.1-0.1-0.2-0.1-0.3-0.1
					C235.7,379.2,235.6,379.4,235.6,379.6 M239.6,377.4l-0.1-0.2c-0.1,0-0.1,0-0.2,0c-0.1,0-0.1,0.1-0.2,0.1
					c-0.1,0.1-0.1,0.2-0.2,0.4c-0.1,0.5-0.1,0.9-0.1,1.1c0,0.2,0.1,0.4,0.2,0.6c0.1,0.3,0.2,0.5,0.3,0.6c0.1,0.2,0.1,0.3,0.2,0.4
					c0.1,0.1,0.2,0.1,0.5,0.2c0.1-0.2,0.2-0.3,0.2-0.4c0.1-0.2,0.1-0.3,0.1-0.4c0-0.2-0.1-0.3-0.1-0.4l-0.2-0.4l-0.2-0.4
					c0-0.3-0.1-0.4-0.1-0.5C239.7,377.7,239.6,377.5,239.6,377.4 M242.1,373.9c-0.1-0.2-0.1-0.3-0.2-0.3l-0.2-0.2
					c0-0.1-0.1-0.2-0.1-0.3l0-0.3c-0.1-0.3-0.2-0.4-0.4-0.3c0,0-0.1,0.1-0.2,0.1c-0.1,0-0.2,0.1-0.2,0.3c-0.1,0.7,0.1,1.4,0.5,1.9
					c0.1,0.1,0.2,0.2,0.3,0.4c0.1,0.2,0.2,0.3,0.2,0.4l0.4,0.1c0-0.1,0-0.1,0.1-0.2c0,0,0.1-0.1,0.1-0.2c0-0.1,0-0.3-0.1-0.4
					L242.1,373.9 M238.1,363.8c-0.1-0.2-0.2-0.3-0.2-0.4c-0.1-0.2-0.2-0.4-0.3-0.4c-0.1,0-0.2,0-0.3,0.1c-0.1,0.1-0.1,0.2-0.1,0.3
					c0,0.3,0,0.6,0.1,0.9c0.1,0.2,0.3,0.5,0.7,0.9c0.4,0.4,0.6,0.6,0.8,0.8c0.2,0.3,0.3,0.5,0.4,0.5c0.2,0.2,0.4,0.3,0.6,0.2
					c-0.1-0.2-0.1-0.5-0.1-0.7c0-0.2,0-0.3,0-0.4c-0.1-0.2-0.2-0.5-0.5-0.8c-0.3-0.2-0.4-0.4-0.5-0.5
					C238.2,364.1,238.1,364,238.1,363.8 M236,368.4c0-0.1,0-0.3-0.1-0.4c-0.3-0.2-0.4-0.4-0.5-0.6c-0.1-0.2-0.1-0.3-0.2-0.3
					c-0.2-0.1-0.3-0.2-0.3-0.2l-0.1-0.2c0,0-0.1-0.1-0.2-0.3c-0.2-0.2-0.3-0.3-0.5-0.3c-0.2,0-0.3,0.1-0.4,0.3
					c-0.1,0.2,0,0.3,0.1,0.6c0.1,0.2,0.3,0.5,0.5,1l0.2,0.3c0.1,0.1,0.2,0.1,0.3,0.2c0.1,0.1,0.1,0.2,0.2,0.3c0.1,0,0.2,0.1,0.3,0.1
					c0.2,0,0.3,0,0.4,0C235.9,368.7,236,368.6,236,368.4 M230,369.4l-0.1-0.4c-0.1-0.2-0.2-0.3-0.4-0.3c0,0,0,0.1-0.1,0.1
					c-0.2,0-0.3,0.2-0.3,0.5c0,0.2,0,0.4,0,0.4c0,0.1,0.1,0.2,0.2,0.3c0.1,0.1,0.2,0.2,0.4,0.3c0.2,0.1,0.3,0.3,0.3,0.4
					c0.1,0.1,0.1,0.2,0.2,0.4c0.1,0.2,0.3,0.3,0.5,0.3c0.2,0.1,0.4,0.1,0.6,0c0.1-0.1,0.2-0.1,0.2-0.2c0-0.1,0-0.2-0.1-0.3
					c-0.1,0-0.2-0.1-0.2-0.1c-0.1-0.1-0.1-0.2-0.2-0.3c-0.1-0.2-0.2-0.4-0.4-0.6C230.2,369.7,230,369.5,230,369.4 M224.8,373.1
					c-0.2-0.2-0.3-0.3-0.5-0.3c-0.2,0-0.3,0.1-0.3,0.3c-0.1,0.2,0,0.5,0.2,0.8c0.1,0.2,0.3,0.4,0.6,0.6l0.8,0.8
					c0.2,0.2,0.3,0.3,0.4,0.3c0.2,0.1,0.3,0.1,0.3,0c0.1,0,0.2-0.1,0.3-0.2c0.1-0.2,0.1-0.3,0-0.5c-0.1-0.2-0.2-0.3-0.3-0.4
					C225.7,374.3,225.2,373.7,224.8,373.1 M220,374.3c0,0,0,0.1,0,0.2l0.3,0.8c0.1,0.2,0.1,0.3,0.2,0.5c0.1,0.1,0.3,0.3,0.6,0.6
					l0.3,0.2c0.1,0.1,0.2,0.2,0.3,0.2c0.1,0,0.2,0,0.3,0c0.1,0,0.2-0.1,0.3-0.1s0.1-0.2,0.1-0.3c0-0.1,0-0.2-0.1-0.3
					c-0.1-0.1-0.2-0.1-0.2-0.2c-0.1-0.2-0.1-0.3-0.2-0.3c-0.2-0.1-0.3-0.1-0.3-0.2c-0.1-0.1-0.2-0.2-0.3-0.3
					c-0.1-0.2-0.2-0.3-0.2-0.4c-0.2-0.4-0.5-0.6-0.8-0.5C220.1,374.2,220,374.2,220,374.3 M216.4,370.5c0.1,0.1,0.2,0.2,0.3,0.4
					c0,0,0.2,0.3,0.5,0.9c0.2,0.3,0.4,0.6,0.6,0.7c0.2,0.2,0.4,0.2,0.6,0.1c0-0.2-0.1-0.5-0.3-0.9c-0.3-0.6-0.6-1-0.8-1.2
					c-0.3-0.4-0.4-0.6-0.5-0.8c-0.1-0.4-0.1-0.7,0.2-0.9c-0.1-0.1-0.1-0.2-0.3-0.2c-0.1,0-0.2,0-0.3,0.1c-0.2,0.2-0.2,0.4-0.3,0.7
					c0,0.3,0,0.6,0.1,0.9C216.2,370.2,216.2,370.4,216.4,370.5 M217.9,362.2c0-0.1,0-0.2,0-0.2s-0.1-0.2-0.1-0.2
					c-0.1-0.1-0.2-0.1-0.3,0l-0.2,0.2c-0.1,0.1-0.2,0.2-0.2,0.3c0,0-0.1,0.2-0.1,0.4c0,0.2,0,0.4,0,0.6c0,0.1,0.1,0.3,0.2,0.5
					l0.1,0.5c0,0.1,0.1,0.2,0.2,0.5c0,0.2,0.1,0.4,0.1,0.7c0.1,0.3,0.2,0.5,0.3,0.6c0.4-0.3,0.5-0.7,0.4-1.2
					c-0.1-0.3-0.2-0.5-0.2-0.7l-0.1-0.5c0-0.1-0.1-0.2-0.2-0.4c-0.1-0.2-0.1-0.3-0.1-0.4C217.8,362.5,217.9,362.3,217.9,362.2
					 M221.8,362.3c-0.1-0.1-0.1-0.2-0.2-0.2c-0.2-0.1-0.3,0-0.5,0.3c-0.1,0.1-0.1,0.3-0.1,0.5c0,0,0,0.2,0.1,0.3
					c0.1,0.1,0.1,0.3,0.2,0.6l0.6,1.8l0.4,0.1c0.2-0.3,0.3-0.6,0.2-1c0-0.1-0.1-0.4-0.2-0.7c-0.1-0.3-0.2-0.5-0.2-0.7
					c0-0.2-0.1-0.3-0.1-0.4c-0.1-0.1-0.2-0.3-0.2-0.3C221.9,362.4,221.8,362.3,221.8,362.3 M226.4,360.1c0,0-0.1,0-0.3,0.1
					c-0.2,0.1-0.3,0.3-0.3,0.5c0,0.2,0.1,0.4,0.3,0.6s0.2,0.5,0.2,0.6c0,0.2,0,0.4,0.1,0.5c0.1,0.1,0.3,0.1,0.5,0.1l0.2-0.6
					c0.1-0.2,0.1-0.3,0.1-0.4c0-0.1-0.1-0.3-0.2-0.5c-0.1-0.2-0.2-0.3-0.1-0.5l0-0.1c0-0.1,0-0.1-0.1-0.2L226.4,360.1 M229.1,356.5
					c0-0.2,0-0.3-0.1-0.4c-0.1-0.2-0.2-0.2-0.4-0.2c-0.2,0-0.2,0.1-0.3,0.3c0,0.1,0,0.3,0,0.5c0,0,0,0.2,0,0.4c0,0.2,0,0.3,0,0.4
					l0.2,0.5c0,0,0.1,0.2,0.1,0.4c0.1,0.2,0.1,0.3,0.2,0.3c0.3-0.4,0.4-0.8,0.4-1c0-0.1-0.1-0.2-0.1-0.4c-0.1-0.2-0.1-0.3-0.1-0.4
					L229.1,356.5 M228.1,348.1c-0.1-0.1-0.2-0.1-0.2,0c-0.1,0-0.2,0.2-0.2,0.3c-0.1,0.2,0,0.4,0,0.5c0,0.1,0.1,0.2,0.2,0.3l0.4,0.7
					c0.3,0.4,0.4,0.7,0.4,0.9c0.1,0.3,0.1,0.4,0.2,0.4s0.2,0,0.3-0.1c0.1,0,0.1-0.1,0.2-0.3c0-0.2,0-0.3,0-0.4l-0.2-0.4
					c0-0.2-0.1-0.4-0.1-0.5c0-0.1-0.2-0.4-0.5-0.8c-0.1-0.1-0.2-0.3-0.2-0.4l-0.1-0.3C228.2,348.2,228.2,348.1,228.1,348.1
					 M221.2,350.3c-0.1,0-0.1,0.1-0.2,0.1c-0.1,0.1-0.1,0.2-0.2,0.4c0,0.2,0,0.3,0,0.4c0,0,0.1,0.1,0.3,0.3c0.1,0.1,0.1,0.2,0.2,0.5
					c0,0,0.1,0.1,0.3,0.3c0.2,0.1,0.3,0.3,0.5,0.6c0.1,0.3,0.3,0.4,0.4,0.5c0.1,0.1,0.2,0.1,0.3,0.1c0.1,0,0.2-0.1,0.3-0.2
					c0.1-0.1,0.1-0.3,0-0.7c-0.2-0.4-0.3-0.6-0.4-0.8l-0.8-0.9c-0.2-0.2-0.3-0.3-0.4-0.5c-0.1-0.2-0.1-0.3-0.2-0.3
					C221.4,350.3,221.3,350.3,221.2,350.3 M217.2,351.5c-0.2-0.2-0.3-0.4-0.4-0.4c-0.2,0-0.3,0.1-0.3,0.4c-0.1,0.4,0.1,0.7,0.4,0.9
					c0.1,0.1,0.2,0.1,0.4,0.2c0.1,0,0.2,0.2,0.3,0.3c0.1,0.1,0.3,0.2,0.4,0.2c0.2,0,0.2,0.1,0.2,0.2h0.3c0-0.1,0-0.2,0-0.3
					c0.1-0.1,0.1-0.2,0-0.3c0-0.1-0.1-0.1-0.1-0.2L217.2,351.5 M214.3,352.9c0-0.2-0.1-0.3-0.1-0.3c-0.1-0.1-0.2-0.1-0.3-0.1
					c-0.1,0-0.2,0.1-0.3,0.1c-0.1,0.1-0.2,0.2-0.2,0.2c0,0.1,0,0.3,0.2,0.6c0.1,0.1,0.1,0.2,0.1,0.4c0,0.1,0,0.2,0,0.4
					c0,0.1,0,0.2,0.1,0.3c0.1,0.1,0.2,0.1,0.4,0.2v0.1h0.3c0,0,0-0.1,0.1-0.2c0.1-0.1,0.1-0.2,0.1-0.2c0-0.1,0-0.2-0.1-0.3
					c-0.1-0.1-0.1-0.1-0.1-0.2c0,0,0-0.1,0-0.2c0-0.3,0-0.5,0-0.6L214.3,352.9 M213.5,344.9c0,0.1-0.1,0.2-0.1,0.3v1.8
					c0,0.6,0.1,1,0.2,1.3c0.1,0.1,0.2,0,0.3-0.1c0.1,0,0.1-0.1,0.1-0.3c0.1-0.4,0.1-1,0.1-1.7v-1c0-0.2,0-0.3-0.1-0.4
					c-0.1-0.2-0.2-0.2-0.3-0.2C213.6,344.7,213.6,344.8,213.5,344.9 M217.8,343.5c0.1-0.3,0-0.4-0.1-0.5c-0.2-0.1-0.4,0-0.6,0.3
					c-0.1,0.1-0.1,0.3-0.2,0.7l0,0.7c0,0.3,0.1,0.4,0.1,0.5c0.1,0.2,0.1,0.2,0.1,0.2c0,0.1-0.1,0.2-0.2,0.3c0.1,0.2,0.3,0.2,0.5,0.2
					c0.2-0.1,0.3-0.2,0.5-0.4c0.1-0.1,0.1-0.2,0.1-0.3c-0.1-0.1-0.1-0.2-0.1-0.3c-0.1-0.1-0.1-0.4-0.2-0.8
					C217.8,343.9,217.8,343.7,217.8,343.5 M221.8,342.4l-0.1-0.2l-0.2-0.5c0-0.1-0.1-0.2-0.1-0.2c-0.1-0.1-0.1-0.1-0.2-0.1
					c-0.1,0-0.1,0.1-0.2,0.3c-0.1,0.2-0.1,0.5-0.1,0.7c0,0.3,0,0.4,0.1,0.6l0.1,0.2c0,0,0,0.2,0,0.4c0,0.2,0,0.3,0.1,0.4
					c0.1,0.2,0.2,0.2,0.3,0.2c0.1,0,0.2-0.1,0.3-0.2c0-0.1,0-0.2,0-0.4v-0.7C221.9,342.6,221.9,342.5,221.8,342.4 M223.5,338.5
					c0,0.2-0.1,0.3-0.1,0.5c0,0.2,0,0.4,0.1,0.5l0.2,0.4l0.1,0.5c0.1,0.2,0.1,0.3,0.3,0.4c0.2-0.1,0.3-0.2,0.3-0.5
					c0-0.1,0.1-0.3,0.1-0.6c0-0.2-0.1-0.3-0.1-0.3c-0.1-0.1-0.1-0.2-0.2-0.3v-0.4c0-0.2-0.1-0.4-0.2-0.5c-0.1-0.1-0.1-0.1-0.2-0.1
					c-0.1,0-0.2,0-0.2,0.1C223.6,338.3,223.5,338.4,223.5,338.5 M221.9,333.6c-0.2-0.3-0.3-0.6-0.3-0.7c0-0.2-0.1-0.3-0.1-0.4
					c0-0.1-0.1-0.1-0.2-0.1c-0.1,0-0.1,0-0.2,0c0,0-0.1,0.1-0.1,0.2c-0.1,0.2-0.1,0.5-0.1,0.7c0,0.3,0,0.5,0.1,0.6
					c0,0,0.1,0.1,0.2,0.2c0.1,0.1,0.2,0.2,0.2,0.3c0,0.1,0,0.2,0,0.3c0,0.1,0,0.2,0,0.3s0.1,0.2,0.2,0.4c0.2,0.3,0.4,0.6,0.5,0.9
					h0.3c-0.1-0.1-0.1-0.4,0-0.7c0-0.3,0-0.5-0.1-0.7c-0.1-0.1-0.1-0.2-0.1-0.2c0-0.1,0-0.2,0-0.4
					C222.1,334.1,222,333.9,221.9,333.6 M217.1,333.3c0,0,0,0-0.1,0c-0.1,0-0.2,0.1-0.2,0.3c-0.1,0.4-0.1,0.9-0.1,1.4
					c0,0.2,0,0.4,0.1,0.5c0.1,0.2,0.2,0.3,0.3,0.4c0.2,0.1,0.3,0.1,0.5,0.1c0.1-0.2,0.1-0.3,0.1-0.4c0,0-0.1-0.2-0.1-0.3
					c-0.1-0.1-0.1-0.3-0.1-0.4c0-0.2,0-0.4,0-0.5c0-0.1,0-0.3,0-0.6c0-0.2-0.1-0.3-0.1-0.3C217.4,333.4,217.3,333.3,217.1,333.3
					 M213,337.7c0.1-0.1,0.1-0.2,0.2-0.4c0-0.2,0.1-0.4,0.1-0.7l0-1.3c0-0.4,0-0.6,0.2-0.7c-0.1-0.1-0.2-0.2-0.4-0.2
					s-0.3,0.1-0.4,0.2c-0.1,0.1-0.1,0.3-0.1,0.6l0,1.6c0,0.4,0,0.7,0.2,0.9C212.7,337.8,212.8,337.8,213,337.7 M212.9,327.9
					c0,0.1-0.1,0.2-0.1,0.4c0,1,0,1.7,0.1,2c0,0.2,0.1,0.4,0.2,0.4c0.1,0.1,0.3,0,0.4-0.1c0.1-0.1,0.1-0.2,0.2-0.4
					c0.1-0.3,0.1-0.9,0.1-1.6c0-0.2,0-0.4,0-0.5l0.2-0.4c0.1-0.2,0.1-0.4,0-0.6c-0.2,0-0.3,0-0.5,0.1c-0.1,0-0.2,0.1-0.3,0.3
					C213,327.6,213,327.8,212.9,327.9 M217.1,323.7C217.2,323.8,217.1,323.8,217.1,323.7c-0.2,0-0.2,0.1-0.3,0.2l-0.1,0.2
					c0,0.2,0,0.4,0,0.7c0,0.7,0,1.3,0.1,1.7l0.5,0.1c0.1-0.3,0.2-0.7,0.2-1.2c0-0.6,0-1,0.1-1.3
					C217.6,323.9,217.4,323.8,217.1,323.7 M220.6,317c-0.1,0-0.2,0-0.3,0c-0.1,0.1-0.1,0.2-0.2,0.2c-0.1,0.1-0.2,0.2-0.3,0.3
					c0,0.1,0,0.2,0,0.3c0,0.4,0,0.9,0.1,1.3c0,0.3,0.1,0.4,0.3,0.5c0.2,0,0.3-0.1,0.3-0.3c0-0.1,0.1-0.2,0.1-0.4l0.1-0.8
					c0-0.3,0.1-0.4,0.1-0.5l0.1-0.2c0-0.1,0-0.2-0.1-0.3C220.7,317.1,220.7,317,220.6,317 M218.9,315.4c0.1-0.2,0.1-0.3,0.1-0.3
					c0-0.1,0-0.2-0.1-0.3l-0.1-0.1c-0.1,0-0.2,0-0.4,0.2c-0.2,0.2-0.3,0.4-0.3,0.5c0,0.1,0,0.3,0,0.5v0.8c0,0.1,0,0.2,0.1,0.3
					c0.1,0.1,0.2,0.1,0.4,0.1c0.1,0,0.1,0,0.2,0c0.1,0,0.1-0.1,0.1-0.2c0.1-0.2,0.1-0.4,0.1-0.7
					C218.8,315.7,218.9,315.5,218.9,315.4 M216,318.5c0-0.1,0-0.1-0.1-0.2c-0.1,0-0.2,0-0.3,0l-0.2,0.2c-0.2,0.1-0.3,0.1-0.4,0.2
					c-0.1,0.1-0.1,0.2-0.1,0.4l0,0.8c-0.1,0.5,0,0.8,0.1,1.1h0.5c0.2-0.4,0.2-0.9,0.2-1.3c0-0.2,0-0.3,0-0.4
					c0.1-0.1,0.1-0.2,0.2-0.3c0-0.1,0-0.2,0-0.3L216,318.5 M212.9,319.9c-0.1,0.1-0.2,0.2-0.2,0.2c0,0.1-0.1,0.2-0.1,0.3v0.9
					c0,0.4,0,0.8,0.1,1l0.4,0.1c0,0,0.1-0.1,0.2-0.2c0.1,0,0.1-0.2,0.1-0.4l-0.1-0.6c0-0.4,0.1-0.7,0.2-0.9c0.2-0.3,0.3-0.5,0.3-0.7
					c0-0.1-0.1-0.1-0.2-0.2c-0.1,0-0.2,0-0.3,0C213.3,319.5,213.2,319.7,212.9,319.9 M278.8,299.4c-0.1,0-0.1,0.1-0.1,0.1
					c0,0.1,0,0.2,0.1,0.3c0.1,0.3,0.2,0.4,0.3,0.5c0.2,0.3,0.3,0.4,0.3,0.5c0,0.1,0.1,0.2,0.1,0.4c0,0.2,0.1,0.3,0.1,0.4l0.4,0.1
					c0-0.1,0-0.1,0.1-0.2c0.1-0.2,0.1-0.2,0.1-0.2c0-0.1,0.1-0.2,0.1-0.3c0-0.2,0-0.3-0.1-0.4c0-0.1-0.1-0.1-0.1-0.2
					c-0.1-0.1-0.1-0.1-0.1-0.2c-0.1-0.2-0.2-0.3-0.2-0.4c-0.1-0.2-0.4-0.4-0.6-0.4v0.1C278.9,299.4,278.8,299.4,278.8,299.4
					 M277,295c0-0.1-0.1-0.2-0.2-0.3c-0.1-0.1-0.2-0.1-0.3,0c-0.1,0.1-0.1,0.2-0.2,0.4c0,0.3,0,0.5,0,0.6l0.2,0.5
					c0,0.1,0.1,0.2,0.1,0.4l0.2,0.5c0.1,0.2,0.2,0.3,0.2,0.3l0.3,0.1c0.2,0,0.3,0,0.4,0c0.2-0.1,0.2-0.3,0.1-0.5
					c0-0.1-0.2-0.3-0.3-0.4c-0.2-0.2-0.3-0.3-0.3-0.5c0-0.2,0-0.3,0-0.4l-0.2-0.2L277,295 M278.8,302.5c0-0.2,0-0.3-0.1-0.4
					c-0.1-0.1-0.2-0.2-0.4-0.1c-0.1,0-0.2,0.1-0.2,0.2l0,0.3c0,0.2,0,0.4,0.1,0.5c0,0.1,0.1,0.2,0.2,0.4c0.1,0.1,0.1,0.3,0.1,0.3
					l0.4,0.1c0.2,0,0.3,0,0.4-0.1c0.1-0.1,0.1-0.3,0.1-0.4c-0.1-0.1-0.1-0.1-0.2-0.2c0-0.1-0.1-0.2-0.1-0.2l-0.1-0.2
					C278.8,302.8,278.8,302.7,278.8,302.5 M285.7,302c0-0.1-0.1-0.2-0.2-0.2c-0.1,0-0.2,0-0.3,0c-0.1,0.1-0.1,0.1-0.2,0.3
					c0,0.1,0,0.2,0,0.3c0,0.1-0.1,0.2-0.2,0.4c-0.1,0.2-0.1,0.3,0,0.5c0,0.1,0,0.1,0.1,0.2c0.1,0.1,0.2,0.1,0.4,0.1l0.1-0.1l0.1-0.2
					c0,0,0-0.1,0.1-0.2c0.1-0.1,0.1-0.2,0.2-0.2c0-0.1,0.1-0.2,0.1-0.4C285.8,302.3,285.8,302.1,285.7,302 M283.8,300.4
					c0,0.1,0.1,0.2,0.2,0.4c0.1,0.1,0.1,0.3,0.1,0.4c0,0.2,0,0.4,0.1,0.4c0,0.1,0.1,0.1,0.2,0.1h0.3c0.1-0.3,0.2-0.7,0.1-1.1
					c0-0.1,0-0.2-0.1-0.3c-0.1-0.1-0.2-0.1-0.2-0.2l-0.2-0.2c-0.1-0.1-0.2-0.1-0.3,0c-0.1,0-0.1,0.1-0.1,0.2L283.8,300.4 M283,294.5
					c-0.1-0.1-0.2-0.2-0.3-0.2c-0.1,0-0.1,0.1-0.2,0.2c0,0.1,0,0.2,0,0.3c0,0.2,0,0.3,0.1,0.4c0,0,0,0.1,0.1,0.2
					c0,0.1,0.1,0.1,0.1,0.2c0,0.1,0,0.2,0,0.3c0,0.1,0,0.2,0.1,0.2c0.1,0.1,0.1,0.2,0.1,0.2l0,0.2c0,0.1,0.1,0.1,0.2,0.2
					c0.1,0,0.1,0,0.2,0c0.2-0.2,0.2-0.4,0.2-0.7c-0.1-0.2-0.2-0.3-0.2-0.4c0-0.2,0-0.3-0.1-0.4c-0.1-0.2-0.2-0.3-0.2-0.4
					C283.1,294.7,283.1,294.6,283,294.5 M280.7,295.3L280.7,295.3c-0.2,0-0.3,0-0.3,0.2c0,0.1,0,0.2,0,0.3c0,0.1,0,0.2,0,0.3
					c0,0.1,0,0.2,0.1,0.3l0.2,0.2c0,0.1,0.1,0.2,0,0.3c0,0.2,0,0.2,0,0.3c0,0.2,0.1,0.3,0.3,0.4l0.5,0.1c0-0.1,0-0.2,0.1-0.3
					c0-0.1,0.1-0.2,0.1-0.3c-0.1-0.2-0.1-0.3-0.1-0.4c0-0.1,0-0.2,0-0.4c0-0.2,0-0.3-0.1-0.4c-0.1-0.1-0.1-0.1-0.2-0.2
					c0-0.2-0.1-0.3-0.1-0.3C280.9,295.3,280.8,295.2,280.7,295.3C280.8,295.2,280.7,295.2,280.7,295.3 M281.7,323.1
					c-0.1,0-0.2,0.1-0.2,0.2c0,0,0,0.2,0,0.4c0,0.3-0.1,0.5-0.3,0.9c-0.1,0.2-0.3,0.4-0.5,0.5c-0.3,0.2-0.6,0.3-0.8,0.4
					c-0.3,0.2-0.6,0.4-0.8,0.5c-0.5,0.2-1.3,0.3-2.3,0.2c0.1,0.2,0.3,0.4,0.7,0.6c0.2,0.1,0.4,0.2,0.5,0.2c0.1,0,0.2,0,0.4-0.1
					c0.5-0.1,0.8-0.2,0.9-0.3c0.2-0.1,0.5-0.3,0.9-0.5c0.2-0.1,0.5-0.3,0.9-0.5c0.3-0.2,0.6-0.6,0.9-1.2c0.1-0.2,0.2-0.4,0.2-0.5
					c0.1-0.2,0-0.4-0.2-0.5C281.9,323,281.8,323,281.7,323.1 M281.2,306.6c-0.4,0-0.6,0.4-0.7,1.1c-0.2,1.1-0.4,2.2-0.7,3.3
					c-0.2,0.6-0.6,1.7-1.2,3.3c-0.3,0.8-0.5,1.4-0.8,1.8c-0.4,0.6-0.8,1.3-1.5,1.9c-0.4,0.4-1,1-1.8,1.6c-1,0.8-1.8,1.4-2.5,1.8
					c-1,0.6-1.9,1-2.8,1.2c-0.4,0.1-0.7,0.1-0.9,0.2c-0.3,0.1-0.6,0.2-0.8,0.3c-0.3,0.1-0.4,0.3-0.3,0.5c0,0.1,0.2,0.2,0.4,0.2
					c1.1,0.2,2.4-0.2,3.8-0.9c0.9-0.5,1.7-0.9,2.5-1.5c0,0.4,0,0.8,0.2,1.2c0.2,0.6,0.6,1,1,1.3c0.5,0.3,1.1,0.5,1.9,0.6
					c0.9,0.1,1.7-0.1,2.3-0.5c0.9-0.5,1.5-1.5,1.7-2.9c0.2-0.8,0.2-1.7,0.1-2.7c-0.1-0.7-0.2-1.6-0.4-2.7c-0.1-0.3-0.1-0.6-0.1-0.8
					c-0.1-0.5-0.1-1-0.1-1.4c0-0.4,0-0.6-0.1-0.8c0-0.1-0.1-0.1-0.1-0.2c0.4-1.2,0.8-2.4,1-3.7c0-0.1,0.1-0.2,0.1-0.2
					c0.1,0,0.1,0,0.2,0.1l0.8,1.5c0.2,0.4,0.4,0.6,0.6,0.8c0.2,0.1,0.3,0.1,0.5,0.1c0.2,0,0.3-0.1,0.4-0.2c0.2-0.3,0.1-0.7-0.2-1.1
					c-0.7-1-1.3-1.9-1.8-2.6C281.7,306.8,281.4,306.6,281.2,306.6 M209.5,318.5c0.9-2.1,1.6-3.8,2.2-4.8c0.7-1.3,1.5-2.4,2.3-3.3
					c-2.4,1.9-4.6,3.9-6.8,6.1c-5.5,5.5-10.2,11.8-14.1,18.9c-1,1.7-1.9,3.5-2.7,5.3c0.1,0,0.2,0.1,0.2,0.1c0,0,0,0,0,0
					c0.4,0,0.6,0.8,0.8,2.3c0.1,0.5,0.2,2.3,0.4,5.4c0.4,5.9,1.1,9.8,2.2,11.8c2,3.9,4,7.1,6,9.6c2.6,3.2,5.5,5.4,8.6,6.7
					c-1.3-2.3-2.2-4.9-2.7-7.6c0.3-0.2,0.6-0.1,0.9,0.2c0.2,0.3,0.4,0.6,0.6,1.1c0.2,0.7,0.6,1.4,1.1,2c0.5,0.6,1,1.1,1.7,1.5
					c-0.5-1-1-2.1-1.3-3.5c-0.2-0.8-0.4-2.1-0.6-3.7c-1-8.5-1.9-17.4-2.5-26.5c-0.2-2.4-0.2-4.2-0.2-5.5c0-2,0.1-3.9,0.4-5.5
					c0.3-1.6,0.8-3.4,1.5-5.4C207.9,322.6,208.5,320.8,209.5,318.5 M229.5,300.9c-1.3,2.4-2.4,4.5-3.3,6.4c-1.1,2.5-1.8,4.8-2.3,7.1
					c-0.5,2.5-0.6,5-0.4,7.5c0.3,2.6,1,5,2.2,7c0.3,0.5,0.8,1.4,1.6,2.6c0.7,1.1,1.2,1.9,1.6,2.6c0.5,1,0.8,2.2,1.1,3.5
					c0.2,0.7,0.3,2,0.6,3.7c2.4-2.3,4.1-5,5.3-8.1c0.1-0.1,0.2-0.1,0.4-0.1c0.2,0,0.3,0.1,0.4,0.3c0.1,0.2,0.1,0.5,0,1l-1.8,6.5
					c-0.5,1.9-0.8,3.4-0.9,4.5c0,1.4,0.2,2.9,0.8,4.4c1.4,4,4.3,7.6,8.7,10.7c1.7,1.2,3.7,2.4,6,3.7c0.8,0.4,2.9,1.4,6.3,3.1
					c0.4,0.2,0.6,0.3,0.8,0.5l12.6-3c0.2,0,0.4-0.1,0.5-0.1c-0.7-1.4-1.3-2.9-2-4.5c-1.3-3.2-2.8-8-4.6-14.4l-3.5-12.6
					c-0.4,0.1-0.7,0.1-1,0.1c-0.7,0-1.4-0.2-1.9-0.5c-0.2-0.1-0.5-0.4-1-0.9l-1.2-1.3c-0.7-0.7-1.1-1.2-1.4-1.7
					c-0.2-0.5-0.4-0.9-0.4-1.3c-0.2-0.1-0.4-0.1-0.6-0.2c-1.1-0.5-2.2-1.4-3.4-2.9c-2.9-3.5-4.5-7.1-4.7-10.8
					c-0.1-1.8,0.3-4.5,1.2-7.9c0.9-3.5,1.4-6.2,1.3-7.9c0-0.6,0-1.1,0-1.3c0-0.4,0.1-0.8,0.2-1.1
					C240.8,296.5,235.1,298.3,229.5,300.9 M283.4,392.9c0-0.3,0-0.6,0-0.7c0-0.3-0.2-0.5-0.4-0.5c-0.2,0.6-0.6,1.1-1.1,1.5
					c-0.4,0.4-0.8,0.6-1.3,0.8c0,0.3,0,0.5,0.1,0.7c0.1,0.4,0.2,0.9,0.3,1.7c0.1,0.6,0,1.2-0.2,1.6c-1.6,0.1-3.2,0.5-4.6,1.5
					c-0.5,0.3-0.8,0.6-0.9,1c-0.2,0.6,0,1.2,0.6,1.9c0.6,0.6,1.3,1,2.1,1.2c0.8,0.2,1.6,0.2,2.4,0c0.4-0.2,0.7-0.4,0.8-0.6
					c0.2-0.3,0.3-0.4,0.3-0.5c0.1-0.1,0.2-0.1,0.4,0c0.1,0.1,0.2,0.1,0.3,0.3c0.1,0.2,0.1,0.4,0.1,0.8c-0.1,0.9,0,1.7,0.2,2.5
					c0.3,0.9,0.8,1.5,1.4,1.8c0.4,0.2,0.7,0.3,1.2,0.3c0.4,0,0.8-0.1,1.1-0.3c0.3-0.2,0.6-0.5,0.9-0.8s0.4-0.7,0.4-1.1
					c0-0.2,0-0.5,0-0.8c0-0.4,0-0.6,0-0.7c0-0.6,0.2-1.1,0.6-1.3c0.1,0.5,0.4,0.9,0.8,1.2c0.4,0.3,0.9,0.5,1.4,0.4
					c0.4,0,0.8-0.2,1.2-0.4c0.8-0.4,1.2-0.6,1.2-0.6c0.7-0.3,1.1-0.4,1.1-0.4c0.4-0.2,0.6-0.5,0.7-0.8c0.1-0.3,0-0.7-0.3-1
					c-0.3-0.4-0.6-0.7-1.1-1.1c-0.3-0.2-0.7-0.4-1.4-0.7c-0.6-0.3-1.2-0.6-1.6-0.7c-0.6-0.2-1.2-0.3-1.7-0.2c-0.3-1.3-0.5-3-0.5-5.2
					c-0.6-0.2-1.2-0.6-1.6-1.2c0,0-0.1,0.1-0.3,0.2c0,0.2,0,0.5-0.2,0.7c-0.2,0.2-0.3,0.4-0.6,0.5c-0.2,0.1-0.5,0.1-0.7,0
					c-0.2-0.1-0.5-0.2-0.6-0.3C283.6,393.4,283.5,393.1,283.4,392.9 M233.7,392.4c0.1,0.2,0.2,0.4,0.3,0.8c0.3,1.4,0.6,2.4,0.9,3.2
					c0.4,1.2,0.9,2.2,1.5,3c0.5,0.7,1,1.1,1.5,1.1c0.4,0.1,0.7,0,1.1-0.2c0.3-0.2,0.6-0.4,0.9-0.8c-0.5-0.5-0.8-0.9-0.9-1.3
					c-0.1-0.3,0-0.5,0.1-0.8c0.1-0.3,0.3-0.4,0.6-0.5c0.3,0.5,0.5,0.8,0.7,1c0.3,0.4,0.6,0.6,0.9,0.8c0.2,0.1,0.5,0.2,0.7,0.2
					c0.3,0,0.5-0.1,0.6-0.3c0.2-0.3,0.1-0.8-0.3-1.5c-0.4-0.7-0.5-1.2-0.3-1.5c0.1-0.2,0.4-0.3,0.7-0.3c0.3,0,0.5,0.1,0.7,0.3
					c0.2,0.3,0.4,0.8,0.4,1.5c0.6,0,1.1-0.1,1.5-0.5c0.2-1.1-0.2-2.2-1.2-3.4c0,0-0.4-0.5-1.2-1.4c-0.5-0.6-0.9-1-1.1-1.5
					c-0.2-0.3-0.2-0.6-0.2-0.8c0,0,0,0,0-0.1c-2.6,1.1-5.3,1.9-8,2.6C233.7,392.3,233.7,392.4,233.7,392.4 M255.1,435.1
					c0.6,1.7,0.3,3.9-0.9,6.4c2.5,0.6,4.8,1,6.7,1.2c2.4,0.3,4.7,0.3,6.8,0c0.8-0.1,1.9-0.3,3.1-0.5c1.7-0.3,2.8-0.5,3.1-0.6
					c1.3-0.2,3.3-0.5,6.1-0.7c0.6-0.1,1.1,0,1.3,0.1c0.3,0.1,0.6,0.4,0.9,0.9l3.1,4.4c0.3,0.5,0.6,0.7,0.9,0.6
					c0.2,0,0.4-0.2,0.6-0.4l2.6-3l-4-3.7c-0.4-0.4-0.6-0.7-0.5-1c0.1-0.3,0.4-0.4,0.9-0.5c4.6-1,8.2-1.9,10.7-2.8
					c3.8-1.4,7-3.1,9.4-5.3c0.8-0.7,1.3-1.4,1.3-2c0-0.3-0.1-0.6-0.3-1c-0.2-0.4-0.4-0.8-0.5-1c-0.6-1-0.8-2.1-0.8-3.3
					c-2.8,1.4-5.9,2.9-9.3,4.4c-5.4,2.5-10.2,4.4-14.4,5.8c-5.3,1.8-10.3,2.9-15.1,3.4c-2.4,0.2-4.5,0.3-6.2,0.1
					C258.8,436.5,256.9,436,255.1,435.1z"/>
			</g>
		</g>
		<g>
			<path class="st7" d="M385.4,96.5c-1.9-0.3-3.9-0.4-6-0.5c0.1-1.8,0.3-6.1,0.5-12.9c0.2-6.8,0.4-11.2,0.5-13.2
				c1-13.1,1.9-26.1,2.7-39.1c-6-0.3-10.8-0.6-14.3-0.9c-1.8-0.2-3.6-0.4-5.3-0.6c-12.7,14.5-24.2,27.5-34.5,39.1
				c-6,6.8-11.6,13.1-16.8,19c-0.2-1.4-0.4-2.7-0.6-4.1c-0.4-2.4-0.9-4.8-1.4-7.2c-2.3-10-5.9-19.1-10.8-27.4c-3-5-6.2-9.3-9.6-12.7
				c-0.2-0.2-0.3-0.4-0.5-0.5c-2.5-2.4-5.1-4.4-7.8-6c-4.9-2.8-10.1-4.2-15.6-4.2c-3.1,0-6,0.4-8.9,1.3c-9.1,2.8-17.2,9.9-24.2,21.4
				c-0.1,0.2-0.3,0.4-0.4,0.7C224.7,62.2,220.1,78,219,96.1c-0.5,0-0.9,0-1.4-0.1c0.1-1.8,0.3-6.1,0.5-12.9
				c0.2-6.8,0.4-11.2,0.5-13.2c1-13.1,1.9-26.1,2.7-39.1c-6-0.3-10.8-0.6-14.3-0.9c-1.8-0.2-3.6-0.4-5.3-0.6
				c-38.9,44.1-66.2,75.1-81.9,92.9c1.9,0.2,10.2,0.3,24.7,0.3c16.6,0,28.9-0.3,36.8-0.8c-0.9,12.1-2,26.3-3.3,42.7
				c3.3,0.7,6.9,1.2,10.5,1.6c6,0.6,13,0.7,21,0.3c1.2-10.8,2.3-21.7,3.4-32.5c0.5-5.2,1-10.4,1.5-15.6c0.6,0.1,2.2,0.4,4.8,0.9
				c0.1,1.2,0.3,2.5,0.4,3.7c1.2,9.6,3.4,18.4,6.7,26.6c1.7,4.3,3.8,8.4,6.1,12.3c9.3,15.6,20.4,23.4,33.5,23.4
				c13.1,0,24.2-7.8,33.5-23.4c5.8-9.7,9.7-20.7,11.9-32.9c0.4-2.1,0.7-4.2,1-6.3c1.1,0,2.1,0,3.1,0c12-0.1,21.2-0.4,27.6-0.8
				c-0.9,12.1-2,26.3-3.3,42.7c3.3,0.7,6.9,1.2,10.5,1.6c6,0.6,13,0.7,21,0.3c1.8-16,3.4-32,5-48c0.6,0.1,2.3,0.4,5,1
				c3,0.6,5.1,1.1,6.3,1.5c0.8-7.7,1.7-15.5,2.5-23.3C388,97,386.4,96.7,385.4,96.5z M183.7,100.3c-0.1,0-2.9,0-8.4-0.1
				c-4.8-0.1-7.8-0.2-9.1-0.5c0.9-1.2,3.5-5,7.9-11.5c5.2-7.7,8.8-13.3,11-16.9C184.8,75.6,184.3,85.3,183.7,100.3z M272.7,121.9
				c-0.3,6.4-0.7,12.3-1.3,17.5c0,0.1,0,0.3,0,0.4c-1.1,9.6-2.3,14.4-3.8,14.4c-1.5,0-2.8-4.9-3.8-14.8c-1.1-9.8-1.6-21.7-1.6-35.6
				s0.5-25.8,1.6-35.7c1.1-9.8,2.3-14.7,3.8-14.7s2.8,4.9,3.8,14.7c1.1,9.9,1.6,21.7,1.6,35.7C273,110.3,272.9,116.3,272.7,121.9z
				 M345.5,100.3c-0.1,0-2.9,0-8.4-0.1c-4.8-0.1-7.8-0.2-9.1-0.5c0.9-1.2,3.5-5,7.9-11.5c5.2-7.7,8.8-13.3,11-16.9
				C346.6,75.6,346.1,85.3,345.5,100.3z"/>
			<g>
				<path class="st8" d="M226,96.9c-0.7-0.1-1.7-0.2-2.9-0.4c-0.7,6.7-1.5,13.5-2.2,20.2c-1.2-0.4-3.3-0.9-6.3-1.5
					c-0.1,0-0.1,0-0.2,0c0.1,1.2,0.3,2.5,0.4,3.7c2.3,0.2,4.6,0.6,6.9,1.4c0.6-3.9,1.4-8.9,2.3-14.9
					C224.6,101.6,225.2,98.7,226,96.9 M307.4,83.4c-0.2-1.4-0.4-2.7-0.6-4.1c-10.8,11.3-21.7,22.4-32.9,33.5c2.5,0,4.9,0.1,7.2,0.3
					C288.1,105.2,296.9,95.3,307.4,83.4z"/>
				<path class="st6" d="M358.9,28.4c-1.8-0.2-3.6-0.4-5.3-0.6c-12.7,14.5-24.2,27.5-34.5,39.1c-6,6.8-11.6,13.1-16.8,19
					c-10.5,11.9-19.2,21.8-26.2,29.7c-2.4-0.1-4.8-0.2-7.2-0.3c11.1-11,22.1-22.2,32.9-33.5c-0.4-2.4-0.9-4.8-1.4-7.2
					c-2.3-10-5.9-19.1-10.8-27.4c-3-5-6.2-9.3-9.6-12.7c-0.2-0.2-0.3-0.4-0.5-0.5c-2.5-2.4-5.1-4.4-7.8-6
					c-4.9-2.8-10.1-4.2-15.6-4.2c-3.1,0-6,0.4-8.9,1.3C238,28,230,35.1,223,46.6c-0.1,0.2-0.3,0.4-0.4,0.7
					c-7.9,13.4-12.5,29.1-13.6,47.3c-0.5,0-0.9,0-1.4-0.1c0.1-1.8,0.3-6.1,0.5-12.9c0.2-6.8,0.4-11.2,0.5-13.2
					c1-13.1,1.9-26.1,2.7-39.1c-6-0.3-10.8-0.6-14.3-0.9c-1.8-0.2-3.6-0.4-5.3-0.6c-38.9,44.1-66.2,75.1-81.9,92.9
					c1.9,0.2,10.2,0.3,24.7,0.3c16.6,0,28.9-0.3,36.8-0.8c-0.9,12.1-2,26.3-3.3,42.7c3.3,0.7,6.9,1.2,10.5,1.6c6,0.6,13,0.7,21,0.3
					c1.2-10.8,2.3-21.7,3.4-32.5c0.5-5.2,1-10.4,1.5-15.6c0.6,0.1,2.2,0.4,4.8,0.9c0.1,0,0.1,0,0.2,0c3,0.6,5.1,1.1,6.3,1.5
					c0.7-6.7,1.4-13.4,2.2-20.2c1.2,0.2,2.2,0.3,2.9,0.4c-0.7,1.8-1.4,4.7-2,8.5c-1,6-1.8,11-2.3,14.9c-2.3-0.8-4.6-1.3-6.9-1.4
					c1.2,9.6,3.4,18.4,6.7,26.6c1.7,4.3,3.8,8.4,6.1,12.3c9.3,15.6,20.4,23.4,33.5,23.4s24.2-7.8,33.5-23.4
					c5.8-9.7,9.7-20.7,11.9-32.9c0.4-2.1,0.7-4.2,1-6.3c1.1,0,2.1,0,3.1,0c12-0.1,21.2-0.4,27.6-0.8c-0.9,12.1-2,26.3-3.3,42.7
					c3.3,0.7,6.9,1.2,10.5,1.6c6,0.6,13,0.7,21,0.3c1.8-16,3.4-32,5-48c0.6,0.1,2.3,0.4,5,1c3,0.6,5.1,1.1,6.3,1.5
					c0.8-7.7,1.7-15.5,2.5-23.3c-2.1-0.4-3.7-0.7-4.8-0.8c-1.9-0.3-3.9-0.4-6-0.5c0.1-1.8,0.3-6.1,0.5-12.9
					c0.2-6.8,0.4-11.2,0.5-13.2c1-13.1,1.9-26.1,2.7-39.1C367.1,29.1,362.4,28.8,358.9,28.4 M330.9,84.1c5.2-7.7,8.8-13.3,11-16.9
					c-0.3,4.3-0.8,14-1.5,29c-0.1,0-2.9,0-8.4-0.1c-4.8-0.1-7.8-0.2-9.1-0.5C323.9,94.5,326.5,90.6,330.9,84.1 M258.8,64.2
					c1.1-9.8,2.3-14.7,3.8-14.7s2.8,4.9,3.8,14.7c1.1,9.9,1.6,21.7,1.6,35.7c0,6.5-0.1,12.5-0.3,18.1c-0.3,6.4-0.7,12.3-1.3,17.5
					c0,0.1,0,0.3,0,0.4c-1.1,9.6-2.3,14.4-3.8,14.4c-1.5,0-2.8-4.9-3.8-14.8c-1.1-9.8-1.6-21.7-1.6-35.6
					C257.2,85.9,257.7,74,258.8,64.2 M170.3,96.2c-4.8-0.1-7.8-0.2-9.1-0.5c0.9-1.2,3.5-5,7.9-11.5c5.2-7.7,8.8-13.3,11-16.9
					c-0.3,4.3-0.8,14-1.5,29C178.5,96.3,175.8,96.3,170.3,96.2z"/>
			</g>
		</g>
	</g>
</g>
</svg>
