<?xml version="1.0" encoding="utf-8"?>
<!-- Generator: Adobe Illustrator 26.4.1, SVG Export Plug-In . SVG Version: 6.00 Build 0)  -->
<svg version="1.1" id="Layer_2_00000065767505355751540480000014381706921834333327_"
	 xmlns="http://www.w3.org/2000/svg" xmlns:xlink="http://www.w3.org/1999/xlink" x="0px" y="0px" viewBox="0 0 338 207.9"
	 style="enable-background:new 0 0 338 207.9;" xml:space="preserve">
<style type="text/css">
	.st0{fill:#E2C620;}
</style>
<g id="Layer_1-2">
	<g>
		<g>
			<path class="st0" d="M132.8,105c0-0.8-0.8-1.7-1.7-2.7l0,0c-0.8,0-1.7-1.7-25.6-1.7c1.7-7.6,4.2-17.1,6.8-29.8
				c4.2-17.1,6.8-28.1,7.6-32.5c2.7-11.2,4.2-18.8,4.2-24.7c0-3.5,0-5.9,0-7.6c-0.8-2.7-1.7-3.5-3.5-4.2c-1.7,0-2.7,0-4.2,0
				c-1.7,0.8-2.7,1.7-4.2,4.2c-1.7,1.7-3.5,4.2-5.1,7.6c-1.7,2.7-4.2,6.8-6.8,12.7c-2.7,5.9-5.9,11.2-9.5,17.1s-6.7,14.4-11.8,23.9
				L62.8,99.8C34.7,99,27,98.1,26.2,98.1s-1.7,0-2.7,0.8c-0.8,0.8-1.7,1.7-1.7,2.7s0,1.7,0.8,2.7c0.8,0.8,1.7,1.7,2.7,1.7
				c1.7,0,13.6,0.8,34.2,1.7c-11.9,22.2-20.4,37.5-27.4,46.1c-4.2,5.1-7.6,6.8-10.3,5.1c-1.7-0.8-2.7-2.7-4.2-4.2
				c-1.7-2.7-2.7-5.1-3.5-7.6c-0.8-2.7-1.7-6.8-2.7-10.3c-0.8-4.2-0.8-7.6-0.8-11.9c0-4.2,0-7.6,1.7-11.9c0.8-4.2,1.7-7.6,3.5-11.2
				c1.7-4.2,4.2-7.6,6.8-10.3c2.7-2.7,5.9-4.2,9.5-5.1c3.5-0.8,6.8-0.8,9.5-0.8s5.9,0.8,9.5,1.7c0.8,0,1.7,0,2.7,0
				c0.8,0,1.7-1.7,1.7-1.7c0-0.8,0-1.7,0-2.7c0-0.8-1.7-1.7-1.7-1.7c-10.3-3.5-18.8-3.5-26.6,0c-7.6,2.7-13.6,9.5-17.1,17.9
				c-3.5,7.6-5.1,16.2-5.1,25.6s0.8,17.9,3.5,25.6c2.7,7.6,6.8,13.6,11.2,16.2c0.8,0.8,2.7,0.8,3.5,1.7c1.7,0,2.7,0,4.2,0
				c1.6,0,3.5-0.8,5.1-2.7c1.7-1.7,4.2-3.5,5.9-5.9c6.8-9.5,17.1-26.6,29-50.4c1.7,0,3.5,0,5.1,0c10.3,0,18.8,0,24.7,0.8
				c-4.2,16.2-6.8,29.8-9.5,41c-2.7,11.2-4.2,20.4-5.1,27.4c-1.7,6.8-1.7,12.7-2.7,16.2c0,4.2,0,6.8,0,8.5c0.8,1.7,1.7,2.7,2.7,3.5
				c0.8,0,0.8,0,1.7,0c2.7,0,4.2-2.7,6.8-6.8c0.8-0.8,0.8-1.7,0-2.7c-0.8-0.8-0.8-1.7-1.7-1.7c-0.8-0.8-1.7-0.8-2.7,0
				c-0.8,0-0.8,0-1.7,0.8c0.8-7.6,3.5-22.2,7.6-42.7c2.7-11.9,5.9-26.6,9.5-42.7c17.1,0.8,22.2,0.8,23.9,1.7c0,0,0.8,0,1.7,0
				c1.7,0,2.7-0.8,2.7-1.7C132.8,106.7,132.8,105.9,132.8,105L132.8,105z M98.6,100.7c-6.8,0-15.4,0-25.6-0.8h-1.7
				c3.5-6.8,8.5-16.2,14.4-29C90,62.4,93.4,55.5,96,51.3c2.7-4.2,5.1-10.3,9.5-17.1c3.5-6.8,6.8-11.9,9.5-16.2
				c1.7-2.7,2.7-4.2,4.2-5.9c0,5.1-1.7,13.6-4.2,25.6c-0.8,5.1-3.5,15.4-7.6,32.5C103.8,80.2,101.2,90.5,98.6,100.7z"/>
			<path class="st0" d="M288.9,10.4c-0.8-1.7-2.7-2.7-4.2-1.7c-1.7,0-3.5,1.7-5.1,4.2c-1.7,2.7-2.7,4.2-4.2,7.6
				c-1.7,2.7-2.7,5.9-4.2,9.5c-1.6,3.5-2.8,7-2.8,9.5c-0.8,2.7-1.7,4.2-1.7,6.8c-4.2,17.1-9.5,35.8-13.6,55.4c0,0,0,0.8-0.8,0.8
				c-2.7,5.9-5.9,11.2-8.5,15.4c-2.7,4.2-5.1,6.8-6.8,7.6c-1.7,1.7-2.7,1.7-3.5,1.7l0,0c0,0,0,0-0.8,0c0,0-0.8-0.8-1.7-1.7
				c-0.8-0.8-1.7-2.7-1.7-4.2c-0.8-1.7-0.8-4.2-1.7-6.8c-0.8-3.5-0.8-6.8-0.8-11.2c0-1.7-0.8-2.7-2.7-3.5c-1.7,0-2.7,0-3.5,1.7
				c0,0.8-1.7,1.7-2.7,3.5c-5.1,6.8-9.5,11.9-11.9,15.4l0,0c0-2.7,0.8-6.8,2.7-11.2c0.8-1.7,0.8-2.7,1.7-4.2
				c1.7-4.2,4.2-6.8,6.8-8.5c1.7-1.7,4.2-2.7,7.6,1.7c0.8,0.8,1.7,0.8,2.7,1.7c0.8,0,1.7,0,2.7-0.8c1-0.8,0.8-1.7,1.7-2.7
				c0-0.8,0-1.7-0.8-2.7c-4.2-5.1-8.5-6.8-13.6-4.2c-3.5,0.8-5.9,3.5-9.5,7.6c-0.8,1.7-1.7,2.7-2.7,4.2c-0.8,0.8-0.8,0.8,0,0
				c-4.2,5.1-8.5,9.5-11.9,11.2c-4.2,2.7-5.9,2.7-6.8,2.7c-1.7-0.8-3.5-3.5-3.5-13.6c0-4.2-1.7-5.9-3.5-6.8c-1.7,0-4.2,0.8-5.1,3.5
				c-1.7,2.7-4.2,6.8-7.6,14.4c-1.7,2.7-2.7,5.1-2.7,5.1s0,0.8-0.8,0.8c-0.8-1.7-0.8-4.2-0.8-7.6c0-1.7,0-4.2,0-6.8
				c0-3.5,0-5.1,0-6.8s-0.8-2.7-2.7-2.7c-1.7-0.8-3.5-0.8-5.1,2.7c-4.2,5.9-8.5,11.9-11.9,18.8c2.7-9.5,5.1-17.1,8.5-24.7
				c0-0.8,0-1.7,0-2.7c0-0.8-0.8-1.7-1.7-1.7s-1.7,0-2.7,0s-1.7,0.8-1.7,1.7c-4.2,8.5-6.8,18.8-9.5,29c-0.8,3.5-1.7,5.9-1.7,8.5
				s-0.8,4.2-0.8,5.1c0,1.7,0,2.7,0,3.5s0.8,1.7,0.8,1.7s0.8,0,0.8,0.8c0.8,0,0.8,0,1.7,0c1.7,0,2.7-1.7,4.2-3.5
				c5.1-9.5,10.3-18.8,15.4-25.6c0,0.8,0,1.7,0,2.7c0,9.5,1.7,14.4,5.9,15.4c2.7,0.8,5.9-1.7,7.6-5.9c0.8-0.8,1.7-2.7,2.7-5.9
				c1.7-3.5,2.7-5.9,4.2-7.6c0.8,7.6,3.5,11.9,7.6,13.6c4.2,1.7,10.3,0,16.2-5.1c0,1.7,0,2.7,0,4.2c0,4.2,0.8,6.8,3.5,7.6
				c2.7,0.8,5.1,0,8.5-3.5c2.7-3.5,5.9-6.8,9.5-11.9c1.7,12.7,5.1,19.5,11.2,21.3c0.8,0,0.8,0,1.7,0c4.2,0,9.5-3.5,14.4-10.3
				c-0.8,4.2-1.7,7.6-2.7,11.9c-2.7,14.4-5.1,26.6-6.8,35.8c-1.7,7.6-1.7,11.9-1.7,14.4c0,2.7,1.7,4.2,2.7,4.2l0,0h0.8
				c0.8,0,1.7-0.8,2.7-1.7c1-0.8,1.7-1.7,1.7-2.7c0-0.8,0.8-1.7,1.7-3.5c0-0.8,0-1.7,0-2.7c0-0.8-0.8-1.7-1.7-1.7
				c1.7-9.5,4.2-26.6,9.5-48.6c5.1-22.2,10.3-45.2,15.4-65.7l0,0c7.6-12.7,13.6-23.9,17.1-33.3C289.8,19.7,290.6,13.8,288.9,10.4
				L288.9,10.4z M285.5,16.3c-0.8,7.6-4.2,17.1-11.9,30.7l-4.2,7.6l2.7-8.5c4.2-14.4,7.6-24.7,11.9-30.7l2.7-3.5L285.5,16.3
				L285.5,16.3z"/>
			<path class="st0" d="M307.7,10.4c-0.8-1.7-2.7-2.7-4.2-1.7c-1.7,0-3.5,1.7-5.1,4.2c-1.7,2.7-2.7,4.2-4.2,7.6
				c-1.7,2.7-2.7,5.9-4.2,9.5c-1.6,3.5-2.7,6.8-2.7,9.5c-0.8,2.7-1.7,4.2-1.7,6.8c-6.8,25.6-13.6,55.4-21.3,88.8
				c-2.7,14.4-5.1,26.6-6.8,35.8c-1.7,7.6-1.7,11.9-1.7,14.4c0,2.7,1.7,4.2,2.7,4.2l0,0h0.8c0.8,0,1.7-0.8,2.7-1.7
				c0.8-0.8,1.7-1.7,1.7-2.7s0.8-1.7,1.7-3.5c0-0.8,0-1.7,0-2.7c0-1-0.8-1.7-1.7-1.7c1.7-9.5,4.2-26.6,9.5-48.6
				c5.1-22.2,10.3-45.2,15.4-65.7l0,0c7.6-12.7,13.6-23.9,17.1-33.3C309.4,19.7,310.1,13.8,307.7,10.4L307.7,10.4z M305.1,12.1
				l-0.8,4.2c-0.8,7.6-5.1,17.1-11.9,30.7l-4.2,7.6l2.7-8.5c4.2-14.4,7.6-24.7,11.9-30.7C302.5,15.3,305.1,12.1,305.1,12.1z"/>
			<g>
				<path class="st0" d="M328.1,104.2c-2.7,4.2-5.1,7.6-8.5,11.9c-3.5,4.2-6.8,7.6-11.2,11.2c-4.2,3.5-7.6,5.1-11.2,5.1
					c-1.7,0-2.7,0-2.7-0.8c-5.9-2.7-6.8-12.7-2.7-30.7c0-0.8,0.8-1.7,1.7-2.7s1.7-0.8,2.7,0c1,0.8,1.7,0.8,1.7,1.7
					c0,0.8,0.8,1.7,0,2.7c-0.8,4.2-1.7,7.6-2.7,10.3c-0.8,2.7-0.8,5.1-0.8,6.8s0,2.7,0.8,3.5c0,1.7,0.8,1.7,0.8,1.7l0,0
					c0.8,0,3.5,0,11.2-6.8c5.1-5.1,10.3-11.2,14.4-17.9l0,0c0.8-0.8,1.7-0.8,1.7-1.7h0.8c0.8,0,1.7,0,1.7,0.8
					c0.8,0.8,1.7,1.7,1.7,2.7C328.9,102.4,328.1,104.2,328.1,104.2L328.1,104.2z"/>
				<path class="st0" d="M300.1,90.5c-0.8,0.8-1.7,0.8-3.5,0.8l0,0c-1.7,0-2.7-0.8-3.5-1.7c-0.8-0.8,0-1.7,0-2.7
					c0.8-1.7,2.7-2.7,4.2-3.5s2.7,0,3.5,0c0.8,0,1.7,1.7,1.7,2.7C302.5,88,301.8,89.7,300.1,90.5z"/>
			</g>
		</g>
		<path class="st0" d="M102.1,149.3c5.1,11.9,12.7,14.4,24.7,11.2c14.4-4.2,29-10.3,44.3-14.4c5.1-1.7,11.2-2.7,16.2-3.5
			c15.4-1.7,31.5,6.8,40.1,18.8c1.7,2.7,3.5,5.1,3.5,8.5h-0.8c-0.8-2.7-2.7-5.1-5.1-7.6c-5.9-6.8-14.4-11.2-23-13.6
			c-11.9-3.5-23.9,0-35,3.5c-11.9,3.5-23.9,7.6-35.8,11.2c-6.8,1.7-13.6,3.5-19.5,0.8c-6.8-2.7-10.3-9.5-11.2-15.4L102.1,149.3
			L102.1,149.3L102.1,149.3z"/>
		<path class="st0" d="M332.5,126.3c-0.8,1.7-2.7,2.7-4.2,1.7c-1.7-0.8-1.7-2.7,0-4.2c0.8-1.7,2.7-2.7,4.2-1.7
			C333.2,123,333.2,124.6,332.5,126.3z"/>
	</g>
</g>
</svg>
